<svg xmlns="http://www.w3.org/2000/svg" viewBox="0 0 76.18 77.51"><title>logo</title><path d="M21.71 25.76a12.85 12.85 0 0 0 12.18 2c8.82-2.87 18.27-17 30.6-14.44 5.93 1.23 10.22 6.81 11.28 13C80.63 54.5 41.38 75.4 32.19 77.57c0 0 14-9.43 23.39-20.5 10.25-12.2 15.55-26.21 6.42-29.7-7.82-2.99-28.3 21.18-40.29-1.61zM67.78 6a6 6 0 1 1-6-6 6 6 0 0 1 6 6z" fill="#e4953d"/><path d="M40.69 19.72c-.34.43-3.52 3.94-9.1 1.79C25.12 19 17.86 8.38 8.7 10.27c-4.4.9-7.6 5.06-8.39 9.63C-3.31 40.88 25.9 56.43 32.74 58c0 0-10.45-7-17.41-15.26-7.63-9-11.56-19.45-4.77-22 5.8-2.23 20.64 15.96 30.13-1.02zM5.78 4.5a4.5 4.5 0 1 0 4.5-4.5 4.5 4.5 0 0 0-4.5 4.5z" fill="#fff"/></svg>