<svg width="80" height="80" viewBox="0 0 80 80" xmlns="http://www.w3.org/2000/svg"><title>icon</title><g fill="none" fill-rule="evenodd"><path d="M32.152 27.003c-.87.043-2.01.615-2.94 1.098-2.64 1.374-2.618 6.34-1.485 9.022 1.4 3.312 3.845 6.09 6.452 8.697 2.606 2.607 5.383 5.053 8.695 6.453 2.682 1.133 7.646 1.155 9.02-1.486.703-1.353 1.604-3.134.773-3.915a1.058 1.058 0 0 0-.186-.14c-1.447-.866-3.42-1.671-4.889-1.95-1.413-.267-2.59 2.372-4.13 1.641-1.896-.899-3.893-2.3-5.74-4.147-1.847-1.847-3.248-3.845-4.147-5.741-.73-1.54 1.924-2.703 1.656-4.116-.278-1.468-1.083-3.443-1.95-4.89a1.259 1.259 0 0 0-.154-.201c-.244-.26-.58-.345-.975-.325z" fill="#FFF"/><g opacity=".401" stroke="#FFF"><path d="M72.346 61.796A38.819 38.819 0 0 0 79 40C79 18.46 61.54 1 40 1S1 18.46 1 40s17.46 39 39 39a38.861 38.861 0 0 0 15.952-3.401"/><path d="M55.935 75.614C60.343 73.821 65 69.044 65 64c0-4.662-2.9-8.647-6.996-10.249"/></g></g></svg>