<?xml version="1.0" standalone="no"?>
<!DOCTYPE svg PUBLIC "-//W3C//DTD SVG 1.1//EN" "http://www.w3.org/Graphics/SVG/1.1/DTD/svg11.dtd" >
<svg xmlns="http://www.w3.org/2000/svg" xmlns:xlink="http://www.w3.org/1999/xlink" version="1.1">
<metadata>
Created by FontForge 20170910 at Thu Dec 22 04:34:07 2016
 By Jimmy Wärting
(c) 2015 Apple Inc. All rights reserved.
</metadata>
<defs>
<font id="SFUIDisplay-Ultralight" horiz-adv-x="1661" >
  <font-face 
    font-family="SF UI Display"
    font-weight="100"
    font-stretch="normal"
    units-per-em="2048"
    panose-1="0 0 2 0 0 0 0 0 0 0"
    ascent="1638"
    descent="-410"
    x-height="1040"
    cap-height="1443"
    bbox="-467 -494 2441 2138"
    underline-thickness="44"
    underline-position="-369"
    stemh="63"
    stemv="61"
    unicode-range="U+0020-1F189"
  />
<missing-glyph horiz-adv-x="2048" 
d="M100 -494v355h1848v-355h-1848zM100 -76v354h1848v-354h-1848zM100 342v354h1848v-354h-1848zM100 760v354h1848v-354h-1848zM100 1178v354h1848v-354h-1848zM100 1595v355h1848v-355h-1848z" />
    <glyph glyph-name="uni24B6" unicode="A&#x25cb;" 
d="M694 644h275l-136 362h-4zM593 377h-49l257 680h60l257 -680h-49l-84 225h-307zM831 6c369 0 670 305 670 677s-301 676 -670 676s-671 -304 -671 -676s302 -677 671 -677zM831 -38c-396 0 -721 325 -721 721s325 721 721 721s720 -325 720 -721s-324 -721 -720 -721z
" />
    <glyph glyph-name="uni24B7" unicode="B&#x25cb;" 
d="M614 367v680h244c121 0 196 -75 196 -168c0 -81 -50 -140 -111 -154v-3c87 -12 151 -72 151 -168c0 -117 -89 -187 -233 -187h-247zM660 1004v-267h180c102 0 166 61 166 133c0 84 -56 134 -157 134h-189zM660 695v-286h179c137 0 206 50 206 144c0 87 -65 142 -169 142
h-216zM831 6c369 0 670 305 670 677s-301 676 -670 676s-671 -304 -671 -676s302 -677 671 -677zM831 -38c-396 0 -721 325 -721 721s325 721 721 721s720 -325 720 -721s-324 -721 -720 -721z" />
    <glyph glyph-name="uni24B8" unicode="C&#x25cb;" 
d="M1060 551h46c-14 -119 -118 -209 -267 -209c-179 0 -302 144 -302 355s123 355 302 355c146 0 259 -93 267 -219h-46c-10 104 -101 176 -221 176c-149 0 -255 -129 -255 -312c0 -184 106 -313 255 -313c123 0 205 70 221 167zM831 6c369 0 670 305 670 677
s-301 676 -670 676s-671 -304 -671 -676s302 -677 671 -677zM831 -38c-396 0 -721 325 -721 721s325 721 721 721s720 -325 720 -721s-324 -721 -720 -721z" />
    <glyph glyph-name="uni24B9" unicode="D&#x25cb;" 
d="M618 1025h202c187 0 303 -126 303 -325c0 -211 -115 -331 -303 -331h-202v656zM665 983v-571h150c156 0 257 98 257 287c0 177 -102 284 -257 284h-150zM831 6c369 0 670 305 670 677s-301 676 -670 676s-671 -304 -671 -676s302 -677 671 -677zM831 -38
c-396 0 -721 325 -721 721s325 721 721 721s720 -325 720 -721s-324 -721 -720 -721z" />
    <glyph glyph-name="uni24BA" unicode="E&#x25cb;" 
d="M1041 400v-43h-415v680h415v-42h-369v-268h351v-43h-351v-284h369zM831 6c369 0 670 305 670 677s-301 676 -670 676s-671 -304 -671 -676s302 -677 671 -677zM831 -38c-396 0 -721 325 -721 721s325 721 721 721s720 -325 720 -721s-324 -721 -720 -721z" />
    <glyph glyph-name="uni24BB" unicode="F&#x25cb;" 
d="M693 357h-46v680h408v-42h-362v-278h334v-42h-334v-318zM831 6c369 0 670 305 670 677s-301 676 -670 676s-671 -304 -671 -676s302 -677 671 -677zM831 -38c-396 0 -721 325 -721 721s325 721 721 721s720 -325 720 -721s-324 -721 -720 -721z" />
    <glyph glyph-name="uni24BC" unicode="G&#x25cb;" 
d="M1060 616v39h-228v42h273v-79c0 -168 -104 -276 -266 -276c-179 0 -302 144 -302 355s123 355 302 355c149 0 251 -90 267 -209h-46c-17 95 -98 166 -221 166c-149 0 -255 -128 -255 -312s106 -313 255 -313c137 0 221 88 221 232zM831 6c369 0 670 305 670 677
s-301 676 -670 676s-671 -304 -671 -676s302 -677 671 -677zM831 -38c-396 0 -721 325 -721 721s325 721 721 721s720 -325 720 -721s-324 -721 -720 -721z" />
    <glyph glyph-name="uni24BD" unicode="H&#x25cb;" 
d="M1090 357h-46v333h-425v-333h-47v680h47v-304h425v304h46v-680zM831 6c369 0 670 305 670 677s-301 676 -670 676s-671 -304 -671 -676s302 -677 671 -677zM831 -38c-396 0 -721 325 -721 721s325 721 721 721s720 -325 720 -721s-324 -721 -720 -721z" />
    <glyph glyph-name="uni24BE" unicode="I&#x25cb;" 
d="M854 357h-47v680h47v-680zM831 6c369 0 670 305 670 677s-301 676 -670 676s-671 -304 -671 -676s302 -677 671 -677zM831 -38c-396 0 -721 325 -721 721s325 721 721 721s720 -325 720 -721s-324 -721 -720 -721z" />
    <glyph glyph-name="uni24BF" unicode="J&#x25cb;" 
d="M610 520h46c1 -78 70 -132 152 -132c88 0 140 65 140 156v493h46v-493c0 -119 -73 -199 -187 -199c-109 0 -195 73 -197 175zM831 6c369 0 670 305 670 677s-301 676 -670 676s-671 -304 -671 -676s302 -677 671 -677zM831 -38c-396 0 -721 325 -721 721s325 721 721 721
s720 -325 720 -721s-324 -721 -720 -721z" />
    <glyph glyph-name="uni24C0" unicode="K&#x25cb;" 
d="M1071 1037l-285 -289l307 -391h-65l-278 356l-104 -105v-251h-46v680h46v-364h4l358 364h63zM831 6c369 0 670 305 670 677s-301 676 -670 676s-671 -304 -671 -676s302 -677 671 -677zM831 -38c-396 0 -721 325 -721 721s325 721 721 721s720 -325 720 -721
s-324 -721 -720 -721z" />
    <glyph glyph-name="uni24C1" unicode="L&#x25cb;" 
d="M1064 400v-43h-408v680h47v-637h361zM831 6c369 0 670 305 670 677s-301 676 -670 676s-671 -304 -671 -676s302 -677 671 -677zM831 -38c-396 0 -721 325 -721 721s325 721 721 721s720 -325 720 -721s-324 -721 -720 -721z" />
    <glyph glyph-name="uni24C2" unicode="M&#x25cb;" 
d="M558 357h-44v680h65l250 -628h4l250 628h65v-680h-43v617h-5l-243 -615h-52l-243 615h-4v-617zM831 6c369 0 670 305 670 677s-301 676 -670 676s-671 -304 -671 -676s302 -677 671 -677zM831 -38c-396 0 -721 325 -721 721s325 721 721 721s720 -325 720 -721
s-324 -721 -720 -721z" />
    <glyph glyph-name="uni24C3" unicode="N&#x25cb;" 
d="M618 357h-45v680h61l407 -618h3v618h46v-680h-62l-406 619h-4v-619zM831 6c369 0 670 305 670 677s-301 676 -670 676s-671 -304 -671 -676s302 -677 671 -677zM831 -38c-396 0 -721 325 -721 721s325 721 721 721s720 -325 720 -721s-324 -721 -720 -721z" />
    <glyph glyph-name="uni24C4" unicode="O&#x25cb;" 
d="M831 384c158 0 264 128 264 313c0 184 -106 312 -264 312c-159 0 -265 -128 -265 -312c0 -185 106 -313 265 -313zM831 342c-188 0 -311 143 -311 355s123 355 311 355c187 0 311 -143 311 -355s-124 -355 -311 -355zM831 6c369 0 670 305 670 677s-301 676 -670 676
s-671 -304 -671 -676s302 -677 671 -677zM831 -38c-396 0 -721 325 -721 721s325 721 721 721s720 -325 720 -721s-324 -721 -720 -721z" />
    <glyph glyph-name="uni24C5" unicode="P&#x25cb;" 
d="M876 1037c123 0 211 -87 211 -205c0 -119 -86 -206 -211 -206h-189v-269h-47v680h236zM1039 832c0 95 -67 163 -163 163h-189v-326h189c95 0 163 68 163 163zM831 6c369 0 670 305 670 677s-301 676 -670 676s-671 -304 -671 -676s302 -677 671 -677zM831 -38
c-396 0 -721 325 -721 721s325 721 721 721s720 -325 720 -721s-324 -721 -720 -721z" />
    <glyph glyph-name="uni24C6" unicode="Q&#x25cb;" 
d="M1087 270h-52l-72 100c-38 -19 -83 -28 -132 -28c-188 0 -311 143 -311 355s123 355 311 355c187 0 311 -143 311 -355c0 -139 -53 -248 -142 -307zM831 384c39 0 75 8 106 22l-97 136h52l82 -114c76 52 121 149 121 269c0 184 -106 312 -264 312
c-159 0 -265 -128 -265 -312c0 -185 106 -313 265 -313zM831 6c369 0 670 305 670 677s-301 676 -670 676s-671 -304 -671 -676s302 -677 671 -677zM831 -38c-396 0 -721 325 -721 721s325 721 721 721s720 -325 720 -721s-324 -721 -720 -721z" />
    <glyph glyph-name="uni24C7" unicode="R&#x25cb;" 
d="M850 1037c125 0 212 -82 212 -199c0 -100 -63 -175 -160 -194l167 -287h-53l-162 282h-194v-282h-46v680h236zM660 681h190c97 0 163 63 163 157s-66 157 -163 157h-190v-314zM831 6c369 0 670 305 670 677s-301 676 -670 676s-671 -304 -671 -676s302 -677 671 -677z
M831 -38c-396 0 -721 325 -721 721s325 721 721 721s720 -325 720 -721s-324 -721 -720 -721z" />
    <glyph glyph-name="uni24C8" unicode="S&#x25cb;" 
d="M572 536h50c7 -82 101 -151 206 -151c109 0 202 70 202 149c0 62 -56 110 -161 136l-110 28c-112 29 -164 81 -164 166c0 112 97 190 236 190c137 0 233 -74 234 -183h-47c-6 76 -92 141 -188 141c-100 0 -190 -69 -190 -147c0 -55 56 -104 140 -125l108 -27
c138 -34 188 -81 188 -174c0 -119 -100 -197 -255 -197c-143 0 -244 79 -249 194zM831 6c369 0 670 305 670 677s-301 676 -670 676s-671 -304 -671 -676s302 -677 671 -677zM831 -38c-396 0 -721 325 -721 721s325 721 721 721s720 -325 720 -721s-324 -721 -720 -721z" />
    <glyph glyph-name="uni24C9" unicode="T&#x25cb;" 
d="M855 337h-47v638h-237v42h520v-42h-236v-638zM831 6c369 0 670 305 670 677s-301 676 -670 676s-671 -304 -671 -676s302 -677 671 -677zM831 -38c-396 0 -721 325 -721 721s325 721 721 721s720 -325 720 -721s-324 -721 -720 -721z" />
    <glyph glyph-name="uni24CA" unicode="U&#x25cb;" 
d="M831 360c122 0 215 80 215 201v451h47v-451c0 -151 -111 -244 -262 -244s-262 93 -262 244v451h46v-451c0 -121 94 -201 216 -201zM831 6c369 0 670 305 670 677s-301 676 -670 676s-671 -304 -671 -676s302 -677 671 -677zM831 -38c-396 0 -721 325 -721 721
s325 721 721 721s720 -325 720 -721s-324 -721 -720 -721z" />
    <glyph glyph-name="uni24CB" unicode="V&#x25cb;" 
d="M797 331l-259 680h53l238 -631h4l237 631h53l-259 -680h-67zM831 6c369 0 670 305 670 677s-301 676 -670 676s-671 -304 -671 -676s302 -677 671 -677zM831 -38c-396 0 -721 325 -721 721s325 721 721 721s720 -325 720 -721s-324 -721 -720 -721z" />
    <glyph glyph-name="uni24CC" unicode="W&#x25cb;" 
d="M835 945l-163 -614h-64l-172 680h49l153 -625h5l169 625h51l169 -625h4l153 625h49l-171 -680h-65l-163 614h-4zM831 6c369 0 670 305 670 677s-301 676 -670 676s-671 -304 -671 -676s302 -677 671 -677zM831 -38c-396 0 -721 325 -721 721s325 721 721 721
s720 -325 720 -721s-324 -721 -720 -721z" />
    <glyph glyph-name="uni24CD" unicode="X&#x25cb;" 
d="M1064 1049l-229 -341l224 -339h-55l-195 299h-4l-197 -299h-54l226 339l-225 341h55l197 -301h4l199 301h54zM831 6c369 0 670 305 670 677s-301 676 -670 676s-671 -304 -671 -676s302 -677 671 -677zM831 -38c-396 0 -721 325 -721 721s325 721 721 721
s720 -325 720 -721s-324 -721 -720 -721z" />
    <glyph glyph-name="uni24CE" unicode="Y&#x25cb;" 
d="M854 369h-46v299l-269 381h57l233 -332h4l233 332h56l-268 -381v-299zM831 6c369 0 670 305 670 677s-301 676 -670 676s-671 -304 -671 -676s302 -677 671 -677zM831 -38c-396 0 -721 325 -721 721s325 721 721 721s720 -325 720 -721s-324 -721 -720 -721z" />
    <glyph glyph-name="uni24CF" unicode="Z&#x25cb;" 
d="M573 369v46l439 588v4h-425v42h478v-45l-436 -588v-4h443v-43h-499zM831 6c369 0 670 305 670 677s-301 676 -670 676s-671 -304 -671 -676s302 -677 671 -677zM831 -38c-396 0 -721 325 -721 721s325 721 721 721s720 -325 720 -721s-324 -721 -720 -721z" />
    <glyph glyph-name="uni24EA" unicode="&#x30;&#x25cb;" 
d="M831 385c116 0 196 127 196 312s-80 312 -196 312s-196 -127 -196 -312s80 -312 196 -312zM831 342c-144 0 -242 142 -242 355s98 355 242 355s242 -142 242 -355s-98 -355 -242 -355zM831 6c369 0 670 305 670 677s-301 676 -670 676s-671 -304 -671 -676
s302 -677 671 -677zM831 -38c-396 0 -721 325 -721 721s325 721 721 721s720 -325 720 -721s-324 -721 -720 -721z" />
    <glyph glyph-name="uni2460" unicode="&#x31;&#x25cb;" 
d="M875 369h-46v626h-5l-178 -115v51l183 118h46v-680zM831 6c369 0 670 305 670 677s-301 676 -670 676s-671 -304 -671 -676s302 -677 671 -677zM831 -38c-396 0 -721 325 -721 721s325 721 721 721s720 -325 720 -721s-324 -721 -720 -721z" />
    <glyph glyph-name="uni2461" unicode="&#x32;&#x25cb;" 
d="M662 871h-48v2c0 107 92 191 217 191c124 0 205 -73 205 -183c0 -65 -29 -117 -112 -208l-231 -257v-4h366v-43h-434v37l279 308c60 68 84 113 84 168c0 84 -62 140 -157 140c-98 0 -169 -64 -169 -149v-2zM831 6c369 0 670 305 670 677s-301 676 -670 676
s-671 -304 -671 -676s302 -677 671 -677zM831 -38c-396 0 -721 325 -721 721s325 721 721 721s720 -325 720 -721s-324 -721 -720 -721z" />
    <glyph glyph-name="uni2462" unicode="&#x33;&#x25cb;" 
d="M758 701v42h78c89 0 157 63 157 143s-66 136 -162 136c-84 0 -155 -53 -160 -122h-46c4 93 92 164 207 164c122 0 209 -73 209 -172c0 -83 -59 -151 -137 -166v-4c91 -9 162 -81 162 -170c0 -115 -98 -197 -234 -197c-123 0 -215 73 -223 168h46c5 -68 86 -126 177 -126
c110 0 186 64 186 156c0 83 -76 148 -176 148h-84zM831 6c369 0 670 305 670 677s-301 676 -670 676s-671 -304 -671 -676s302 -677 671 -677zM831 -38c-396 0 -721 325 -721 721s325 721 721 721s720 -325 720 -721s-324 -721 -720 -721z" />
    <glyph glyph-name="uni2463" unicode="&#x34;&#x25cb;" 
d="M875 1049h76v-479h108v-42h-108v-159h-46v159h-344v47c59 100 248 377 314 474zM613 570h292v439h-5c-55 -78 -238 -353 -287 -435v-4zM831 6c369 0 670 305 670 677s-301 676 -670 676s-671 -304 -671 -676s302 -677 671 -677zM831 -38c-396 0 -721 325 -721 721
s325 721 721 721s720 -325 720 -721s-324 -721 -720 -721z" />
    <glyph glyph-name="uni2464" unicode="&#x35;&#x25cb;" 
d="M603 523h46c14 -71 90 -125 175 -125c108 0 189 78 189 185c0 106 -75 179 -180 179c-74 0 -123 -30 -172 -93h-44l30 381h380v-42h-338l-23 -284h4c37 49 102 81 169 81c130 0 222 -93 222 -220c0 -137 -98 -230 -241 -230c-113 0 -206 73 -217 168zM831 6
c369 0 670 305 670 677s-301 676 -670 676s-671 -304 -671 -676s302 -677 671 -677zM831 -38c-396 0 -721 325 -721 721s325 721 721 721s720 -325 720 -721s-324 -721 -720 -721z" />
    <glyph glyph-name="uni2465" unicode="&#x36;&#x25cb;" 
d="M1048 918h-47c-19 59 -86 101 -160 101c-132 0 -212 -125 -212 -335v-8h3c37 76 107 128 212 128c127 0 222 -92 222 -219c0 -137 -96 -230 -237 -230c-90 0 -166 43 -206 119c-25 46 -39 122 -39 213c0 238 96 374 258 374c98 0 188 -64 206 -143zM642 582
c0 -106 79 -184 188 -184c112 0 188 73 188 183c0 108 -77 181 -186 181c-110 0 -190 -77 -190 -180zM831 6c369 0 670 305 670 677s-301 676 -670 676s-671 -304 -671 -676s302 -677 671 -677zM831 -38c-396 0 -721 325 -721 721s325 721 721 721s720 -325 720 -721
s-324 -721 -720 -721z" />
    <glyph glyph-name="uni2466" unicode="&#x37;&#x25cb;" 
d="M619 1049h437v-45l-297 -635h-54l300 633v4h-386v43zM831 6c369 0 670 305 670 677s-301 676 -670 676s-671 -304 -671 -676s302 -677 671 -677zM831 -38c-396 0 -721 325 -721 721s325 721 721 721s720 -325 720 -721s-324 -721 -720 -721z" />
    <glyph glyph-name="uni2467" unicode="&#x38;&#x25cb;" 
d="M833 397c114 0 198 67 198 158c0 89 -84 154 -198 154c-115 0 -199 -65 -199 -154c0 -91 84 -158 199 -158zM833 747c97 0 168 58 168 138c0 81 -70 137 -168 137s-169 -56 -169 -137c0 -80 72 -138 169 -138zM832 355c-142 0 -243 84 -243 201c0 82 63 155 148 172v4
c-72 21 -121 84 -121 153c0 104 91 179 217 179c125 0 216 -75 216 -179c0 -70 -50 -133 -121 -153v-4c85 -17 148 -90 148 -172c0 -116 -102 -201 -244 -201zM831 6c369 0 670 305 670 677s-301 676 -670 676s-671 -304 -671 -676s302 -677 671 -677zM831 -38
c-396 0 -721 325 -721 721s325 721 721 721s720 -325 720 -721s-324 -721 -720 -721z" />
    <glyph glyph-name="uni2468" unicode="&#x39;&#x25cb;" 
d="M596 834c0 133 101 227 237 227c143 0 245 -99 245 -311c0 -263 -95 -394 -258 -394c-98 0 -188 64 -206 143h46c20 -59 86 -101 161 -101c135 0 212 126 212 343h-3c-35 -84 -109 -132 -213 -132c-126 0 -221 98 -221 225zM1019 835c0 106 -83 184 -188 184
c-107 0 -188 -75 -188 -181c0 -108 77 -187 187 -187c109 0 189 80 189 184zM831 6c369 0 670 305 670 677s-301 676 -670 676s-671 -304 -671 -676s302 -677 671 -677zM831 -38c-396 0 -721 325 -721 721s325 721 721 721s720 -325 720 -721s-324 -721 -720 -721z" />
    <glyph glyph-name="plus.uc.whitecircle" unicode="&#x2b;&#x25cb;" 
d="M853 677v-237h-45v237h-224v43h224v226h45v-226h224v-43h-224zM831 6c369 0 670 305 670 677s-301 676 -670 676s-671 -304 -671 -676s302 -677 671 -677zM831 -38c-396 0 -721 325 -721 721s325 721 721 721s720 -325 720 -721s-324 -721 -720 -721z" />
    <glyph glyph-name="minus.uc.whitecircle" unicode="&#x2212;&#x25cb;" 
d="M1062 677h-461v43h461v-43zM831 6c369 0 670 305 670 677s-301 676 -670 676s-671 -304 -671 -676s302 -677 671 -677zM831 -38c-396 0 -721 325 -721 721s325 721 721 721s720 -325 720 -721s-324 -721 -720 -721z" />
    <glyph glyph-name="multiply.uc.whitecircle" unicode="&#xd7;&#x25cb;" 
d="M834 728l161 159l31 -31l-160 -160l159 -159l-30 -30l-160 159l-168 -168l-32 31l169 168l-159 159l29 30zM831 6c369 0 670 305 670 677s-301 676 -670 676s-671 -304 -671 -676s302 -677 671 -677zM831 -38c-396 0 -721 325 -721 721s325 721 721 721
s720 -325 720 -721s-324 -721 -720 -721z" />
    <glyph glyph-name="divide.uc.whitecircle" unicode="&#xf7;&#x25cb;" 
d="M1062 677h-461v42h461v-42zM784 882c0 25 21 47 47 47s47 -21 47 -46c0 -26 -21 -46 -47 -46s-47 19 -47 45zM784 513c0 26 21 47 47 47s47 -21 47 -46c0 -26 -21 -46 -47 -46s-47 19 -47 45zM831 6c369 0 670 305 670 677s-301 676 -670 676s-671 -304 -671 -676
s302 -677 671 -677zM831 -38c-396 0 -721 325 -721 721s325 721 721 721s720 -325 720 -721s-324 -721 -720 -721z" />
    <glyph glyph-name="equal.uc.whitecircle" unicode="&#x3d;&#x25cb;" 
d="M1061 586h-459v42h459v-42zM1061 769h-459v42h459v-42zM831 6c369 0 670 305 670 677s-301 676 -670 676s-671 -304 -671 -676s302 -677 671 -677zM831 -38c-396 0 -721 325 -721 721s325 721 721 721s720 -325 720 -721s-324 -721 -720 -721z" />
    <glyph glyph-name="greater.uc.whitecircle" unicode="&#x3e;&#x25cb;" 
d="M1070 708v-48l-426 -267v57l376 232v4l-376 233v57zM831 6c369 0 670 305 670 677s-301 676 -670 676s-671 -304 -671 -676s302 -677 671 -677zM831 -38c-396 0 -721 325 -721 721s325 721 721 721s720 -325 720 -721s-324 -721 -720 -721z" />
    <glyph glyph-name="less.uc.whitecircle" unicode="&#x3c;&#x25cb;" 
d="M593 660v48l425 268v-57l-375 -233v-4l375 -232v-57zM831 6c369 0 670 305 670 677s-301 676 -670 676s-671 -304 -671 -676s302 -677 671 -677zM831 -38c-396 0 -721 325 -721 721s325 721 721 721s720 -325 720 -721s-324 -721 -720 -721z" />
    <glyph glyph-name="numbersign.whitecircle" unicode="&#x23;&#x25cb;" 
d="M1099 808h-119l-40 -189h113l-9 -41h-113l-44 -209h-48l44 209h-173l-44 -209h-47l43 209h-123l8 41h125l39 189h-117l8 41h118l43 201h48l-43 -201h173l42 201h48l-43 -201h120zM759 808l-40 -189h174l40 189h-174zM831 6c369 0 670 305 670 677s-301 676 -670 676
s-671 -304 -671 -676s302 -677 671 -677zM831 -38c-396 0 -721 325 -721 721s325 721 721 721s720 -325 720 -721s-324 -721 -720 -721z" />
    <glyph glyph-name="uni25BC.whitecircle" unicode="&#x25bc;&#x25cb;" 
d="M1080 858l-249 -397l-249 397h498zM831 6c369 0 670 305 670 677s-301 676 -670 676s-671 -304 -671 -676s302 -677 671 -677zM831 -38c-396 0 -721 325 -721 721s325 721 721 721s720 -325 720 -721s-324 -721 -720 -721z" />
    <glyph glyph-name="uni25B2.whitecircle" unicode="&#x25b2;&#x25cb;" 
d="M1080 524h-498l249 397zM831 6c369 0 670 305 670 677s-301 676 -670 676s-671 -304 -671 -676s302 -677 671 -677zM831 -38c-396 0 -721 325 -721 721s325 721 721 721s720 -325 720 -721s-324 -721 -720 -721z" />
    <glyph glyph-name="uni25C0.whitecircle" unicode="&#x25c0;&#x25cb;" 
d="M982 443l-396 249l396 250v-499zM831 6c369 0 670 305 670 677s-301 676 -670 676s-671 -304 -671 -676s302 -677 671 -677zM831 -38c-396 0 -721 325 -721 721s325 721 721 721s720 -325 720 -721s-324 -721 -720 -721z" />
    <glyph glyph-name="uni25B6.whitecircle" unicode="&#x25b6;&#x25cb;" 
d="M681 443v499l395 -250zM831 6c369 0 670 305 670 677s-301 676 -670 676s-671 -304 -671 -676s302 -677 671 -677zM831 -38c-396 0 -721 325 -721 721s325 721 721 721s720 -325 720 -721s-324 -721 -720 -721z" />
    <glyph glyph-name="question.whitecircle" unicode="&#x3f;&#x25cb;" 
d="M770 415c0 27 24 50 50 50c28 0 52 -24 52 -50s-24 -50 -52 -50s-50 22 -50 50zM795 575v43c-1 61 24 100 89 146c74 52 101 86 101 138c0 72 -61 122 -155 122c-92 0 -151 -64 -154 -139h-48c2 103 82 181 205 181c117 0 200 -68 200 -160c0 -70 -31 -114 -110 -169
c-63 -44 -83 -72 -83 -123v-39h-45zM831 6c369 0 670 305 670 677s-301 676 -670 676s-671 -304 -671 -676s302 -677 671 -677zM831 -38c-396 0 -721 325 -721 721s325 721 721 721s720 -325 720 -721s-324 -721 -720 -721z" />
    <glyph glyph-name="exclam.whitecircle" unicode="&#x21;&#x25cb;" 
d="M780 415c0 27 24 50 51 50c28 0 52 -24 52 -50s-24 -50 -52 -50c-29 0 -51 22 -51 50zM808 1049h45l-1 -457h-43zM831 6c369 0 670 305 670 677s-301 676 -670 676s-671 -304 -671 -676s302 -677 671 -677zM831 -38c-396 0 -721 325 -721 721s325 721 721 721
s720 -325 720 -721s-324 -721 -720 -721z" />
    <glyph glyph-name="uni2717.whitecircle" unicode="&#x2717;&#x25cb;" 
d="M831 735l280 281l35 -35l-280 -280l280 -281l-35 -34l-280 280l-280 -280l-35 34l280 281l-280 280l34 35zM831 6c369 0 670 305 670 677s-301 676 -670 676s-671 -304 -671 -676s302 -677 671 -677zM831 -38c-396 0 -721 325 -721 721s325 721 721 721
s720 -325 720 -721s-324 -721 -720 -721z" />
    <glyph glyph-name="uni2713.whitecircle" unicode="&#x2713;&#x25cb;" 
d="M1239 955l-530 -532l-275 279l36 36l239 -245l494 499zM831 6c369 0 670 305 670 677s-301 676 -670 676s-671 -304 -671 -676s302 -677 671 -677zM831 -38c-396 0 -721 325 -721 721s325 721 721 721s720 -325 720 -721s-324 -721 -720 -721z" />
    <glyph glyph-name="uni1F130" unicode="A&#x25a1;" 
d="M694 643h275l-136 361h-4zM593 376h-49l257 680h60l257 -680h-49l-84 225h-307zM331 1389h1000c119 0 200 -80 200 -199v-1006c0 -120 -81 -199 -200 -199h-1000c-120 0 -200 79 -200 199v1006c0 119 80 199 200 199zM1485 1189c0 101 -55 156 -155 156h-998
c-100 0 -155 -55 -155 -156v-1005c0 -100 55 -156 155 -156h998c100 0 155 56 155 156v1005z" />
    <glyph glyph-name="uni1F131" unicode="B&#x25a1;" 
d="M614 367v680h244c121 0 196 -75 196 -168c0 -81 -50 -140 -111 -154v-3c87 -12 151 -72 151 -168c0 -117 -89 -187 -233 -187h-247zM660 1004v-267h180c102 0 166 61 166 133c0 84 -56 134 -157 134h-189zM660 695v-286h179c137 0 206 50 206 144c0 87 -65 142 -169 142
h-216zM331 1389h1000c119 0 200 -80 200 -199v-1006c0 -120 -81 -199 -200 -199h-1000c-120 0 -200 79 -200 199v1006c0 119 80 199 200 199zM1485 1189c0 101 -55 156 -155 156h-998c-100 0 -155 -55 -155 -156v-1005c0 -100 55 -156 155 -156h998c100 0 155 56 155 156
v1005z" />
    <glyph glyph-name="uni1F132" unicode="C&#x25a1;" 
d="M1060 551h46c-14 -119 -118 -209 -267 -209c-179 0 -302 144 -302 355s123 355 302 355c146 0 259 -93 267 -219h-46c-10 104 -101 176 -221 176c-149 0 -255 -129 -255 -312c0 -184 106 -313 255 -313c123 0 205 70 221 167zM331 1389h1000c119 0 200 -80 200 -199
v-1006c0 -120 -81 -199 -200 -199h-1000c-120 0 -200 79 -200 199v1006c0 119 80 199 200 199zM1485 1189c0 101 -55 156 -155 156h-998c-100 0 -155 -55 -155 -156v-1005c0 -100 55 -156 155 -156h998c100 0 155 56 155 156v1005z" />
    <glyph glyph-name="uni1F133" unicode="D&#x25a1;" 
d="M617 1025h202c186 0 302 -126 302 -325c0 -211 -115 -331 -302 -331h-202v656zM663 983v-571h150c157 0 257 98 257 287c0 177 -101 284 -257 284h-150zM331 1389h1000c119 0 200 -80 200 -199v-1006c0 -120 -81 -199 -200 -199h-1000c-120 0 -200 79 -200 199v1006
c0 119 80 199 200 199zM1485 1189c0 101 -55 156 -155 156h-998c-100 0 -155 -55 -155 -156v-1005c0 -100 55 -156 155 -156h998c100 0 155 56 155 156v1005z" />
    <glyph glyph-name="uni1F134" unicode="E&#x25a1;" 
d="M1041 400v-43h-415v680h415v-42h-369v-268h351v-43h-351v-284h369zM331 1389h1000c119 0 200 -80 200 -199v-1006c0 -120 -81 -199 -200 -199h-1000c-120 0 -200 79 -200 199v1006c0 119 80 199 200 199zM1485 1189c0 101 -55 156 -155 156h-998
c-100 0 -155 -55 -155 -156v-1005c0 -100 55 -156 155 -156h998c100 0 155 56 155 156v1005z" />
    <glyph glyph-name="uni1F135" unicode="F&#x25a1;" 
d="M693 357h-46v680h408v-42h-362v-278h334v-42h-334v-318zM331 1389h1000c119 0 200 -80 200 -199v-1006c0 -120 -81 -199 -200 -199h-1000c-120 0 -200 79 -200 199v1006c0 119 80 199 200 199zM1485 1189c0 101 -55 156 -155 156h-998c-100 0 -155 -55 -155 -156v-1005
c0 -100 55 -156 155 -156h998c100 0 155 56 155 156v1005z" />
    <glyph glyph-name="uni1F136" unicode="G&#x25a1;" 
d="M1060 616v39h-228v42h273v-79c0 -168 -104 -276 -266 -276c-179 0 -302 144 -302 355s123 355 302 355c149 0 251 -90 267 -209h-46c-17 95 -98 166 -221 166c-149 0 -255 -128 -255 -312s106 -313 255 -313c137 0 221 88 221 232zM331 1389h1000c119 0 200 -80 200 -199
v-1006c0 -120 -81 -199 -200 -199h-1000c-120 0 -200 79 -200 199v1006c0 119 80 199 200 199zM1485 1189c0 101 -55 156 -155 156h-998c-100 0 -155 -55 -155 -156v-1005c0 -100 55 -156 155 -156h998c100 0 155 56 155 156v1005z" />
    <glyph glyph-name="uni1F137" unicode="H&#x25a1;" 
d="M1090 357h-46v333h-425v-333h-47v680h47v-304h425v304h46v-680zM331 1389h1000c119 0 200 -80 200 -199v-1006c0 -120 -81 -199 -200 -199h-1000c-120 0 -200 79 -200 199v1006c0 119 80 199 200 199zM1485 1189c0 101 -55 156 -155 156h-998c-100 0 -155 -55 -155 -156
v-1005c0 -100 55 -156 155 -156h998c100 0 155 56 155 156v1005z" />
    <glyph glyph-name="uni1F138" unicode="I&#x25a1;" 
d="M854 357h-47v680h47v-680zM331 1389h1000c119 0 200 -80 200 -199v-1006c0 -120 -81 -199 -200 -199h-1000c-120 0 -200 79 -200 199v1006c0 119 80 199 200 199zM1485 1189c0 101 -55 156 -155 156h-998c-100 0 -155 -55 -155 -156v-1005c0 -100 55 -156 155 -156h998
c100 0 155 56 155 156v1005z" />
    <glyph glyph-name="uni1F139" unicode="J&#x25a1;" 
d="M610 520h46c1 -78 70 -132 152 -132c88 0 140 65 140 156v493h46v-493c0 -119 -73 -199 -187 -199c-109 0 -195 73 -197 175zM331 1389h1000c119 0 200 -80 200 -199v-1006c0 -120 -81 -199 -200 -199h-1000c-120 0 -200 79 -200 199v1006c0 119 80 199 200 199z
M1485 1189c0 101 -55 156 -155 156h-998c-100 0 -155 -55 -155 -156v-1005c0 -100 55 -156 155 -156h998c100 0 155 56 155 156v1005z" />
    <glyph glyph-name="uni1F13A" unicode="K&#x25a1;" 
d="M1071 1037l-285 -289l307 -391h-65l-278 356l-104 -105v-251h-46v680h46v-364h4l358 364h63zM331 1389h1000c119 0 200 -80 200 -199v-1006c0 -120 -81 -199 -200 -199h-1000c-120 0 -200 79 -200 199v1006c0 119 80 199 200 199zM1485 1189c0 101 -55 156 -155 156h-998
c-100 0 -155 -55 -155 -156v-1005c0 -100 55 -156 155 -156h998c100 0 155 56 155 156v1005z" />
    <glyph glyph-name="uni1F13B" unicode="L&#x25a1;" 
d="M1065 400v-43h-408v680h46v-637h362zM331 1389h1000c119 0 200 -80 200 -199v-1006c0 -120 -81 -199 -200 -199h-1000c-120 0 -200 79 -200 199v1006c0 119 80 199 200 199zM1485 1189c0 101 -55 156 -155 156h-998c-100 0 -155 -55 -155 -156v-1005
c0 -100 55 -156 155 -156h998c100 0 155 56 155 156v1005z" />
    <glyph glyph-name="uni1F13C" unicode="M&#x25a1;" 
d="M558 357h-44v680h65l250 -628h4l250 628h65v-680h-43v617h-5l-243 -615h-52l-243 615h-4v-617zM331 1389h1000c119 0 200 -80 200 -199v-1006c0 -120 -81 -199 -200 -199h-1000c-120 0 -200 79 -200 199v1006c0 119 80 199 200 199zM1485 1189c0 101 -55 156 -155 156
h-998c-100 0 -155 -55 -155 -156v-1005c0 -100 55 -156 155 -156h998c100 0 155 56 155 156v1005z" />
    <glyph glyph-name="uni1F13D" unicode="N&#x25a1;" 
d="M618 357h-45v680h61l407 -618h3v618h46v-680h-62l-406 619h-4v-619zM331 1389h1000c119 0 200 -80 200 -199v-1006c0 -120 -81 -199 -200 -199h-1000c-120 0 -200 79 -200 199v1006c0 119 80 199 200 199zM1485 1189c0 101 -55 156 -155 156h-998
c-100 0 -155 -55 -155 -156v-1005c0 -100 55 -156 155 -156h998c100 0 155 56 155 156v1005z" />
    <glyph glyph-name="uni1F13E" unicode="O&#x25a1;" 
d="M831 384c158 0 264 128 264 313c0 184 -106 312 -264 312c-159 0 -265 -128 -265 -312c0 -185 106 -313 265 -313zM831 342c-188 0 -311 143 -311 355s123 355 311 355c187 0 311 -143 311 -355s-124 -355 -311 -355zM331 1389h1000c119 0 200 -80 200 -199v-1006
c0 -120 -81 -199 -200 -199h-1000c-120 0 -200 79 -200 199v1006c0 119 80 199 200 199zM1485 1189c0 101 -55 156 -155 156h-998c-100 0 -155 -55 -155 -156v-1005c0 -100 55 -156 155 -156h998c100 0 155 56 155 156v1005z" />
    <glyph glyph-name="uni1F13F" unicode="P&#x25a1;" 
d="M876 1037c123 0 211 -87 211 -205c0 -119 -86 -206 -211 -206h-189v-269h-47v680h236zM1039 832c0 95 -67 163 -163 163h-189v-326h189c95 0 163 68 163 163zM331 1389h1000c119 0 200 -80 200 -199v-1006c0 -120 -81 -199 -200 -199h-1000c-120 0 -200 79 -200 199v1006
c0 119 80 199 200 199zM1485 1189c0 101 -55 156 -155 156h-998c-100 0 -155 -55 -155 -156v-1005c0 -100 55 -156 155 -156h998c100 0 155 56 155 156v1005z" />
    <glyph glyph-name="uni1F140" unicode="Q&#x25a1;" 
d="M1087 270h-52l-72 100c-38 -19 -83 -28 -132 -28c-188 0 -311 143 -311 355s123 355 311 355c187 0 311 -143 311 -355c0 -139 -53 -248 -142 -307zM831 384c39 0 75 8 106 22l-97 136h52l82 -114c76 52 121 149 121 269c0 184 -106 312 -264 312
c-159 0 -265 -128 -265 -312c0 -185 106 -313 265 -313zM331 1389h1000c119 0 200 -80 200 -199v-1006c0 -120 -81 -199 -200 -199h-1000c-120 0 -200 79 -200 199v1006c0 119 80 199 200 199zM1485 1189c0 101 -55 156 -155 156h-998c-100 0 -155 -55 -155 -156v-1005
c0 -100 55 -156 155 -156h998c100 0 155 56 155 156v1005z" />
    <glyph glyph-name="uni1F141" unicode="R&#x25a1;" 
d="M850 1037c125 0 212 -82 212 -199c0 -100 -63 -175 -160 -194l167 -287h-53l-162 282h-194v-282h-46v680h236zM660 681h190c97 0 163 63 163 157s-66 157 -163 157h-190v-314zM331 1389h1000c119 0 200 -80 200 -199v-1006c0 -120 -81 -199 -200 -199h-1000
c-120 0 -200 79 -200 199v1006c0 119 80 199 200 199zM1485 1189c0 101 -55 156 -155 156h-998c-100 0 -155 -55 -155 -156v-1005c0 -100 55 -156 155 -156h998c100 0 155 56 155 156v1005z" />
    <glyph glyph-name="uni1F142" unicode="S&#x25a1;" 
d="M572 536h50c7 -82 101 -151 206 -151c109 0 202 70 202 149c0 62 -56 110 -161 136l-110 28c-112 29 -164 81 -164 166c0 112 97 190 236 190c137 0 233 -74 234 -183h-47c-6 76 -92 141 -188 141c-100 0 -190 -69 -190 -147c0 -55 56 -104 140 -125l108 -27
c138 -34 188 -81 188 -174c0 -119 -100 -197 -255 -197c-143 0 -244 79 -249 194zM331 1389h1000c119 0 200 -80 200 -199v-1006c0 -120 -81 -199 -200 -199h-1000c-120 0 -200 79 -200 199v1006c0 119 80 199 200 199zM1485 1189c0 101 -55 156 -155 156h-998
c-100 0 -155 -55 -155 -156v-1005c0 -100 55 -156 155 -156h998c100 0 155 56 155 156v1005z" />
    <glyph glyph-name="uni1F143" unicode="T&#x25a1;" 
d="M855 339h-47v637h-237v43h520v-43h-236v-637zM331 1389h1000c119 0 200 -80 200 -199v-1006c0 -120 -81 -199 -200 -199h-1000c-120 0 -200 79 -200 199v1006c0 119 80 199 200 199zM1485 1189c0 101 -55 156 -155 156h-998c-100 0 -155 -55 -155 -156v-1005
c0 -100 55 -156 155 -156h998c100 0 155 56 155 156v1005z" />
    <glyph glyph-name="uni1F144" unicode="U&#x25a1;" 
d="M831 361c122 0 215 80 215 202v450h47v-451c0 -150 -111 -244 -262 -244s-262 94 -262 244v451h46v-450c0 -122 94 -202 216 -202zM331 1389h1000c119 0 200 -80 200 -199v-1006c0 -120 -81 -199 -200 -199h-1000c-120 0 -200 79 -200 199v1006c0 119 80 199 200 199z
M1485 1189c0 101 -55 156 -155 156h-998c-100 0 -155 -55 -155 -156v-1005c0 -100 55 -156 155 -156h998c100 0 155 56 155 156v1005z" />
    <glyph glyph-name="uni1F145" unicode="V&#x25a1;" 
d="M797 332l-259 680h53l238 -631h4l237 631h53l-259 -680h-67zM331 1389h1000c119 0 200 -80 200 -199v-1006c0 -120 -81 -199 -200 -199h-1000c-120 0 -200 79 -200 199v1006c0 119 80 199 200 199zM1485 1189c0 101 -55 156 -155 156h-998c-100 0 -155 -55 -155 -156
v-1005c0 -100 55 -156 155 -156h998c100 0 155 56 155 156v1005z" />
    <glyph glyph-name="uni1F146" unicode="W&#x25a1;" 
d="M835 947l-163 -615h-64l-172 680h49l153 -625h5l169 625h51l169 -625h4l153 625h49l-171 -680h-65l-163 615h-4zM331 1389h1000c119 0 200 -80 200 -199v-1006c0 -120 -81 -199 -200 -199h-1000c-120 0 -200 79 -200 199v1006c0 119 80 199 200 199zM1485 1189
c0 101 -55 156 -155 156h-998c-100 0 -155 -55 -155 -156v-1005c0 -100 55 -156 155 -156h998c100 0 155 56 155 156v1005z" />
    <glyph glyph-name="uni1F147" unicode="X&#x25a1;" 
d="M1064 1049l-229 -341l224 -339h-55l-195 299h-4l-197 -299h-54l226 339l-225 341h55l197 -301h4l199 301h54zM331 1389h1000c119 0 200 -80 200 -199v-1006c0 -120 -81 -199 -200 -199h-1000c-120 0 -200 79 -200 199v1006c0 119 80 199 200 199zM1485 1189
c0 101 -55 156 -155 156h-998c-100 0 -155 -55 -155 -156v-1005c0 -100 55 -156 155 -156h998c100 0 155 56 155 156v1005z" />
    <glyph glyph-name="uni1F148" unicode="Y&#x25a1;" 
d="M854 369h-46v299l-269 381h57l233 -332h4l233 332h56l-268 -380v-300zM331 1389h1000c119 0 200 -80 200 -199v-1006c0 -120 -81 -199 -200 -199h-1000c-120 0 -200 79 -200 199v1006c0 119 80 199 200 199zM1485 1189c0 101 -55 156 -155 156h-998
c-100 0 -155 -55 -155 -156v-1005c0 -100 55 -156 155 -156h998c100 0 155 56 155 156v1005z" />
    <glyph glyph-name="uni1F149" unicode="Z&#x25a1;" 
d="M573 369v46l439 588v4h-425v42h478v-45l-436 -588v-4h443v-43h-499zM331 1389h1000c119 0 200 -80 200 -199v-1006c0 -120 -81 -199 -200 -199h-1000c-120 0 -200 79 -200 199v1006c0 119 80 199 200 199zM1485 1189c0 101 -55 156 -155 156h-998
c-100 0 -155 -55 -155 -156v-1005c0 -100 55 -156 155 -156h998c100 0 155 56 155 156v1005z" />
    <glyph glyph-name="zero.whitesquare" unicode="&#x30;&#x25a1;" 
d="M831 385c116 0 196 127 196 312s-80 312 -196 312s-196 -127 -196 -312s80 -312 196 -312zM831 342c-144 0 -242 142 -242 355s98 355 242 355s242 -142 242 -355s-98 -355 -242 -355zM331 1389h1000c119 0 200 -80 200 -199v-1006c0 -120 -81 -199 -200 -199h-1000
c-120 0 -200 79 -200 199v1006c0 119 80 199 200 199zM1485 1189c0 101 -55 156 -155 156h-998c-100 0 -155 -55 -155 -156v-1005c0 -100 55 -156 155 -156h998c100 0 155 56 155 156v1005z" />
    <glyph glyph-name="one.whitesquare" unicode="&#x31;&#x25a1;" 
d="M876 369h-47v626h-4l-178 -115v51l182 118h47v-680zM331 1389h1000c119 0 200 -80 200 -199v-1006c0 -120 -81 -199 -200 -199h-1000c-120 0 -200 79 -200 199v1006c0 119 80 199 200 199zM1485 1189c0 101 -55 156 -155 156h-998c-100 0 -155 -55 -155 -156v-1005
c0 -100 55 -156 155 -156h998c100 0 155 56 155 156v1005z" />
    <glyph glyph-name="two.whitesquare" unicode="&#x32;&#x25a1;" 
d="M662 871h-48v2c0 107 92 191 217 191c124 0 205 -73 205 -183c0 -65 -29 -117 -112 -208l-231 -257v-4h366v-43h-434v37l279 308c60 68 84 113 84 168c0 84 -62 140 -157 140c-98 0 -169 -64 -169 -149v-2zM331 1389h1000c119 0 200 -80 200 -199v-1006
c0 -120 -81 -199 -200 -199h-1000c-120 0 -200 79 -200 199v1006c0 119 80 199 200 199zM1485 1189c0 101 -55 156 -155 156h-998c-100 0 -155 -55 -155 -156v-1005c0 -100 55 -156 155 -156h998c100 0 155 56 155 156v1005z" />
    <glyph glyph-name="three.whitesquare" unicode="&#x33;&#x25a1;" 
d="M758 701v42h78c89 0 157 63 157 143s-66 136 -162 136c-84 0 -155 -53 -160 -122h-46c4 93 92 164 207 164c122 0 209 -73 209 -172c0 -83 -59 -151 -137 -166v-4c91 -9 162 -81 162 -170c0 -115 -98 -197 -234 -197c-123 0 -215 73 -223 168h46c5 -68 86 -126 177 -126
c110 0 186 64 186 156c0 83 -76 148 -176 148h-84zM331 1389h1000c119 0 200 -80 200 -199v-1006c0 -120 -81 -199 -200 -199h-1000c-120 0 -200 79 -200 199v1006c0 119 80 199 200 199zM1485 1189c0 101 -55 156 -155 156h-998c-100 0 -155 -55 -155 -156v-1005
c0 -100 55 -156 155 -156h998c100 0 155 56 155 156v1005z" />
    <glyph glyph-name="four.whitesquare" unicode="&#x34;&#x25a1;" 
d="M877 1049h75v-479h108v-42h-108v-159h-45v159h-345v47c59 100 249 377 315 474zM614 570h293v439h-5c-55 -78 -238 -353 -288 -435v-4zM331 1389h1000c119 0 200 -80 200 -199v-1006c0 -120 -81 -199 -200 -199h-1000c-120 0 -200 79 -200 199v1006c0 119 80 199 200 199
zM1485 1189c0 101 -55 156 -155 156h-998c-100 0 -155 -55 -155 -156v-1005c0 -100 55 -156 155 -156h998c100 0 155 56 155 156v1005z" />
    <glyph glyph-name="five.whitesquare" unicode="&#x35;&#x25a1;" 
d="M603 523h46c14 -71 90 -125 175 -125c108 0 189 78 189 185c0 106 -75 179 -180 179c-74 0 -123 -30 -172 -93h-44l30 381h380v-42h-338l-23 -284h4c37 49 102 81 169 81c130 0 222 -93 222 -220c0 -137 -98 -230 -241 -230c-113 0 -206 73 -217 168zM331 1389h1000
c119 0 200 -80 200 -199v-1006c0 -120 -81 -199 -200 -199h-1000c-120 0 -200 79 -200 199v1006c0 119 80 199 200 199zM1485 1189c0 101 -55 156 -155 156h-998c-100 0 -155 -55 -155 -156v-1005c0 -100 55 -156 155 -156h998c100 0 155 56 155 156v1005z" />
    <glyph glyph-name="six.whitesquare" unicode="&#x36;&#x25a1;" 
d="M1049 918h-47c-19 59 -86 101 -161 101c-131 0 -212 -125 -212 -335v-8h4c36 76 107 128 212 128c126 0 222 -92 222 -219c0 -137 -97 -230 -237 -230c-90 0 -167 43 -207 119c-24 46 -39 122 -39 213c0 238 97 374 258 374c98 0 189 -64 207 -143zM643 582
c0 -106 79 -184 188 -184c112 0 188 73 188 183c0 108 -77 181 -187 181c-109 0 -189 -77 -189 -180zM331 1389h1000c119 0 200 -80 200 -199v-1006c0 -120 -81 -199 -200 -199h-1000c-120 0 -200 79 -200 199v1006c0 119 80 199 200 199zM1485 1189c0 101 -55 156 -155 156
h-998c-100 0 -155 -55 -155 -156v-1005c0 -100 55 -156 155 -156h998c100 0 155 56 155 156v1005z" />
    <glyph glyph-name="seven.whitesquare" unicode="&#x37;&#x25a1;" 
d="M618 1049h437v-44l-297 -636h-53l300 634v4h-387v42zM331 1389h1000c119 0 200 -80 200 -199v-1006c0 -120 -81 -199 -200 -199h-1000c-120 0 -200 79 -200 199v1006c0 119 80 199 200 199zM1485 1189c0 101 -55 156 -155 156h-998c-100 0 -155 -55 -155 -156v-1005
c0 -100 55 -156 155 -156h998c100 0 155 56 155 156v1005z" />
    <glyph glyph-name="eight.whitesquare" unicode="&#x38;&#x25a1;" 
d="M833 397c114 0 198 67 198 158c0 89 -84 154 -198 154c-115 0 -199 -65 -199 -154c0 -91 84 -158 199 -158zM833 747c97 0 168 58 168 138c0 81 -70 137 -168 137s-169 -56 -169 -137c0 -80 72 -138 169 -138zM832 355c-142 0 -243 84 -243 201c0 82 63 155 148 172v4
c-72 21 -121 84 -121 153c0 104 91 179 217 179c125 0 216 -75 216 -179c0 -70 -50 -133 -121 -153v-4c85 -17 148 -90 148 -172c0 -116 -102 -201 -244 -201zM331 1389h1000c119 0 200 -80 200 -199v-1006c0 -120 -81 -199 -200 -199h-1000c-120 0 -200 79 -200 199v1006
c0 119 80 199 200 199zM1485 1189c0 101 -55 156 -155 156h-998c-100 0 -155 -55 -155 -156v-1005c0 -100 55 -156 155 -156h998c100 0 155 56 155 156v1005z" />
    <glyph glyph-name="nine.whitesquare" unicode="&#x39;&#x25a1;" 
d="M595 834c0 133 101 227 237 227c144 0 245 -99 245 -311c0 -263 -95 -394 -258 -394c-98 0 -188 64 -206 143h47c19 -59 85 -101 160 -101c135 0 213 126 212 343h-3c-35 -84 -109 -132 -212 -132c-127 0 -222 98 -222 225zM1019 835c0 106 -83 184 -188 184
c-108 0 -188 -75 -188 -181c0 -108 77 -187 186 -187s190 80 190 184zM331 1389h1000c119 0 200 -80 200 -199v-1006c0 -120 -81 -199 -200 -199h-1000c-120 0 -200 79 -200 199v1006c0 119 80 199 200 199zM1485 1189c0 101 -55 156 -155 156h-998
c-100 0 -155 -55 -155 -156v-1005c0 -100 55 -156 155 -156h998c100 0 155 56 155 156v1005z" />
    <glyph glyph-name="plus.uc.whitesquare" unicode="&#x2b;&#x25a1;" 
d="M853 677v-237h-45v237h-224v43h224v226h45v-226h224v-43h-224zM331 1389h1000c119 0 200 -80 200 -199v-1006c0 -120 -81 -199 -200 -199h-1000c-120 0 -200 79 -200 199v1006c0 119 80 199 200 199zM1485 1189c0 101 -55 156 -155 156h-998c-100 0 -155 -55 -155 -156
v-1005c0 -100 55 -156 155 -156h998c100 0 155 56 155 156v1005z" />
    <glyph glyph-name="minus.uc.whitesquare" unicode="&#x2212;&#x25a1;" 
d="M1062 677h-461v43h461v-43zM331 1389h1000c119 0 200 -80 200 -199v-1006c0 -120 -81 -199 -200 -199h-1000c-120 0 -200 79 -200 199v1006c0 119 80 199 200 199zM1485 1189c0 101 -55 156 -155 156h-998c-100 0 -155 -55 -155 -156v-1005c0 -100 55 -156 155 -156h998
c100 0 155 56 155 156v1005z" />
    <glyph glyph-name="multiply.uc.whitesquare" unicode="&#xd7;&#x25a1;" 
d="M834 728l161 159l31 -31l-160 -160l159 -159l-30 -30l-160 159l-168 -168l-32 31l169 168l-159 159l29 30zM331 1389h1000c119 0 200 -80 200 -199v-1006c0 -120 -81 -199 -200 -199h-1000c-120 0 -200 79 -200 199v1006c0 119 80 199 200 199zM1485 1189
c0 101 -55 156 -155 156h-998c-100 0 -155 -55 -155 -156v-1005c0 -100 55 -156 155 -156h998c100 0 155 56 155 156v1005z" />
    <glyph glyph-name="divide.uc.whitesquare" unicode="&#xf7;&#x25a1;" 
d="M1062 677h-461v42h461v-42zM784 882c0 25 21 47 47 47s47 -21 47 -46c0 -26 -21 -46 -47 -46s-47 19 -47 45zM784 513c0 26 21 47 47 47s47 -21 47 -46c0 -26 -21 -46 -47 -46s-47 19 -47 45zM331 1389h1000c119 0 200 -80 200 -199v-1006c0 -120 -81 -199 -200 -199
h-1000c-120 0 -200 79 -200 199v1006c0 119 80 199 200 199zM1485 1189c0 101 -55 156 -155 156h-998c-100 0 -155 -55 -155 -156v-1005c0 -100 55 -156 155 -156h998c100 0 155 56 155 156v1005z" />
    <glyph glyph-name="equal.uc.whitesquare" unicode="&#x3d;&#x25a1;" 
d="M1061 586h-459v42h459v-42zM1061 769h-459v42h459v-42zM331 1389h1000c119 0 200 -80 200 -199v-1006c0 -120 -81 -199 -200 -199h-1000c-120 0 -200 79 -200 199v1006c0 119 80 199 200 199zM1485 1189c0 101 -55 156 -155 156h-998c-100 0 -155 -55 -155 -156v-1005
c0 -100 55 -156 155 -156h998c100 0 155 56 155 156v1005z" />
    <glyph glyph-name="greater.uc.whitesquare" unicode="&#x3e;&#x25a1;" 
d="M1070 708v-48l-426 -267v57l376 232v4l-376 233v57zM331 1389h1000c119 0 200 -80 200 -199v-1006c0 -120 -81 -199 -200 -199h-1000c-120 0 -200 79 -200 199v1006c0 119 80 199 200 199zM1485 1189c0 101 -55 156 -155 156h-998c-100 0 -155 -55 -155 -156v-1005
c0 -100 55 -156 155 -156h998c100 0 155 56 155 156v1005z" />
    <glyph glyph-name="less.uc.whitesquare" unicode="&#x3c;&#x25a1;" 
d="M593 660v48l425 268v-57l-375 -233v-4l375 -232v-57zM331 1389h1000c119 0 200 -80 200 -199v-1006c0 -120 -81 -199 -200 -199h-1000c-120 0 -200 79 -200 199v1006c0 119 80 199 200 199zM1485 1189c0 101 -55 156 -155 156h-998c-100 0 -155 -55 -155 -156v-1005
c0 -100 55 -156 155 -156h998c100 0 155 56 155 156v1005z" />
    <glyph glyph-name="numbersign.whitesquare" unicode="&#x23;&#x25a1;" 
d="M1099 808h-119l-40 -189h113l-9 -41h-113l-44 -209h-48l44 209h-173l-44 -209h-47l43 209h-123l8 41h125l39 189h-117l8 41h118l43 201h48l-43 -201h173l42 201h48l-43 -201h120zM759 808l-40 -189h174l40 189h-174zM331 1389h1000c119 0 200 -80 200 -199v-1006
c0 -120 -81 -199 -200 -199h-1000c-120 0 -200 79 -200 199v1006c0 119 80 199 200 199zM1485 1189c0 101 -55 156 -155 156h-998c-100 0 -155 -55 -155 -156v-1005c0 -100 55 -156 155 -156h998c100 0 155 56 155 156v1005z" />
    <glyph glyph-name="uni25BC.whitesquare" unicode="&#x25bc;&#x25a1;" 
d="M1080 858l-249 -397l-249 397h498zM331 1389h1000c119 0 200 -80 200 -199v-1006c0 -120 -81 -199 -200 -199h-1000c-120 0 -200 79 -200 199v1006c0 119 80 199 200 199zM1485 1189c0 101 -55 156 -155 156h-998c-100 0 -155 -55 -155 -156v-1005
c0 -100 55 -156 155 -156h998c100 0 155 56 155 156v1005z" />
    <glyph glyph-name="uni25B2.whitesquare" unicode="&#x25b2;&#x25a1;" 
d="M1080 524h-498l249 397zM331 1389h1000c119 0 200 -80 200 -199v-1006c0 -120 -81 -199 -200 -199h-1000c-120 0 -200 79 -200 199v1006c0 119 80 199 200 199zM1485 1189c0 101 -55 156 -155 156h-998c-100 0 -155 -55 -155 -156v-1005c0 -100 55 -156 155 -156h998
c100 0 155 56 155 156v1005z" />
    <glyph glyph-name="uni25C0.whitesquare" unicode="&#x25c0;&#x25a1;" 
d="M982 443l-396 249l396 250v-499zM331 1389h1000c119 0 200 -80 200 -199v-1006c0 -120 -81 -199 -200 -199h-1000c-120 0 -200 79 -200 199v1006c0 119 80 199 200 199zM1485 1189c0 101 -55 156 -155 156h-998c-100 0 -155 -55 -155 -156v-1005c0 -100 55 -156 155 -156
h998c100 0 155 56 155 156v1005z" />
    <glyph glyph-name="uni25B6.whitesquare" unicode="&#x25b6;&#x25a1;" 
d="M681 443v499l395 -250zM331 1389h1000c119 0 200 -80 200 -199v-1006c0 -120 -81 -199 -200 -199h-1000c-120 0 -200 79 -200 199v1006c0 119 80 199 200 199zM1485 1189c0 101 -55 156 -155 156h-998c-100 0 -155 -55 -155 -156v-1005c0 -100 55 -156 155 -156h998
c100 0 155 56 155 156v1005z" />
    <glyph glyph-name="question.whitesquare" unicode="&#x3f;&#x25a1;" 
d="M770 415c0 27 24 50 50 50c28 0 52 -24 52 -50s-24 -50 -52 -50s-50 22 -50 50zM628 885c2 103 82 181 205 181c117 0 200 -68 200 -160c0 -70 -31 -114 -110 -169c-63 -44 -83 -72 -83 -123v-39h-45v43c-1 61 24 100 89 146c74 52 101 86 101 138c0 72 -61 122 -155 122
c-92 0 -151 -64 -154 -139h-48zM331 1389h1000c119 0 200 -80 200 -199v-1006c0 -120 -81 -199 -200 -199h-1000c-120 0 -200 79 -200 199v1006c0 119 80 199 200 199zM1485 1189c0 101 -55 156 -155 156h-998c-100 0 -155 -55 -155 -156v-1005c0 -100 55 -156 155 -156h998
c100 0 155 56 155 156v1005z" />
    <glyph glyph-name="exclam.whitesquare" unicode="&#x21;&#x25a1;" 
d="M780 415c0 27 24 50 51 50c28 0 52 -24 52 -50s-24 -50 -52 -50c-29 0 -51 22 -51 50zM808 1049h45l-1 -457h-43zM331 1389h1000c119 0 200 -80 200 -199v-1006c0 -120 -81 -199 -200 -199h-1000c-120 0 -200 79 -200 199v1006c0 119 80 199 200 199zM1485 1189
c0 101 -55 156 -155 156h-998c-100 0 -155 -55 -155 -156v-1005c0 -100 55 -156 155 -156h998c100 0 155 56 155 156v1005z" />
    <glyph glyph-name="uni2717.whitesquare" unicode="&#x2717;&#x25a1;" 
d="M831 735l280 281l35 -35l-280 -280l280 -281l-35 -34l-280 280l-280 -280l-35 34l280 281l-280 280l34 35zM331 1389h1000c119 0 200 -80 200 -199v-1006c0 -120 -81 -199 -200 -199h-1000c-120 0 -200 79 -200 199v1006c0 119 80 199 200 199zM1485 1189
c0 101 -55 156 -155 156h-998c-100 0 -155 -55 -155 -156v-1005c0 -100 55 -156 155 -156h998c100 0 155 56 155 156v1005z" />
    <glyph glyph-name="uni2713.whitesquare" unicode="&#x2713;&#x25a1;" 
d="M1239 955l-530 -532l-275 279l36 36l239 -245l494 499zM331 1389h1000c119 0 200 -80 200 -199v-1006c0 -120 -81 -199 -200 -199h-1000c-120 0 -200 79 -200 199v1006c0 119 80 199 200 199zM1485 1189c0 101 -55 156 -155 156h-998c-100 0 -155 -55 -155 -156v-1005
c0 -100 55 -156 155 -156h998c100 0 155 56 155 156v1005z" />
    <glyph glyph-name=".notdef" horiz-adv-x="2048" 
d="M100 -494v355h1848v-355h-1848zM100 -76v354h1848v-354h-1848zM100 342v354h1848v-354h-1848zM100 760v354h1848v-354h-1848zM100 1178v354h1848v-354h-1848zM100 1595v355h1848v-355h-1848z" />
    <glyph glyph-name=".null" horiz-adv-x="0" 
 />
    <glyph glyph-name="nonmarkingreturn" horiz-adv-x="0" 
 />
    <glyph glyph-name="space" unicode=" " horiz-adv-x="376" 
 />
    <glyph glyph-name="A" unicode="A" horiz-adv-x="1201" 
d="M1125 0l-189 501h-671l-190 -501h-55l555 1443h51l555 -1443h-56zM598 1374l-315 -827h635l-315 827h-5z" />
    <glyph glyph-name="Agrave" unicode="&#xc0;" horiz-adv-x="1201" 
d="M1125 0l-189 501h-671l-190 -501h-55l555 1443h51l555 -1443h-56zM598 1374l-315 -827h635l-315 827h-5zM582 1554l-303 287h66l294 -287h-57z" />
    <glyph glyph-name="Aacute" unicode="&#xc1;" horiz-adv-x="1201" 
d="M1125 0l-189 501h-671l-190 -501h-55l555 1443h51l555 -1443h-56zM598 1374l-315 -827h635l-315 827h-5zM618 1554h-56l293 287h66z" />
    <glyph glyph-name="Adieresis" unicode="&#xc4;" horiz-adv-x="1201" 
d="M1125 0l-189 501h-671l-190 -501h-55l555 1443h51l555 -1443h-56zM598 1374l-315 -827h635l-315 827h-5zM461 1556c-30 0 -55 25 -55 54s25 53 55 53c29 0 54 -24 54 -53s-25 -54 -54 -54zM739 1556c-29 0 -54 25 -54 54s25 53 54 53c30 0 55 -24 55 -53s-25 -54 -55 -54
z" />
    <glyph glyph-name="Adieresismacron" unicode="&#x1de;" horiz-adv-x="1201" 
d="M1125 0l-189 501h-671l-190 -501h-55l555 1443h51l555 -1443h-56zM598 1374l-315 -827h635l-315 827h-5zM461 1662c29 0 54 -24 54 -53s-25 -52 -54 -52s-53 23 -53 52s24 53 53 53zM318 1888h564v-42h-564v42zM739 1662c29 0 53 -24 53 -53s-24 -52 -53 -52
s-54 23 -54 52s25 53 54 53z" />
    <glyph glyph-name="Aring" unicode="&#xc5;" horiz-adv-x="1201" 
d="M1125 0l-189 501h-671l-190 -501h-55l555 1443h51l555 -1443h-56zM598 1374l-315 -827h635l-315 827h-5zM600 1506c-90 0 -165 75 -165 166c0 90 75 165 165 165s165 -75 165 -165c0 -91 -75 -166 -165 -166zM600 1544c71 0 126 57 126 128c0 70 -55 127 -126 127
s-126 -57 -126 -127c0 -71 55 -128 126 -128z" />
    <glyph glyph-name="Aringacute" unicode="&#x1fa;" horiz-adv-x="1201" 
d="M1125 0l-189 501h-671l-190 -501h-55l555 1443h51l555 -1443h-56zM598 1374l-315 -827h635l-315 827h-5zM600 1504c-90 0 -165 75 -165 165c0 91 75 166 165 166s165 -75 165 -166c0 -90 -75 -165 -165 -165zM600 1542c72 0 126 57 126 127c0 71 -54 128 -126 128
s-126 -57 -126 -128c0 -70 54 -127 126 -127zM720 2083h62l-163 -164h-53z" />
    <glyph glyph-name="Atilde" unicode="&#xc3;" horiz-adv-x="1201" 
d="M1125 0l-189 501h-671l-190 -501h-55l555 1443h51l555 -1443h-56zM598 1374l-315 -827h635l-315 827h-5zM737 1552c-131 0 -169 168 -274 168c-69 0 -97 -66 -97 -158h-45c0 119 46 201 142 201c131 0 170 -167 274 -167c69 0 97 65 97 158h45c0 -119 -46 -202 -142 -202
z" />
    <glyph glyph-name="Abrevegrave" unicode="&#x1eb0;" horiz-adv-x="1201" 
d="M1125 0l-189 501h-671l-190 -501h-55l555 1443h51l555 -1443h-56zM598 1374l-315 -827h635l-315 827h-5zM857 1771c0 -133 -108 -216 -257 -216s-257 83 -257 216h45c0 -98 84 -173 212 -173s212 75 212 173h45zM655 1755h-56l-221 202h63z" />
    <glyph glyph-name="Adotmacron" unicode="&#x1e0;" horiz-adv-x="1201" 
d="M1125 0l-189 501h-671l-190 -501h-55l555 1443h51l555 -1443h-56zM598 1374l-315 -827h635l-315 827h-5zM600 1555c-34 0 -64 29 -64 63c0 35 30 63 64 63s64 -28 64 -63c0 -34 -30 -63 -64 -63zM882 1888v-42h-564v42h564z" />
    <glyph glyph-name="Aringbelow" unicode="&#x1e00;" horiz-adv-x="1201" 
d="M1125 0l-189 501h-671l-190 -501h-55l555 1443h51l555 -1443h-56zM598 1374l-315 -827h635l-315 827h-5zM600 -473c-91 0 -165 75 -165 166c0 90 74 165 165 165c90 0 164 -75 164 -165c0 -91 -74 -166 -164 -166zM600 -434c71 0 126 56 126 127c0 70 -55 127 -126 127
c-72 0 -127 -57 -127 -127c0 -71 55 -127 127 -127z" />
    <glyph glyph-name="Acircumflex" unicode="&#xc2;" horiz-adv-x="1201" 
d="M1125 0l-189 501h-671l-190 -501h-55l555 1443h51l555 -1443h-56zM598 1374l-315 -827h635l-315 827h-5zM577 1841h46l266 -287h-59l-229 249h-2l-229 -249h-59z" />
    <glyph glyph-name="Acircumflexdotbelow" unicode="&#x1eac;" horiz-adv-x="1201" 
d="M1125 0l-189 501h-671l-190 -501h-55l555 1443h51l555 -1443h-56zM598 1374l-315 -827h635l-315 827h-5zM600 -268c-34 0 -64 29 -64 64c0 34 30 63 64 63s64 -29 64 -63c0 -35 -30 -64 -64 -64zM577 1841h46l266 -287h-59l-229 249h-2l-229 -249h-59z" />
    <glyph glyph-name="Acircumflexacute" unicode="&#x1ea4;" horiz-adv-x="1201" 
d="M1125 0l-189 501h-671l-190 -501h-55l555 1443h51l555 -1443h-56zM598 1374l-315 -827h635l-315 827h-5zM577 1759h46l265 -204h-66l-220 169h-3l-220 -169h-67zM776 1755l214 202h64l-222 -202h-56z" />
    <glyph glyph-name="Acircumflextilde" unicode="&#x1eaa;" horiz-adv-x="1201" 
d="M1125 0l-189 501h-671l-190 -501h-55l555 1443h51l555 -1443h-56zM598 1374l-315 -827h635l-315 827h-5zM718 1822c-123 0 -138 148 -235 148c-65 0 -94 -55 -94 -129h-45c0 99 49 171 139 171c123 0 139 -148 235 -148c65 0 93 55 94 129h44c0 -98 -48 -171 -138 -171z
M577 1758h46l265 -203h-67l-220 168h-2l-220 -168h-67z" />
    <glyph glyph-name="Acircumflexgrave" unicode="&#x1ea6;" horiz-adv-x="1201" 
d="M1125 0l-189 501h-671l-190 -501h-55l555 1443h51l555 -1443h-56zM598 1374l-315 -827h635l-315 827h-5zM577 1759h46l265 -204h-67l-220 169h-2l-220 -169h-67zM947 1755h-56l-221 202h63z" />
    <glyph glyph-name="Acircumflexhookabove" unicode="&#x1ea8;" horiz-adv-x="1201" 
d="M1125 0l-189 501h-671l-190 -501h-55l555 1443h51l555 -1443h-56zM598 1374l-315 -827h635l-315 827h-5zM577 1759h46l265 -204h-66l-220 169h-3l-220 -169h-67zM723 1890v41c21 15 60 26 97 26c80 0 136 -48 136 -119c0 -54 -34 -99 -90 -126l-27 30c46 23 72 55 72 94
c0 48 -38 80 -95 80c-32 0 -76 -12 -93 -26z" />
    <glyph glyph-name="Abreve" unicode="&#x102;" horiz-adv-x="1201" 
d="M1125 0l-189 501h-671l-190 -501h-55l555 1443h51l555 -1443h-56zM598 1374l-315 -827h635l-315 827h-5zM343 1771h45c0 -99 84 -175 212 -175s212 76 212 175h45c0 -134 -108 -217 -257 -217s-257 83 -257 217z" />
    <glyph glyph-name="Abreveacute" unicode="&#x1eae;" horiz-adv-x="1201" 
d="M1125 0l-189 501h-671l-190 -501h-55l555 1443h51l555 -1443h-56zM598 1374l-315 -827h635l-315 827h-5zM343 1771h45c0 -98 84 -173 212 -173s212 75 212 173h45c0 -133 -108 -216 -257 -216s-257 83 -257 216zM545 1755l214 202h63l-221 -202h-56z" />
    <glyph glyph-name="Abrevetilde" unicode="&#x1eb4;" horiz-adv-x="1201" 
d="M1125 0l-189 501h-671l-190 -501h-55l555 1443h51l555 -1443h-56zM598 1374l-315 -827h635l-315 827h-5zM343 1767h45c1 -96 84 -169 212 -169s211 73 212 169h45c-1 -131 -108 -212 -257 -212c-148 0 -256 81 -257 212zM718 1822c-123 0 -139 148 -235 148
c-65 0 -94 -55 -94 -129h-46c0 98 49 171 139 171c124 0 140 -147 236 -147c64 0 93 54 93 128h46c0 -98 -49 -171 -139 -171z" />
    <glyph glyph-name="Abrevehookabove" unicode="&#x1eb2;" horiz-adv-x="1201" 
d="M1125 0l-189 501h-671l-190 -501h-55l555 1443h51l555 -1443h-56zM598 1374l-315 -827h635l-315 827h-5zM480 1921v42c21 16 60 27 98 27c81 0 138 -49 138 -120c0 -55 -34 -104 -92 -131l-27 31c46 23 73 58 73 97c0 49 -39 81 -96 81c-39 0 -73 -13 -94 -27zM343 1767
h45c1 -96 84 -169 212 -169s211 73 212 169h45c0 -131 -108 -212 -257 -212c-148 0 -256 81 -257 212z" />
    <glyph glyph-name="Abrevedotbelow" unicode="&#x1eb6;" horiz-adv-x="1201" 
d="M1125 0l-189 501h-671l-190 -501h-55l555 1443h51l555 -1443h-56zM598 1374l-315 -827h635l-315 827h-5zM600 -268c-34 0 -64 29 -64 64c0 34 30 63 64 63s64 -29 64 -63c0 -35 -30 -64 -64 -64zM343 1771h45c0 -99 84 -175 212 -175s212 76 212 175h45
c0 -134 -108 -217 -257 -217s-257 83 -257 217z" />
    <glyph glyph-name="Ainvertedbreve" unicode="&#x202;" horiz-adv-x="1201" 
d="M1125 0l-189 501h-671l-190 -501h-55l555 1443h51l555 -1443h-56zM598 1374l-315 -827h635l-315 827h-5zM343 1554c0 134 108 217 257 217s257 -83 257 -217h-45c0 99 -84 174 -212 174s-212 -75 -212 -174h-45z" />
    <glyph glyph-name="Acaron" unicode="&#x1cd;" horiz-adv-x="1201" 
d="M1125 0l-189 501h-671l-190 -501h-55l555 1443h51l555 -1443h-56zM598 1374l-315 -827h635l-315 827h-5zM577 1554l-266 287h59l229 -250h2l229 250h59l-266 -287h-46z" />
    <glyph glyph-name="Adotaccent" unicode="&#x226;" horiz-adv-x="1201" 
d="M1125 0l-189 501h-671l-190 -501h-55l555 1443h51l555 -1443h-56zM598 1374l-315 -827h635l-315 827h-5zM600 1556c-34 0 -64 29 -64 64c0 34 30 63 64 63s64 -29 64 -63c0 -35 -30 -64 -64 -64z" />
    <glyph glyph-name="Adotbelow" unicode="&#x1ea0;" horiz-adv-x="1201" 
d="M1125 0l-189 501h-671l-190 -501h-55l555 1443h51l555 -1443h-56zM598 1374l-315 -827h635l-315 827h-5zM600 -268c-34 0 -64 29 -64 64c0 34 30 63 64 63s64 -29 64 -63c0 -35 -30 -64 -64 -64z" />
    <glyph glyph-name="Ahookabove" unicode="&#x1ea2;" horiz-adv-x="1201" 
d="M1125 0l-189 501h-671l-190 -501h-55l555 1443h51l555 -1443h-56zM598 1374l-315 -827h635l-315 827h-5zM463 1743v42c22 13 68 29 114 29c89 0 147 -52 147 -129c0 -59 -36 -112 -98 -141l-28 32c49 22 80 63 80 106c0 54 -42 90 -106 90c-41 0 -87 -14 -109 -29z" />
    <glyph glyph-name="Adblgrave" unicode="&#x200;" horiz-adv-x="1201" 
d="M1125 0l-189 501h-671l-190 -501h-55l555 1443h51l555 -1443h-56zM598 1374l-315 -827h635l-315 827h-5zM690 1554l-303 287h66l293 -287h-56zM436 1554l-303 287h65l294 -287h-56z" />
    <glyph glyph-name="Amacron" unicode="&#x100;" horiz-adv-x="1201" 
d="M1125 0l-189 501h-671l-190 -501h-55l555 1443h51l555 -1443h-56zM598 1374l-315 -827h635l-315 827h-5zM882 1659v-43h-564v43h564z" />
    <glyph glyph-name="Aogonek" unicode="&#x104;" horiz-adv-x="1201" 
d="M598 1374l-315 -827h635l-315 827h-5zM1162 -374c-14 -6 -43 -10 -72 -10c-113 0 -193 71 -193 169c0 96 77 181 223 231l-184 485h-671l-190 -501h-55l555 1443h51l555 -1443l-6 -2c-149 -49 -229 -122 -229 -208c0 -75 61 -128 146 -128c30 0 58 3 70 7v-43z" />
    <glyph glyph-name="B" unicode="B" horiz-adv-x="1138" 
d="M600 0h-476v1443h463c251 0 422 -141 422 -349c0 -178 -112 -309 -294 -345v-4c207 -21 371 -152 371 -366c0 -231 -184 -379 -486 -379zM174 1397v-632h400c231 0 385 128 385 328c0 183 -150 304 -376 304h-409zM174 46h424c273 0 438 131 438 334
c0 208 -172 339 -459 339h-403v-673z" />
    <glyph glyph-name="Blinebelow" unicode="&#x1e06;" horiz-adv-x="1138" 
d="M600 0h-476v1443h463c251 0 422 -141 422 -349c0 -178 -112 -309 -294 -345v-4c207 -21 371 -152 371 -366c0 -231 -184 -379 -486 -379zM174 1397v-632h400c231 0 385 128 385 328c0 183 -150 304 -376 304h-409zM174 46h424c273 0 438 131 438 334
c0 208 -172 339 -459 339h-403v-673zM785 -201v-43h-564v43h564z" />
    <glyph glyph-name="Bdotbelow" unicode="&#x1e04;" horiz-adv-x="1138" 
d="M503 -268c-34 0 -64 29 -64 64c0 34 30 63 64 63s64 -29 64 -63c0 -35 -30 -64 -64 -64zM600 0h-476v1443h463c251 0 422 -141 422 -349c0 -178 -112 -309 -294 -345v-4c207 -21 371 -152 371 -366c0 -231 -184 -379 -486 -379zM174 1397v-632h400c231 0 385 128 385 328
c0 183 -150 304 -376 304h-409zM174 46h424c273 0 438 131 438 334c0 208 -172 339 -459 339h-403v-673z" />
    <glyph glyph-name="Bdotaccent" unicode="&#x1e02;" horiz-adv-x="1138" 
d="M503 1556c-34 0 -64 29 -64 64c0 34 30 63 64 63s64 -29 64 -63c0 -35 -30 -64 -64 -64zM600 0h-476v1443h463c251 0 422 -141 422 -349c0 -178 -112 -309 -294 -345v-4c207 -21 371 -152 371 -366c0 -231 -184 -379 -486 -379zM174 1397v-632h400c231 0 385 128 385 328
c0 183 -150 304 -376 304h-409zM174 46h424c273 0 438 131 438 334c0 208 -172 339 -459 339h-403v-673z" />
    <glyph glyph-name="C" unicode="C" horiz-adv-x="1303" 
d="M692 -20c-383 0 -629 293 -629 752c0 449 243 731 629 731c287 0 533 -213 558 -484h-49c-26 245 -248 437 -509 437c-355 0 -579 -263 -579 -684c0 -433 228 -705 579 -705c267 0 485 166 509 413h49c-23 -271 -257 -460 -558 -460z" />
    <glyph glyph-name="Cacute" unicode="&#x106;" horiz-adv-x="1303" 
d="M711 1554h-56l293 287h66zM692 -20c-383 0 -629 293 -629 752c0 449 243 731 629 731c287 0 533 -213 558 -484h-49c-26 245 -248 437 -509 437c-355 0 -579 -263 -579 -684c0 -433 228 -705 579 -705c267 0 485 166 509 413h49c-23 -271 -257 -460 -558 -460z" />
    <glyph glyph-name="Ccaron" unicode="&#x10c;" horiz-adv-x="1303" 
d="M692 -20c-383 0 -629 293 -629 752c0 449 243 731 629 731c287 0 533 -213 558 -484h-49c-26 245 -248 437 -509 437c-355 0 -579 -263 -579 -684c0 -433 228 -705 579 -705c267 0 485 166 509 413h49c-23 -271 -257 -460 -558 -460zM670 1554l-266 287h59l229 -250h2
l229 250h59l-266 -287h-46z" />
    <glyph glyph-name="Ccircumflex" unicode="&#x108;" horiz-adv-x="1303" 
d="M692 -20c-383 0 -629 293 -629 752c0 449 243 731 629 731c287 0 533 -213 558 -484h-49c-26 245 -248 437 -509 437c-355 0 -579 -263 -579 -684c0 -433 228 -705 579 -705c267 0 485 166 509 413h49c-23 -271 -257 -460 -558 -460zM670 1841h46l266 -287h-59l-229 249
h-2l-229 -249h-59z" />
    <glyph glyph-name="Cdotaccent" unicode="&#x10a;" horiz-adv-x="1303" 
d="M693 1556c-34 0 -64 29 -64 64c0 34 30 63 64 63s64 -29 64 -63c0 -35 -30 -64 -64 -64zM692 -20c-383 0 -629 293 -629 752c0 449 243 731 629 731c287 0 533 -213 558 -484h-49c-26 245 -248 437 -509 437c-355 0 -579 -263 -579 -684c0 -433 228 -705 579 -705
c267 0 485 166 509 413h49c-23 -271 -257 -460 -558 -460z" />
    <glyph glyph-name="Ccedilla" unicode="&#xc7;" horiz-adv-x="1303" 
d="M1250 979h-49c-26 245 -248 437 -509 437c-355 0 -579 -263 -579 -684c0 -433 228 -705 579 -705c267 0 485 166 509 413h49c-23 -266 -249 -453 -542 -460l-51 -121c130 0 206 -56 206 -153c0 -99 -88 -167 -216 -168c-43 0 -95 7 -122 17v43c29 -11 75 -17 121 -17
c96 0 171 55 171 124c0 72 -59 113 -164 113h-46v33l54 130c-365 15 -598 304 -598 751c0 449 243 731 629 731c287 0 533 -213 558 -484z" />
    <glyph glyph-name="Ccedillaacute" unicode="&#x1e08;" horiz-adv-x="1303" 
d="M1014 1841l-303 -287h-56l293 287h66zM1250 979h-49c-26 245 -248 437 -509 437c-355 0 -579 -263 -579 -684c0 -433 228 -705 579 -705c267 0 485 166 509 413h49c-23 -266 -249 -453 -542 -460l-51 -121c130 0 206 -56 206 -153c0 -99 -88 -167 -216 -168
c-43 0 -95 7 -122 17v43c29 -11 75 -17 121 -17c96 0 171 55 171 124c0 72 -59 113 -164 113h-46v33l54 130c-365 15 -598 304 -598 751c0 449 243 731 629 731c287 0 533 -213 558 -484z" />
    <glyph glyph-name="D" unicode="D" horiz-adv-x="1312" 
d="M124 1443h435c440 0 690 -261 690 -721c0 -461 -250 -722 -690 -722h-435v1443zM175 1396v-1349h383c412 0 641 242 641 675c0 432 -230 674 -641 674h-383z" />
    <glyph glyph-name="Ddotaccent" unicode="&#x1e0a;" horiz-adv-x="1312" 
d="M553 1556c-34 0 -64 29 -64 64c0 34 30 63 64 63s64 -29 64 -63c0 -35 -30 -64 -64 -64zM124 1443h435c440 0 690 -261 690 -721c0 -461 -250 -722 -690 -722h-435v1443zM175 1396v-1349h383c412 0 641 242 641 675c0 432 -230 674 -641 674h-383z" />
    <glyph glyph-name="Dcircumflexbelow" unicode="&#x1e12;" horiz-adv-x="1312" 
d="M124 1443h435c440 0 690 -261 690 -721c0 -461 -250 -722 -690 -722h-435v1443zM175 1396v-1349h383c412 0 641 242 641 675c0 432 -230 674 -641 674h-383zM530 -141h46l266 -287h-59l-229 249h-2l-229 -249h-59z" />
    <glyph glyph-name="Dcommaaccent" unicode="&#x1e10;" horiz-adv-x="1312" 
d="M484 -480h-46l102 338h57zM124 1443h435c440 0 690 -261 690 -721c0 -461 -250 -722 -690 -722h-435v1443zM175 1396v-1349h383c412 0 641 242 641 675c0 432 -230 674 -641 674h-383z" />
    <glyph glyph-name="Dlinebelow" unicode="&#x1e0e;" horiz-adv-x="1312" 
d="M835 -201v-43h-564v43h564zM124 1443h435c440 0 690 -261 690 -721c0 -461 -250 -722 -690 -722h-435v1443zM175 1396v-1349h383c412 0 641 242 641 675c0 432 -230 674 -641 674h-383z" />
    <glyph glyph-name="Dcaron" unicode="&#x10e;" horiz-adv-x="1312" 
d="M530 1554l-266 287h59l229 -250h2l229 250h59l-266 -287h-46zM124 1443h435c440 0 690 -261 690 -721c0 -461 -250 -722 -690 -722h-435v1443zM175 1396v-1349h383c412 0 641 242 641 675c0 432 -230 674 -641 674h-383z" />
    <glyph glyph-name="Ddotbelow" unicode="&#x1e0c;" horiz-adv-x="1312" 
d="M553 -268c-34 0 -64 29 -64 64c0 34 30 63 64 63s64 -29 64 -63c0 -35 -30 -64 -64 -64zM124 1443h435c440 0 690 -261 690 -721c0 -461 -250 -722 -690 -722h-435v1443zM175 1396v-1349h383c412 0 641 242 641 675c0 432 -230 674 -641 674h-383z" />
    <glyph glyph-name="Dcroat" unicode="&#x110;" horiz-adv-x="1331" 
d="M195 47h383c412 0 641 242 641 675c0 432 -230 674 -641 674h-383v-632h382v-47h-382v-670zM144 1443h435c440 0 690 -261 690 -721c0 -461 -250 -722 -690 -722h-435v717h-121v47h121v679z" />
    <glyph glyph-name="E" unicode="E" horiz-adv-x="1050" 
d="M950 47v-47h-826v1443h826v-47h-776v-632h740v-46h-740v-671h776z" />
    <glyph glyph-name="Egrave" unicode="&#xc8;" horiz-adv-x="1050" 
d="M519 1554l-303 287h66l294 -287h-57zM950 47v-47h-826v1443h826v-47h-776v-632h740v-46h-740v-671h776z" />
    <glyph glyph-name="Edblgrave" unicode="&#x204;" horiz-adv-x="1050" 
d="M627 1554l-303 287h66l293 -287h-56zM373 1554l-303 287h65l294 -287h-56zM950 47v-47h-826v1443h826v-47h-776v-632h740v-46h-740v-671h776z" />
    <glyph glyph-name="Eacute" unicode="&#xc9;" horiz-adv-x="1050" 
d="M555 1554h-56l293 287h66zM950 47v-47h-826v1443h826v-47h-776v-632h740v-46h-740v-671h776z" />
    <glyph glyph-name="Ecircumflex" unicode="&#xca;" horiz-adv-x="1050" 
d="M514 1841h46l266 -287h-59l-229 249h-2l-229 -249h-59zM950 47v-47h-826v1443h826v-47h-776v-632h740v-46h-740v-671h776z" />
    <glyph glyph-name="Ecircumflexhookabove" unicode="&#x1ec2;" horiz-adv-x="1050" 
d="M950 47v-47h-826v1443h826v-47h-776v-632h740v-46h-740v-671h776zM514 1759h46l265 -204h-66l-220 169h-3l-220 -169h-67zM660 1890v41c21 15 60 26 97 26c80 0 136 -48 136 -119c0 -54 -34 -99 -90 -126l-27 30c46 23 72 55 72 94c0 48 -38 80 -95 80
c-32 0 -76 -12 -93 -26z" />
    <glyph glyph-name="Ecircumflexgrave" unicode="&#x1ec0;" horiz-adv-x="1050" 
d="M950 47v-47h-826v1443h826v-47h-776v-632h740v-46h-740v-671h776zM514 1759h46l265 -204h-67l-220 169h-2l-220 -169h-67zM884 1755h-56l-221 202h63z" />
    <glyph glyph-name="Ecircumflextilde" unicode="&#x1ec4;" horiz-adv-x="1050" 
d="M655 1822c-123 0 -138 148 -235 148c-65 0 -94 -55 -94 -129h-45c0 99 49 171 139 171c123 0 139 -148 235 -148c65 0 93 55 94 129h44c0 -98 -48 -171 -138 -171zM514 1758h46l265 -203h-67l-220 168h-2l-220 -168h-67zM950 47v-47h-826v1443h826v-47h-776v-632h740v-46
h-740v-671h776z" />
    <glyph glyph-name="Ecircumflexdotbelow" unicode="&#x1ec6;" horiz-adv-x="1050" 
d="M537 -268c-34 0 -64 29 -64 64c0 34 30 63 64 63s64 -29 64 -63c0 -35 -30 -64 -64 -64zM514 1841h46l266 -287h-59l-229 249h-2l-229 -249h-59zM950 47v-47h-826v1443h826v-47h-776v-632h740v-46h-740v-671h776z" />
    <glyph glyph-name="Ecircumflexacute" unicode="&#x1ebe;" horiz-adv-x="1050" 
d="M950 47v-47h-826v1443h826v-47h-776v-632h740v-46h-740v-671h776zM514 1759h46l265 -204h-66l-220 169h-3l-220 -169h-67zM713 1755l214 202h64l-222 -202h-56z" />
    <glyph glyph-name="Edieresis" unicode="&#xcb;" horiz-adv-x="1050" 
d="M398 1556c-30 0 -55 25 -55 54s25 53 55 53c29 0 54 -24 54 -53s-25 -54 -54 -54zM676 1556c-29 0 -54 25 -54 54s25 53 54 53c30 0 55 -24 55 -53s-25 -54 -55 -54zM950 47v-47h-826v1443h826v-47h-776v-632h740v-46h-740v-671h776z" />
    <glyph glyph-name="Edotbelow" unicode="&#x1eb8;" horiz-adv-x="1050" 
d="M537 -268c-34 0 -64 29 -64 64c0 34 30 63 64 63s64 -29 64 -63c0 -35 -30 -64 -64 -64zM950 47v-47h-826v1443h826v-47h-776v-632h740v-46h-740v-671h776z" />
    <glyph glyph-name="Einvertedbreve" unicode="&#x206;" horiz-adv-x="1050" 
d="M950 47v-47h-826v1443h826v-47h-776v-632h740v-46h-740v-671h776zM280 1554c0 134 108 217 257 217s257 -83 257 -217h-45c0 99 -84 174 -212 174s-212 -75 -212 -174h-45z" />
    <glyph glyph-name="Ehookabove" unicode="&#x1eba;" horiz-adv-x="1050" 
d="M950 47v-47h-826v1443h826v-47h-776v-632h740v-46h-740v-671h776zM400 1743v42c22 13 68 29 114 29c89 0 147 -52 147 -129c0 -59 -36 -112 -98 -141l-28 32c49 22 80 63 80 106c0 54 -42 90 -106 90c-41 0 -87 -14 -109 -29z" />
    <glyph glyph-name="Ecaron" unicode="&#x11a;" horiz-adv-x="1050" 
d="M514 1554l-266 287h59l229 -250h2l229 250h59l-266 -287h-46zM950 47v-47h-826v1443h826v-47h-776v-632h740v-46h-740v-671h776z" />
    <glyph glyph-name="Emacron" unicode="&#x112;" horiz-adv-x="1050" 
d="M950 47v-47h-826v1443h826v-47h-776v-632h740v-46h-740v-671h776zM819 1659v-43h-564v43h564z" />
    <glyph glyph-name="Emacrongrave" unicode="&#x1e14;" horiz-adv-x="1050" 
d="M255 1616v43h564v-43h-564zM581 1755h-56l-221 202h63zM950 47v-47h-826v1443h826v-47h-776v-632h740v-46h-740v-671h776z" />
    <glyph glyph-name="Emacronacute" unicode="&#x1e16;" horiz-adv-x="1050" 
d="M819 1616h-564v43h564v-43zM493 1755l214 202h63l-221 -202h-56zM950 47v-47h-826v1443h826v-47h-776v-632h740v-46h-740v-671h776z" />
    <glyph glyph-name="Etilde" unicode="&#x1ebc;" horiz-adv-x="1050" 
d="M950 47v-47h-826v1443h826v-47h-776v-632h740v-46h-740v-671h776zM674 1552c-131 0 -169 168 -274 168c-69 0 -97 -66 -97 -158h-45c0 119 46 201 142 201c131 0 170 -167 274 -167c69 0 97 65 97 158h45c0 -119 -46 -202 -142 -202z" />
    <glyph glyph-name="Ecircumflexbelow" unicode="&#x1e18;" horiz-adv-x="1050" 
d="M950 47v-47h-826v1443h826v-47h-776v-632h740v-46h-740v-671h776zM514 -141h46l266 -287h-59l-229 249h-2l-229 -249h-59z" />
    <glyph glyph-name="Ebreve" unicode="&#x114;" horiz-adv-x="1050" 
d="M950 47v-47h-826v1443h826v-47h-776v-632h740v-46h-740v-671h776zM280 1771h45c0 -99 84 -175 212 -175s212 76 212 175h45c0 -134 -108 -217 -257 -217s-257 83 -257 217z" />
    <glyph glyph-name="Etildebelow" unicode="&#x1e1a;" horiz-adv-x="1050" 
d="M674 -352c-131 0 -169 168 -274 168c-69 0 -97 -66 -97 -158h-45c0 119 46 201 142 201c131 0 170 -167 274 -167c69 0 97 65 97 158h45c0 -119 -46 -202 -142 -202zM950 47v-47h-826v1443h826v-47h-776v-632h740v-46h-740v-671h776z" />
    <glyph glyph-name="Edotaccent" unicode="&#x116;" horiz-adv-x="1050" 
d="M537 1556c-34 0 -64 29 -64 64c0 34 30 63 64 63s64 -29 64 -63c0 -35 -30 -64 -64 -64zM950 47v-47h-826v1443h826v-47h-776v-632h740v-46h-740v-671h776z" />
    <glyph glyph-name="Ecedilla" unicode="&#x228;" horiz-adv-x="1050" 
d="M950 1396h-776v-632h740v-46h-740v-671h776v-47h-390l-59 -141c130 0 206 -56 206 -153c0 -99 -88 -167 -216 -168c-43 0 -95 7 -122 17v43c29 -11 75 -17 121 -17c96 0 171 55 171 124c0 72 -59 113 -164 113h-46v33l62 149h-389v1443h826v-47z" />
    <glyph glyph-name="Ecedillabreve" unicode="&#x1e1c;" horiz-adv-x="1050" 
d="M749 1771h45c0 -134 -108 -217 -257 -217s-257 83 -257 217h45c0 -99 84 -175 212 -175s212 76 212 175zM950 1396h-776v-632h740v-46h-740v-671h776v-47h-390l-59 -141c130 0 206 -56 206 -153c0 -99 -88 -167 -216 -168c-43 0 -95 7 -122 17v43c29 -11 75 -17 121 -17
c96 0 171 55 171 124c0 72 -59 113 -164 113h-46v33l62 149h-389v1443h826v-47z" />
    <glyph glyph-name="Eogonek" unicode="&#x118;" horiz-adv-x="1050" 
d="M124 0v1443h826v-47h-776v-632h740v-46h-740v-671h776v-44l-14 -5c-139 -46 -229 -122 -229 -208c0 -75 61 -128 147 -128c30 0 57 3 70 7v-43c-15 -6 -43 -10 -73 -10c-112 0 -193 71 -193 169c0 87 72 168 181 211v4h-715z" />
    <glyph glyph-name="F" unicode="F" horiz-adv-x="1020" 
d="M174 0h-50v1443h817v-47h-767v-634h706v-47h-706v-715z" />
    <glyph glyph-name="Fdotaccent" unicode="&#x1e1e;" horiz-adv-x="1020" 
d="M532 1556c-34 0 -64 29 -64 64c0 34 30 63 64 63s64 -29 64 -63c0 -35 -30 -64 -64 -64zM174 0h-50v1443h817v-47h-767v-634h706v-47h-706v-715z" />
    <glyph glyph-name="G" unicode="G" horiz-adv-x="1332" 
d="M1259 564c0 -362 -218 -584 -574 -584c-368 0 -622 306 -622 751c0 439 249 732 622 732c284 0 511 -172 564 -427h-49c-56 229 -260 380 -515 380c-344 0 -572 -273 -572 -685c0 -418 233 -704 572 -704c326 0 525 203 525 535v100h-531v46h580v-144z" />
    <glyph glyph-name="Gacute" unicode="&#x1f4;" horiz-adv-x="1332" 
d="M703 1554h-56l293 287h66zM1259 564c0 -362 -218 -584 -574 -584c-368 0 -622 306 -622 751c0 439 249 732 622 732c284 0 511 -172 564 -427h-49c-56 229 -260 380 -515 380c-344 0 -572 -273 -572 -685c0 -418 233 -704 572 -704c326 0 525 203 525 535v100h-531v46
h580v-144z" />
    <glyph glyph-name="Gcaron" unicode="&#x1e6;" horiz-adv-x="1332" 
d="M662 1554l-266 287h59l229 -250h2l229 250h59l-266 -287h-46zM1259 564c0 -362 -218 -584 -574 -584c-368 0 -622 306 -622 751c0 439 249 732 622 732c284 0 511 -172 564 -427h-49c-56 229 -260 380 -515 380c-344 0 -572 -273 -572 -685c0 -418 233 -704 572 -704
c326 0 525 203 525 535v100h-531v46h580v-144z" />
    <glyph glyph-name="Gcircumflex" unicode="&#x11c;" horiz-adv-x="1332" 
d="M662 1841h46l266 -287h-59l-229 249h-2l-229 -249h-59zM1259 564c0 -362 -218 -584 -574 -584c-368 0 -622 306 -622 751c0 439 249 732 622 732c284 0 511 -172 564 -427h-49c-56 229 -260 380 -515 380c-344 0 -572 -273 -572 -685c0 -418 233 -704 572 -704
c326 0 525 203 525 535v100h-531v46h580v-144z" />
    <glyph glyph-name="Gbreve" unicode="&#x11e;" horiz-adv-x="1332" 
d="M1259 564c0 -362 -218 -584 -574 -584c-368 0 -622 306 -622 751c0 439 249 732 622 732c284 0 511 -172 564 -427h-49c-56 229 -260 380 -515 380c-344 0 -572 -273 -572 -685c0 -418 233 -704 572 -704c326 0 525 203 525 535v100h-531v46h580v-144zM428 1771h45
c0 -99 84 -175 212 -175s212 76 212 175h45c0 -134 -108 -217 -257 -217s-257 83 -257 217z" />
    <glyph glyph-name="Gmacron" unicode="&#x1e20;" horiz-adv-x="1332" 
d="M1259 564c0 -362 -218 -584 -574 -584c-368 0 -622 306 -622 751c0 439 249 732 622 732c284 0 511 -172 564 -427h-49c-56 229 -260 380 -515 380c-344 0 -572 -273 -572 -685c0 -418 233 -704 572 -704c326 0 525 203 525 535v100h-531v46h580v-144zM967 1659v-43h-564
v43h564z" />
    <glyph glyph-name="Gdotaccent" unicode="&#x120;" horiz-adv-x="1332" 
d="M685 1556c-34 0 -64 29 -64 64c0 34 30 63 64 63s64 -29 64 -63c0 -35 -30 -64 -64 -64zM1259 564c0 -362 -218 -584 -574 -584c-368 0 -622 306 -622 751c0 439 249 732 622 732c284 0 511 -172 564 -427h-49c-56 229 -260 380 -515 380c-344 0 -572 -273 -572 -685
c0 -418 233 -704 572 -704c326 0 525 203 525 535v100h-531v46h580v-144z" />
    <glyph glyph-name="Gcommaaccent" unicode="&#x122;" horiz-adv-x="1332" 
d="M616 -480h-46l102 338h57zM1259 564c0 -362 -218 -584 -574 -584c-368 0 -622 306 -622 751c0 439 249 732 622 732c284 0 511 -172 564 -427h-49c-56 229 -260 380 -515 380c-344 0 -572 -273 -572 -685c0 -418 233 -704 572 -704c326 0 525 203 525 535v100h-531v46
h580v-144z" />
    <glyph glyph-name="H" unicode="H" horiz-adv-x="1296" 
d="M1172 0h-50v718h-948v-718h-50v1443h50v-678h948v678h50v-1443z" />
    <glyph glyph-name="Hdieresis" unicode="&#x1e26;" horiz-adv-x="1296" 
d="M1172 0h-50v718h-948v-718h-50v1443h50v-678h948v678h50v-1443zM509 1556c-30 0 -55 25 -55 54s25 53 55 53c29 0 54 -24 54 -53s-25 -54 -54 -54zM787 1556c-29 0 -54 25 -54 54s25 53 54 53c30 0 55 -24 55 -53s-25 -54 -55 -54z" />
    <glyph glyph-name="Hcaron" unicode="&#x21e;" horiz-adv-x="1296" 
d="M1172 0h-50v718h-948v-718h-50v1443h50v-678h948v678h50v-1443zM625 1554l-266 287h59l229 -250h2l229 250h59l-266 -287h-46z" />
    <glyph glyph-name="Hcircumflex" unicode="&#x124;" horiz-adv-x="1296" 
d="M1172 0h-50v718h-948v-718h-50v1443h50v-678h948v678h50v-1443zM625 1841h46l266 -287h-59l-229 249h-2l-229 -249h-59z" />
    <glyph glyph-name="Hdotbelow" unicode="&#x1e24;" horiz-adv-x="1296" 
d="M1172 0h-50v718h-948v-718h-50v1443h50v-678h948v678h50v-1443zM648 -268c-34 0 -64 29 -64 64c0 34 30 63 64 63s64 -29 64 -63c0 -35 -30 -64 -64 -64z" />
    <glyph glyph-name="Hdotaccent" unicode="&#x1e22;" horiz-adv-x="1296" 
d="M1172 0h-50v718h-948v-718h-50v1443h50v-678h948v678h50v-1443zM648 1556c-34 0 -64 29 -64 64c0 34 30 63 64 63s64 -29 64 -63c0 -35 -30 -64 -64 -64z" />
    <glyph glyph-name="Hbrevebelow" unicode="&#x1e2a;" horiz-adv-x="1296" 
d="M391 -144h45c0 -99 84 -175 212 -175s212 76 212 175h45c0 -134 -108 -217 -257 -217s-257 83 -257 217zM1172 0h-50v718h-948v-718h-50v1443h50v-678h948v678h50v-1443z" />
    <glyph glyph-name="Hcedilla" unicode="&#x1e28;" horiz-adv-x="1296" 
d="M1122 1443h50v-1443h-50v718h-948v-712v-6l-59 -141c130 0 206 -56 206 -153c0 -99 -88 -167 -216 -168c-43 0 -95 7 -122 17v43c29 -11 75 -17 121 -17c96 0 171 55 171 124c0 72 -59 113 -164 113h-46v33l62 149h-3v1443h50v-678h948v678z" />
    <glyph glyph-name="Hbar" unicode="&#x126;" horiz-adv-x="1339" 
d="M1143 765v370h-948v-370h948zM1317 1181v-46h-124v-1135h-50v718h-948v-718h-50v1135h-123v46h123v262h50v-262h948v262h50v-262h124z" />
    <glyph glyph-name="I" unicode="I" horiz-adv-x="298" 
d="M174 0h-50v1443h50v-1443z" />
    <glyph glyph-name="Idotaccent" unicode="&#x130;" horiz-adv-x="298" 
d="M174 0h-50v1443h50v-1443zM149 1556c-34 0 -64 29 -64 64c0 34 30 63 64 63s64 -29 64 -63c0 -35 -30 -64 -64 -64z" />
    <glyph glyph-name="Igrave" unicode="&#xcc;" horiz-adv-x="298" 
d="M174 0h-50v1443h50v-1443zM131 1554l-303 287h66l294 -287h-57z" />
    <glyph glyph-name="Idblgrave" unicode="&#x208;" horiz-adv-x="298" 
d="M174 0h-50v1443h50v-1443zM239 1554l-303 287h66l293 -287h-56zM-15 1554l-303 287h65l294 -287h-56z" />
    <glyph glyph-name="Iacute" unicode="&#xcd;" horiz-adv-x="298" 
d="M174 0h-50v1443h50v-1443zM167 1554h-56l293 287h66z" />
    <glyph glyph-name="Icircumflex" unicode="&#xce;" horiz-adv-x="298" 
d="M174 0h-50v1443h50v-1443zM126 1841h46l266 -287h-59l-229 249h-2l-229 -249h-59z" />
    <glyph glyph-name="Icaron" unicode="&#x1cf;" horiz-adv-x="298" 
d="M174 0h-50v1443h50v-1443zM126 1554l-266 287h59l229 -250h2l229 250h59l-266 -287h-46z" />
    <glyph glyph-name="Idieresis" unicode="&#xcf;" horiz-adv-x="298" 
d="M174 0h-50v1443h50v-1443zM10 1556c-30 0 -55 25 -55 54s25 53 55 53c29 0 54 -24 54 -53s-25 -54 -54 -54zM288 1556c-29 0 -54 25 -54 54s25 53 54 53c30 0 55 -24 55 -53s-25 -54 -55 -54z" />
    <glyph glyph-name="Idieresisacute" unicode="&#x1e2e;" horiz-adv-x="298" 
d="M174 0h-50v1443h50v-1443zM105 1755l214 202h63l-221 -202h-56zM10 1557c-29 0 -53 23 -53 52s24 53 53 53s54 -24 54 -53s-25 -52 -54 -52zM288 1557c-29 0 -54 23 -54 52s25 53 54 53s53 -24 53 -53s-24 -52 -53 -52z" />
    <glyph glyph-name="Ibreve" unicode="&#x12c;" horiz-adv-x="298" 
d="M174 0h-50v1443h50v-1443zM-108 1771h45c0 -99 84 -175 212 -175s212 76 212 175h45c0 -134 -108 -217 -257 -217s-257 83 -257 217z" />
    <glyph glyph-name="Idotbelow" unicode="&#x1eca;" horiz-adv-x="298" 
d="M174 0h-50v1443h50v-1443zM149 -268c-34 0 -64 29 -64 64c0 34 30 63 64 63s64 -29 64 -63c0 -35 -30 -64 -64 -64z" />
    <glyph glyph-name="Iinvertedbreve" unicode="&#x20a;" horiz-adv-x="298" 
d="M174 0h-50v1443h50v-1443zM-108 1554c0 134 108 217 257 217s257 -83 257 -217h-45c0 99 -84 174 -212 174s-212 -75 -212 -174h-45z" />
    <glyph glyph-name="Imacron" unicode="&#x12a;" horiz-adv-x="298" 
d="M174 0h-50v1443h50v-1443zM431 1659v-43h-564v43h564z" />
    <glyph glyph-name="Itildebelow" unicode="&#x1e2c;" horiz-adv-x="298" 
d="M174 0h-50v1443h50v-1443zM286 -352c-131 0 -169 168 -274 168c-69 0 -97 -66 -97 -158h-45c0 119 46 201 142 201c131 0 170 -167 274 -167c69 0 97 65 97 158h45c0 -119 -46 -202 -142 -202z" />
    <glyph glyph-name="Ihookabove" unicode="&#x1ec8;" horiz-adv-x="298" 
d="M174 0h-50v1443h50v-1443zM12 1743v42c22 13 68 29 114 29c89 0 147 -52 147 -129c0 -59 -36 -112 -98 -141l-28 32c49 22 80 63 80 106c0 54 -42 90 -106 90c-41 0 -87 -14 -109 -29z" />
    <glyph glyph-name="Itilde" unicode="&#x128;" horiz-adv-x="298" 
d="M174 0h-50v1443h50v-1443zM286 1552c-131 0 -169 168 -274 168c-69 0 -97 -66 -97 -158h-45c0 119 46 201 142 201c131 0 170 -167 274 -167c69 0 97 65 97 158h45c0 -119 -46 -202 -142 -202z" />
    <glyph glyph-name="Iogonek" unicode="&#x12e;" horiz-adv-x="298" 
d="M124 17v1426h50v-1443l-6 -3c-106 -53 -164 -127 -164 -207c0 -75 61 -128 147 -128c28 0 57 3 69 7v-43c-16 -6 -45 -10 -72 -10c-112 0 -193 70 -193 169c0 94 63 180 169 232z" />
    <glyph glyph-name="I.1" horiz-adv-x="817" 
d="M749 1397h-316v-1351h316v-46h-316h-50h-316v46h316v1351h-316v46h316h50h316v-46z" />
    <glyph glyph-name="Idotaccent.1" horiz-adv-x="817" 
d="M408 1556c-34 0 -64 29 -64 64c0 34 30 63 64 63s64 -29 64 -63c0 -35 -30 -64 -64 -64zM749 1397h-316v-1351h316v-46h-316h-50h-316v46h316v1351h-316v46h316h50h316v-46z" />
    <glyph glyph-name="Igrave.1" horiz-adv-x="817" 
d="M455 1554h-57l-303 287h66zM749 1397h-316v-1351h316v-46h-316h-50h-316v46h316v1351h-316v46h316h50h316v-46z" />
    <glyph glyph-name="Idblgrave.1" horiz-adv-x="817" 
d="M579 1554h-56l-303 287h66zM325 1554h-56l-303 287h65zM749 1397h-316v-1351h316v-46h-316h-50h-316v46h316v1351h-316v46h316h50h316v-46z" />
    <glyph glyph-name="Iacute.1" horiz-adv-x="817" 
d="M713 1841l-303 -287h-56l293 287h66zM749 1397h-316v-1351h316v-46h-316h-50h-316v46h316v1351h-316v46h316h50h316v-46z" />
    <glyph glyph-name="Icircumflex.1" horiz-adv-x="817" 
d="M407 1803l-229 -249h-59l266 287h46l266 -287h-59l-229 249h-2zM749 1397h-316v-1351h316v-46h-316h-50h-316v46h316v1351h-316v46h316h50h316v-46z" />
    <glyph glyph-name="Icaron.1" horiz-adv-x="817" 
d="M431 1554h-46l-266 287h59l229 -250h2l229 250h59zM749 1397h-316v-1351h316v-46h-316h-50h-316v46h316v1351h-316v46h316h50h316v-46z" />
    <glyph glyph-name="Idieresis.1" horiz-adv-x="817" 
d="M547 1556c-29 0 -54 25 -54 54s25 53 54 53c30 0 55 -24 55 -53s-25 -54 -55 -54zM269 1556c-30 0 -55 25 -55 54s25 53 55 53c29 0 54 -24 54 -53s-25 -54 -54 -54zM749 1397h-316v-1351h316v-46h-316h-50h-316v46h316v1351h-316v46h316h50h316v-46z" />
    <glyph glyph-name="Idieresisacute.1" horiz-adv-x="817" 
d="M637 1957l-221 -202h-56l214 202h63zM489 1609c0 29 25 53 54 53s53 -24 53 -53s-24 -52 -53 -52s-54 23 -54 52zM265 1557c-29 0 -53 23 -53 52s24 53 53 53s54 -24 54 -53s-25 -52 -54 -52zM749 1397h-316v-1351h316v-46h-316h-50h-316v46h316v1351h-316v46h316h50h316
v-46z" />
    <glyph glyph-name="Ibreve.1" horiz-adv-x="817" 
d="M620 1771h45c0 -134 -108 -217 -257 -217s-257 83 -257 217h45c0 -99 84 -175 212 -175s212 76 212 175zM749 1397h-316v-1351h316v-46h-316h-50h-316v46h316v1351h-316v46h316h50h316v-46z" />
    <glyph glyph-name="Idotbelow.1" horiz-adv-x="817" 
d="M408 -141c34 0 64 -29 64 -63c0 -35 -30 -64 -64 -64s-64 29 -64 64c0 34 30 63 64 63zM749 1397h-316v-1351h316v-46h-316h-50h-316v46h316v1351h-316v46h316h50h316v-46z" />
    <glyph glyph-name="Iinvertedbreve.1" horiz-adv-x="817" 
d="M665 1554h-45c0 99 -84 174 -212 174s-212 -75 -212 -174h-45c0 134 108 217 257 217s257 -83 257 -217zM749 1397h-316v-1351h316v-46h-316h-50h-316v46h316v1351h-316v46h316h50h316v-46z" />
    <glyph glyph-name="Imacron.1" horiz-adv-x="817" 
d="M690 1659v-43h-564v43h564zM749 1397h-316v-1351h316v-46h-316h-50h-316v46h316v1351h-316v46h316h50h316v-46z" />
    <glyph glyph-name="Itildebelow.1" horiz-adv-x="817" 
d="M174 -342h-45c0 119 46 201 142 201c131 0 170 -167 274 -167c69 0 97 65 97 158h45c0 -119 -46 -202 -142 -202c-131 0 -169 168 -274 168c-69 0 -97 -66 -97 -158zM749 1397h-316v-1351h316v-46h-316h-50h-316v46h316v1351h-316v46h316h50h316v-46z" />
    <glyph glyph-name="Ihookabove.1" horiz-adv-x="817" 
d="M441 1544l-28 32c49 22 80 63 80 106c0 54 -42 90 -106 90c-41 0 -87 -14 -109 -29v42c22 13 68 29 114 29c89 0 147 -52 147 -129c0 -59 -36 -112 -98 -141zM749 1397h-316v-1351h316v-46h-316h-50h-316v46h316v1351h-316v46h316h50h316v-46z" />
    <glyph glyph-name="Itilde.1" horiz-adv-x="817" 
d="M642 1754h45c0 -119 -46 -202 -142 -202c-131 0 -169 168 -274 168c-69 0 -97 -66 -97 -158h-45c0 119 46 201 142 201c131 0 170 -167 274 -167c69 0 97 65 97 158zM749 1397h-316v-1351h316v-46h-316h-50h-316v46h316v1351h-316v46h316h50h316v-46z" />
    <glyph glyph-name="Iogonek.1" horiz-adv-x="817" 
d="M650 -384c-112 0 -193 71 -193 169c0 87 73 169 181 211v4h-571v46h316v1351h-316v46h682v-46h-316v-1351h316v-43l-14 -5c-139 -46 -229 -121 -229 -208c0 -76 62 -128 147 -128c30 0 58 3 70 7v-43c-14 -5 -42 -10 -73 -10z" />
    <glyph glyph-name="J" unicode="J" horiz-adv-x="933" 
d="M41 315h49c9 -171 144 -289 328 -289c211 0 341 133 341 358v1059h50v-1062c0 -246 -148 -402 -391 -402c-213 0 -370 139 -377 336z" />
    <glyph glyph-name="Jcircumflex" unicode="&#x134;" horiz-adv-x="933" 
d="M41 315h49c9 -171 144 -289 328 -289c211 0 341 133 341 358v1059h50v-1062c0 -246 -148 -402 -391 -402c-213 0 -370 139 -377 336zM761 1841h46l266 -287h-59l-229 249h-2l-229 -249h-59z" />
    <glyph glyph-name="K" unicode="K" horiz-adv-x="1107" 
d="M174 0h-50v1443h50v-836h4l784 836h64l-594 -635l664 -808h-64l-636 773l-222 -237v-536z" />
    <glyph glyph-name="Kacute" unicode="&#x1e30;" horiz-adv-x="1107" 
d="M543 1554h-56l293 287h66zM174 0h-50v1443h50v-836h4l784 836h64l-594 -635l664 -808h-64l-636 773l-222 -237v-536z" />
    <glyph glyph-name="Kcaron" unicode="&#x1e8;" horiz-adv-x="1107" 
d="M174 0h-50v1443h50v-836h4l784 836h64l-594 -635l664 -808h-64l-636 773l-222 -237v-536zM502 1554l-266 287h59l229 -250h2l229 250h59l-266 -287h-46z" />
    <glyph glyph-name="Kdotbelow" unicode="&#x1e32;" horiz-adv-x="1107" 
d="M525 -268c-34 0 -64 29 -64 64c0 34 30 63 64 63s64 -29 64 -63c0 -35 -30 -64 -64 -64zM174 0h-50v1443h50v-836h4l784 836h64l-594 -635l664 -808h-64l-636 773l-222 -237v-536z" />
    <glyph glyph-name="Klinebelow" unicode="&#x1e34;" horiz-adv-x="1107" 
d="M174 0h-50v1443h50v-836h4l784 836h64l-594 -635l664 -808h-64l-636 773l-222 -237v-536zM807 -201v-43h-564v43h564z" />
    <glyph glyph-name="Kcommaaccent" unicode="&#x136;" horiz-adv-x="1107" 
d="M174 0h-50v1443h50v-836h4l784 836h64l-594 -635l664 -808h-64l-636 773l-222 -237v-536zM456 -480h-46l102 338h57z" />
    <glyph glyph-name="L" unicode="L" horiz-adv-x="1009" 
d="M949 47v-47h-825v1443h50v-1396h775z" />
    <glyph glyph-name="Lacute" unicode="&#x139;" horiz-adv-x="1009" 
d="M167 1554h-56l293 287h66zM949 47v-47h-825v1443h50v-1396h775z" />
    <glyph glyph-name="Lcircumflexbelow" unicode="&#x1e3c;" horiz-adv-x="1009" 
d="M949 47v-47h-825v1443h50v-1396h775zM514 -141h46l266 -287h-59l-229 249h-2l-229 -249h-59z" />
    <glyph glyph-name="Ldotbelow" unicode="&#x1e36;" horiz-adv-x="1009" 
d="M537 -268c-34 0 -64 29 -64 64c0 34 30 63 64 63s64 -29 64 -63c0 -35 -30 -64 -64 -64zM949 47v-47h-825v1443h50v-1396h775z" />
    <glyph glyph-name="Ldotbelowmacron" unicode="&#x1e38;" horiz-adv-x="1009" 
d="M537 -268c-34 0 -64 29 -64 64c0 34 30 63 64 63s64 -29 64 -63c0 -35 -30 -64 -64 -64zM949 47v-47h-825v1443h50v-1396h775zM431 1659v-43h-564v43h564z" />
    <glyph glyph-name="Llinebelow" unicode="&#x1e3a;" horiz-adv-x="1009" 
d="M819 -201v-43h-564v43h564zM949 47v-47h-825v1443h50v-1396h775z" />
    <glyph glyph-name="Lcommaaccent" unicode="&#x13b;" horiz-adv-x="1009" 
d="M468 -480h-46l102 338h57zM949 47v-47h-825v1443h50v-1396h775z" />
    <glyph glyph-name="Lcaron" unicode="&#x13d;" horiz-adv-x="1009" 
d="M408 1443h49l-12 -355h-37v355zM949 47v-47h-825v1443h50v-1396h775z" />
    <glyph glyph-name="Lslash" unicode="&#x141;" horiz-adv-x="1036" 
d="M201 47h775v-47h-825v721l-128 -71v47l128 71v675h50v-648l406 224v-47l-406 -224v-701z" />
    <glyph glyph-name="M" unicode="M" horiz-adv-x="1576" 
d="M1451 0h-49v1328h-4l-584 -1327h-53l-584 1327h-4v-1328h-49v1443h53l609 -1380h4l606 1380h55v-1443z" />
    <glyph glyph-name="Macute" unicode="&#x1e3e;" horiz-adv-x="1576" 
d="M807 1554h-56l293 287h66zM1451 0h-49v1328h-4l-584 -1327h-53l-584 1327h-4v-1328h-49v1443h53l609 -1380h4l606 1380h55v-1443z" />
    <glyph glyph-name="Mdotaccent" unicode="&#x1e40;" horiz-adv-x="1576" 
d="M789 1556c-34 0 -64 29 -64 64c0 34 30 63 64 63s64 -29 64 -63c0 -35 -30 -64 -64 -64zM1451 0h-49v1328h-4l-584 -1327h-53l-584 1327h-4v-1328h-49v1443h53l609 -1380h4l606 1380h55v-1443z" />
    <glyph glyph-name="Mdotbelow" unicode="&#x1e42;" horiz-adv-x="1576" 
d="M789 -268c-34 0 -64 29 -64 64c0 34 30 63 64 63s64 -29 64 -63c0 -35 -30 -64 -64 -64zM1451 0h-49v1328h-4l-584 -1327h-53l-584 1327h-4v-1328h-49v1443h53l609 -1380h4l606 1380h55v-1443z" />
    <glyph glyph-name="N" unicode="N" horiz-adv-x="1315" 
d="M174 0h-50v1443h55l958 -1348h4v1348h50v-1443h-46l-967 1359h-4v-1359z" />
    <glyph glyph-name="Ngrave" unicode="&#x1f8;" horiz-adv-x="1315" 
d="M639 1554l-303 287h66l294 -287h-57zM174 0h-50v1443h55l958 -1348h4v1348h50v-1443h-46l-967 1359h-4v-1359z" />
    <glyph glyph-name="Nacute" unicode="&#x143;" horiz-adv-x="1315" 
d="M675 1554h-56l293 287h66zM174 0h-50v1443h55l958 -1348h4v1348h50v-1443h-46l-967 1359h-4v-1359z" />
    <glyph glyph-name="Ntilde" unicode="&#xd1;" horiz-adv-x="1315" 
d="M794 1552c-131 0 -169 168 -274 168c-69 0 -97 -66 -97 -158h-45c0 119 46 201 142 201c131 0 170 -167 274 -167c69 0 97 65 97 158h45c0 -119 -46 -202 -142 -202zM174 0h-50v1443h55l958 -1348h4v1348h50v-1443h-46l-967 1359h-4v-1359z" />
    <glyph glyph-name="Ndotbelow" unicode="&#x1e46;" horiz-adv-x="1315" 
d="M657 -268c-34 0 -64 29 -64 64c0 34 30 63 64 63s64 -29 64 -63c0 -35 -30 -64 -64 -64zM174 0h-50v1443h55l958 -1348h4v1348h50v-1443h-46l-967 1359h-4v-1359z" />
    <glyph glyph-name="Ndotaccent" unicode="&#x1e44;" horiz-adv-x="1315" 
d="M657 1556c-34 0 -64 29 -64 64c0 34 30 63 64 63s64 -29 64 -63c0 -35 -30 -64 -64 -64zM174 0h-50v1443h55l958 -1348h4v1348h50v-1443h-46l-967 1359h-4v-1359z" />
    <glyph glyph-name="Ncaron" unicode="&#x147;" horiz-adv-x="1315" 
d="M634 1554l-266 287h59l229 -250h2l229 250h59l-266 -287h-46zM174 0h-50v1443h55l958 -1348h4v1348h50v-1443h-46l-967 1359h-4v-1359z" />
    <glyph glyph-name="Ncircumflexbelow" unicode="&#x1e4a;" horiz-adv-x="1315" 
d="M174 0h-50v1443h55l958 -1348h4v1348h50v-1443h-46l-967 1359h-4v-1359zM634 -141h46l266 -287h-59l-229 249h-2l-229 -249h-59z" />
    <glyph glyph-name="Nlinebelow" unicode="&#x1e48;" horiz-adv-x="1315" 
d="M939 -201v-43h-564v43h564zM174 0h-50v1443h55l958 -1348h4v1348h50v-1443h-46l-967 1359h-4v-1359z" />
    <glyph glyph-name="Ncommaaccent" unicode="&#x145;" horiz-adv-x="1315" 
d="M588 -480h-46l102 338h57zM174 0h-50v1443h55l958 -1348h4v1348h50v-1443h-46l-967 1359h-4v-1359z" />
    <glyph glyph-name="O" unicode="O" horiz-adv-x="1398" 
d="M699 1463c388 0 636 -288 636 -741c0 -455 -247 -742 -636 -742c-390 0 -636 287 -636 742c0 453 247 741 636 741zM699 1416c-358 0 -586 -270 -586 -694s228 -695 586 -695c357 0 586 271 586 695s-229 694 -586 694z" />
    <glyph glyph-name="Odieresis" unicode="&#xd6;" horiz-adv-x="1398" 
d="M560 1556c-30 0 -55 25 -55 54s25 53 55 53c29 0 54 -24 54 -53s-25 -54 -54 -54zM838 1556c-29 0 -54 25 -54 54s25 53 54 53c30 0 55 -24 55 -53s-25 -54 -55 -54zM699 1463c388 0 636 -288 636 -741c0 -455 -247 -742 -636 -742c-390 0 -636 287 -636 742
c0 453 247 741 636 741zM699 1416c-358 0 -586 -270 -586 -694s228 -695 586 -695c357 0 586 271 586 695s-229 694 -586 694z" />
    <glyph glyph-name="Oslash" unicode="&#xd8;" horiz-adv-x="1398" 
d="M1136 1216l-818 -1049c98 -90 228 -140 381 -140c357 0 586 271 586 695c0 205 -53 374 -149 494zM287 199l820 1050c-101 107 -240 167 -408 167c-358 0 -586 -270 -586 -694c0 -222 63 -402 174 -523zM1325 1458l-157 -202c107 -128 167 -311 167 -534
c0 -455 -247 -742 -636 -742c-166 0 -306 52 -412 147l-173 -222l-37 25l178 228c-123 129 -192 323 -192 564c0 453 247 741 636 741c180 0 330 -62 439 -174l151 194z" />
    <glyph glyph-name="Otilde" unicode="&#xd5;" horiz-adv-x="1398" 
d="M699 1463c388 0 636 -288 636 -741c0 -455 -247 -742 -636 -742c-390 0 -636 287 -636 742c0 453 247 741 636 741zM699 1416c-358 0 -586 -270 -586 -694s228 -695 586 -695c357 0 586 271 586 695s-229 694 -586 694zM836 1552c-131 0 -169 168 -274 168
c-69 0 -97 -66 -97 -158h-45c0 119 46 201 142 201c131 0 170 -167 274 -167c69 0 97 65 97 158h45c0 -119 -46 -202 -142 -202z" />
    <glyph glyph-name="Oacute" unicode="&#xd3;" horiz-adv-x="1398" 
d="M717 1554h-56l293 287h66zM699 1463c388 0 636 -288 636 -741c0 -455 -247 -742 -636 -742c-390 0 -636 287 -636 742c0 453 247 741 636 741zM699 1416c-358 0 -586 -270 -586 -694s228 -695 586 -695c357 0 586 271 586 695s-229 694 -586 694z" />
    <glyph glyph-name="Ocircumflex" unicode="&#xd4;" horiz-adv-x="1398" 
d="M676 1841h46l266 -287h-59l-229 249h-2l-229 -249h-59zM699 1463c388 0 636 -288 636 -741c0 -455 -247 -742 -636 -742c-390 0 -636 287 -636 742c0 453 247 741 636 741zM699 1416c-358 0 -586 -270 -586 -694s228 -695 586 -695c357 0 586 271 586 695
s-229 694 -586 694z" />
    <glyph glyph-name="Ograve" unicode="&#xd2;" horiz-adv-x="1398" 
d="M681 1554l-303 287h66l294 -287h-57zM699 1463c388 0 636 -288 636 -741c0 -455 -247 -742 -636 -742c-390 0 -636 287 -636 742c0 453 247 741 636 741zM699 1416c-358 0 -586 -270 -586 -694s228 -695 586 -695c357 0 586 271 586 695s-229 694 -586 694z" />
    <glyph glyph-name="Ocircumflexhookabove" unicode="&#x1ed4;" horiz-adv-x="1398" 
d="M676 1759h46l265 -204h-66l-220 169h-3l-220 -169h-67zM822 1890v41c21 15 60 26 97 26c80 0 136 -48 136 -119c0 -54 -34 -99 -90 -126l-27 30c46 23 72 55 72 94c0 48 -38 80 -95 80c-32 0 -76 -12 -93 -26zM699 1463c388 0 636 -288 636 -741
c0 -455 -247 -742 -636 -742c-390 0 -636 287 -636 742c0 453 247 741 636 741zM699 1416c-358 0 -586 -270 -586 -694s228 -695 586 -695c357 0 586 271 586 695s-229 694 -586 694z" />
    <glyph glyph-name="Ocircumflexgrave" unicode="&#x1ed2;" horiz-adv-x="1398" 
d="M676 1759h46l265 -204h-67l-220 169h-2l-220 -169h-67zM1046 1755h-56l-221 202h63zM699 1463c388 0 636 -288 636 -741c0 -455 -247 -742 -636 -742c-390 0 -636 287 -636 742c0 453 247 741 636 741zM699 1416c-358 0 -586 -270 -586 -694s228 -695 586 -695
c357 0 586 271 586 695s-229 694 -586 694z" />
    <glyph glyph-name="Odotbelow" unicode="&#x1ecc;" horiz-adv-x="1398" 
d="M699 -268c-34 0 -64 29 -64 64c0 34 30 63 64 63s64 -29 64 -63c0 -35 -30 -64 -64 -64zM699 1463c388 0 636 -288 636 -741c0 -455 -247 -742 -636 -742c-390 0 -636 287 -636 742c0 453 247 741 636 741zM699 1416c-358 0 -586 -270 -586 -694s228 -695 586 -695
c357 0 586 271 586 695s-229 694 -586 694z" />
    <glyph glyph-name="Odblgrave" unicode="&#x20c;" horiz-adv-x="1398" 
d="M789 1554l-303 287h66l293 -287h-56zM535 1554l-303 287h65l294 -287h-56zM699 1463c388 0 636 -288 636 -741c0 -455 -247 -742 -636 -742c-390 0 -636 287 -636 742c0 453 247 741 636 741zM699 1416c-358 0 -586 -270 -586 -694s228 -695 586 -695
c357 0 586 271 586 695s-229 694 -586 694z" />
    <glyph glyph-name="Otildeacute" unicode="&#x1e4c;" horiz-adv-x="1398" 
d="M699 1463c388 0 636 -288 636 -741c0 -455 -247 -742 -636 -742c-390 0 -636 287 -636 742c0 453 247 741 636 741zM699 1416c-358 0 -586 -270 -586 -694s228 -695 586 -695c357 0 586 271 586 695s-229 694 -586 694zM818 1552c-123 0 -141 149 -237 149
c-65 0 -94 -56 -94 -131h-45c0 101 49 174 138 174c123 0 141 -149 238 -149c64 0 92 55 92 131h45c0 -100 -48 -174 -137 -174zM711 1792l158 165h63l-167 -165h-54z" />
    <glyph glyph-name="Omacronacute" unicode="&#x1e52;" horiz-adv-x="1398" 
d="M981 1616h-564v43h564v-43zM655 1755l214 202h63l-221 -202h-56zM699 1463c388 0 636 -288 636 -741c0 -455 -247 -742 -636 -742c-390 0 -636 287 -636 742c0 453 247 741 636 741zM699 1416c-358 0 -586 -270 -586 -694s228 -695 586 -695c357 0 586 271 586 695
s-229 694 -586 694z" />
    <glyph glyph-name="Ocircumflextilde" unicode="&#x1ed6;" horiz-adv-x="1398" 
d="M817 1822c-123 0 -138 148 -235 148c-65 0 -94 -55 -94 -129h-45c0 99 49 171 139 171c123 0 139 -148 235 -148c65 0 93 55 94 129h44c0 -98 -48 -171 -138 -171zM676 1758h46l265 -203h-67l-220 168h-2l-220 -168h-67zM699 1463c388 0 636 -288 636 -741
c0 -455 -247 -742 -636 -742c-390 0 -636 287 -636 742c0 453 247 741 636 741zM699 1416c-358 0 -586 -270 -586 -694s228 -695 586 -695c357 0 586 271 586 695s-229 694 -586 694z" />
    <glyph glyph-name="Odotaccentmacron" unicode="&#x230;" horiz-adv-x="1398" 
d="M699 1555c-34 0 -64 29 -64 63c0 35 30 63 64 63s64 -28 64 -63c0 -34 -30 -63 -64 -63zM981 1888v-42h-564v42h564zM699 1463c388 0 636 -288 636 -741c0 -455 -247 -742 -636 -742c-390 0 -636 287 -636 742c0 453 247 741 636 741zM699 1416
c-358 0 -586 -270 -586 -694s228 -695 586 -695c357 0 586 271 586 695s-229 694 -586 694z" />
    <glyph glyph-name="Omacrongrave" unicode="&#x1e50;" horiz-adv-x="1398" 
d="M417 1616v43h564v-43h-564zM743 1755h-56l-221 202h63zM699 1463c388 0 636 -288 636 -741c0 -455 -247 -742 -636 -742c-390 0 -636 287 -636 742c0 453 247 741 636 741zM699 1416c-358 0 -586 -270 -586 -694s228 -695 586 -695c357 0 586 271 586 695
s-229 694 -586 694z" />
    <glyph glyph-name="Ocaron" unicode="&#x1d1;" horiz-adv-x="1398" 
d="M676 1554l-266 287h59l229 -250h2l229 250h59l-266 -287h-46zM699 1463c388 0 636 -288 636 -741c0 -455 -247 -742 -636 -742c-390 0 -636 287 -636 742c0 453 247 741 636 741zM699 1416c-358 0 -586 -270 -586 -694s228 -695 586 -695c357 0 586 271 586 695
s-229 694 -586 694z" />
    <glyph glyph-name="Oslashacute" unicode="&#x1fe;" horiz-adv-x="1398" 
d="M1065 1841l-303 -287h-56l293 287h66zM1136 1216l-818 -1049c98 -90 228 -140 381 -140c357 0 586 271 586 695c0 205 -53 374 -149 494zM287 199l820 1050c-101 107 -240 167 -408 167c-358 0 -586 -270 -586 -694c0 -222 63 -402 174 -523zM1325 1458l-157 -202
c107 -128 167 -311 167 -534c0 -455 -247 -742 -636 -742c-166 0 -306 52 -412 147l-173 -222l-37 25l178 228c-123 129 -192 323 -192 564c0 453 247 741 636 741c180 0 330 -62 439 -174l151 194z" />
    <glyph glyph-name="Ohungarumlaut" unicode="&#x150;" horiz-adv-x="1398" 
d="M863 1554h-56l294 287h65zM609 1554h-56l293 287h66zM699 1463c388 0 636 -288 636 -741c0 -455 -247 -742 -636 -742c-390 0 -636 287 -636 742c0 453 247 741 636 741zM699 1416c-358 0 -586 -270 -586 -694s228 -695 586 -695c357 0 586 271 586 695
s-229 694 -586 694z" />
    <glyph glyph-name="Obreve" unicode="&#x14e;" horiz-adv-x="1398" 
d="M699 1463c388 0 636 -288 636 -741c0 -455 -247 -742 -636 -742c-390 0 -636 287 -636 742c0 453 247 741 636 741zM699 1416c-358 0 -586 -270 -586 -694s228 -695 586 -695c357 0 586 271 586 695s-229 694 -586 694zM442 1771h45c0 -99 84 -175 212 -175
s212 76 212 175h45c0 -134 -108 -217 -257 -217s-257 83 -257 217z" />
    <glyph glyph-name="Oinvertedbreve" unicode="&#x20e;" horiz-adv-x="1398" 
d="M442 1554c0 134 108 217 257 217s257 -83 257 -217h-45c0 99 -84 174 -212 174s-212 -75 -212 -174h-45zM699 1463c388 0 636 -288 636 -741c0 -455 -247 -742 -636 -742c-390 0 -636 287 -636 742c0 453 247 741 636 741zM699 1416c-358 0 -586 -270 -586 -694
s228 -695 586 -695c357 0 586 271 586 695s-229 694 -586 694z" />
    <glyph glyph-name="Ohookabove" unicode="&#x1ece;" horiz-adv-x="1398" 
d="M562 1743v42c22 13 68 29 114 29c89 0 147 -52 147 -129c0 -59 -36 -112 -98 -141l-28 32c49 22 80 63 80 106c0 54 -42 90 -106 90c-41 0 -87 -14 -109 -29zM699 1463c388 0 636 -288 636 -741c0 -455 -247 -742 -636 -742c-390 0 -636 287 -636 742
c0 453 247 741 636 741zM699 1416c-358 0 -586 -270 -586 -694s228 -695 586 -695c357 0 586 271 586 695s-229 694 -586 694z" />
    <glyph glyph-name="Odieresismacron" unicode="&#x22a;" horiz-adv-x="1398" 
d="M699 1463c388 0 636 -288 636 -741c0 -455 -247 -742 -636 -742c-390 0 -636 287 -636 742c0 453 247 741 636 741zM699 1416c-358 0 -586 -270 -586 -694s228 -695 586 -695c357 0 586 271 586 695s-229 694 -586 694zM560 1662c29 0 54 -24 54 -53s-25 -52 -54 -52
s-53 23 -53 52s24 53 53 53zM417 1888h564v-42h-564v42zM838 1662c29 0 53 -24 53 -53s-24 -52 -53 -52s-54 23 -54 52s25 53 54 53z" />
    <glyph glyph-name="Otildemacron" unicode="&#x22c;" horiz-adv-x="1398" 
d="M817 1552c-122 0 -140 149 -236 149c-65 0 -94 -56 -94 -131h-45c0 101 48 174 138 174c123 0 141 -149 237 -149c65 0 93 55 93 131h45c0 -100 -48 -174 -138 -174zM981 1888v-42h-564v42h564zM699 1463c388 0 636 -288 636 -741c0 -455 -247 -742 -636 -742
c-390 0 -636 287 -636 742c0 453 247 741 636 741zM699 1416c-358 0 -586 -270 -586 -694s228 -695 586 -695c357 0 586 271 586 695s-229 694 -586 694z" />
    <glyph glyph-name="Odotaccent" unicode="&#x22e;" horiz-adv-x="1398" 
d="M699 1556c-34 0 -64 29 -64 64c0 34 30 63 64 63s64 -29 64 -63c0 -35 -30 -64 -64 -64zM699 1463c388 0 636 -288 636 -741c0 -455 -247 -742 -636 -742c-390 0 -636 287 -636 742c0 453 247 741 636 741zM699 1416c-358 0 -586 -270 -586 -694s228 -695 586 -695
c357 0 586 271 586 695s-229 694 -586 694z" />
    <glyph glyph-name="Ocircumflexdotbelow" unicode="&#x1ed8;" horiz-adv-x="1398" 
d="M699 -268c-34 0 -64 29 -64 64c0 34 30 63 64 63s64 -29 64 -63c0 -35 -30 -64 -64 -64zM676 1841h46l266 -287h-59l-229 249h-2l-229 -249h-59zM699 1463c388 0 636 -288 636 -741c0 -455 -247 -742 -636 -742c-390 0 -636 287 -636 742c0 453 247 741 636 741z
M699 1416c-358 0 -586 -270 -586 -694s228 -695 586 -695c357 0 586 271 586 695s-229 694 -586 694z" />
    <glyph glyph-name="Ocircumflexacute" unicode="&#x1ed0;" horiz-adv-x="1398" 
d="M676 1759h46l265 -204h-66l-220 169h-3l-220 -169h-67zM875 1755l214 202h64l-222 -202h-56zM699 1463c388 0 636 -288 636 -741c0 -455 -247 -742 -636 -742c-390 0 -636 287 -636 742c0 453 247 741 636 741zM699 1416c-358 0 -586 -270 -586 -694s228 -695 586 -695
c357 0 586 271 586 695s-229 694 -586 694z" />
    <glyph glyph-name="Otildedieresis" unicode="&#x1e4e;" horiz-adv-x="1398" 
d="M818 1552c-123 0 -141 149 -237 149c-65 0 -93 -56 -93 -131h-46c0 101 49 174 138 174c124 0 141 -149 238 -149c64 0 92 55 92 131h46c0 -100 -49 -174 -138 -174zM560 1949c29 0 54 -24 54 -53c0 -28 -25 -52 -54 -52s-53 24 -53 52c0 29 24 53 53 53zM838 1949
c29 0 53 -24 53 -53c0 -28 -24 -52 -53 -52s-54 24 -54 52c0 29 25 53 54 53zM699 1463c388 0 636 -288 636 -741c0 -455 -247 -742 -636 -742c-390 0 -636 287 -636 742c0 453 247 741 636 741zM699 1416c-358 0 -586 -270 -586 -694s228 -695 586 -695
c357 0 586 271 586 695s-229 694 -586 694z" />
    <glyph glyph-name="Omacron" unicode="&#x14c;" horiz-adv-x="1398" 
d="M699 1463c388 0 636 -288 636 -741c0 -455 -247 -742 -636 -742c-390 0 -636 287 -636 742c0 453 247 741 636 741zM699 1416c-358 0 -586 -270 -586 -694s228 -695 586 -695c357 0 586 271 586 695s-229 694 -586 694zM981 1659v-43h-564v43h564z" />
    <glyph glyph-name="Oogonek" unicode="&#x1ea;" horiz-adv-x="1398" 
d="M933 -384c-113 0 -193 70 -193 169c0 85 52 162 154 227v4c-57 -24 -122 -36 -195 -36c-390 0 -636 287 -636 742c0 453 247 741 636 741c388 0 636 -288 636 -741c0 -299 -110 -532 -313 -662c-171 -108 -233 -180 -233 -270c0 -75 61 -128 146 -128c29 0 58 3 70 7v-43
c-16 -6 -45 -10 -72 -10zM699 1416c-358 0 -586 -270 -586 -694s228 -695 586 -695c357 0 586 271 586 695s-229 694 -586 694z" />
    <glyph glyph-name="Oogonekmacron" unicode="&#x1ec;" horiz-adv-x="1397" 
d="M933 -384c-113 0 -193 70 -193 169c0 85 52 162 154 227v4c-57 -24 -122 -36 -195 -36c-390 0 -636 287 -636 742c0 453 247 741 636 741c388 0 636 -288 636 -741c0 -299 -110 -532 -313 -662c-171 -108 -233 -180 -233 -270c0 -75 61 -128 146 -128c29 0 58 3 70 7v-43
c-16 -6 -45 -10 -72 -10zM699 1416c-358 0 -586 -270 -586 -694s228 -695 586 -695c357 0 586 271 586 695s-229 694 -586 694zM981 1659v-43h-564v43h564z" />
    <glyph glyph-name="Ohorn" unicode="&#x1a0;" horiz-adv-x="1398" 
d="M699 -20c-390 0 -636 287 -636 742c0 453 247 741 636 741c131 0 190 -21 378 -21c156 0 202 30 202 134v108h48v-119c0 -122 -66 -168 -242 -168h-97v-4c222 -111 347 -353 347 -671c0 -455 -247 -742 -636 -742zM699 27c357 0 586 271 586 695s-229 694 -586 694
c-358 0 -586 -270 -586 -694s228 -695 586 -695z" />
    <glyph glyph-name="Ohorndotbelow" unicode="&#x1ee2;" horiz-adv-x="1398" 
d="M699 -268c-34 0 -64 29 -64 64c0 34 30 63 64 63s64 -29 64 -63c0 -35 -30 -64 -64 -64zM699 -20c-390 0 -636 287 -636 742c0 453 247 741 636 741c131 0 190 -21 378 -21c156 0 202 30 202 134v108h48v-119c0 -122 -66 -168 -242 -168h-97v-4
c222 -111 347 -353 347 -671c0 -455 -247 -742 -636 -742zM699 27c357 0 586 271 586 695s-229 694 -586 694c-358 0 -586 -270 -586 -694s228 -695 586 -695z" />
    <glyph glyph-name="Ohornhookabove" unicode="&#x1ede;" horiz-adv-x="1398" 
d="M562 1743v42c22 13 68 29 114 29c89 0 147 -52 147 -129c0 -59 -36 -112 -98 -141l-28 32c49 22 80 63 80 106c0 54 -42 90 -106 90c-41 0 -87 -14 -109 -29zM699 -20c-390 0 -636 287 -636 742c0 453 247 741 636 741c131 0 190 -21 378 -21c156 0 202 30 202 134v108
h48v-119c0 -122 -66 -168 -242 -168h-97v-4c222 -111 347 -353 347 -671c0 -455 -247 -742 -636 -742zM699 27c357 0 586 271 586 695s-229 694 -586 694c-358 0 -586 -270 -586 -694s228 -695 586 -695z" />
    <glyph glyph-name="Ohorntilde" unicode="&#x1ee0;" horiz-adv-x="1398" 
d="M699 -20c-390 0 -636 287 -636 742c0 453 247 741 636 741c131 0 190 -21 378 -21c156 0 202 30 202 134v108h48v-119c0 -122 -66 -168 -242 -168h-97v-4c222 -111 347 -353 347 -671c0 -455 -247 -742 -636 -742zM699 27c357 0 586 271 586 695s-229 694 -586 694
c-358 0 -586 -270 -586 -694s228 -695 586 -695zM836 1552c-131 0 -169 168 -274 168c-69 0 -97 -66 -97 -158h-45c0 119 46 201 142 201c131 0 170 -167 274 -167c69 0 97 65 97 158h45c0 -119 -46 -202 -142 -202z" />
    <glyph glyph-name="Ohorngrave" unicode="&#x1edc;" horiz-adv-x="1398" 
d="M681 1554l-303 287h66l294 -287h-57zM699 -20c-390 0 -636 287 -636 742c0 453 247 741 636 741c131 0 190 -21 378 -21c156 0 202 30 202 134v108h48v-119c0 -122 -66 -168 -242 -168h-97v-4c222 -111 347 -353 347 -671c0 -455 -247 -742 -636 -742zM699 27
c357 0 586 271 586 695s-229 694 -586 694c-358 0 -586 -270 -586 -694s228 -695 586 -695z" />
    <glyph glyph-name="Ohornacute" unicode="&#x1eda;" horiz-adv-x="1398" 
d="M717 1554h-56l293 287h66zM699 -20c-390 0 -636 287 -636 742c0 453 247 741 636 741c131 0 190 -21 378 -21c156 0 202 30 202 134v108h48v-119c0 -122 -66 -168 -242 -168h-97v-4c222 -111 347 -353 347 -671c0 -455 -247 -742 -636 -742zM699 27
c357 0 586 271 586 695s-229 694 -586 694c-358 0 -586 -270 -586 -694s228 -695 586 -695z" />
    <glyph glyph-name="P" unicode="P" horiz-adv-x="1085" 
d="M124 1443h445c284 0 464 -164 464 -421s-181 -421 -464 -421h-395v-601h-50v1443zM174 1396v-748h392c255 0 417 143 417 374c0 232 -161 374 -417 374h-392z" />
    <glyph glyph-name="Pdotaccent" unicode="&#x1e56;" horiz-adv-x="1085" 
d="M124 1443h445c284 0 464 -164 464 -421s-181 -421 -464 -421h-395v-601h-50v1443zM174 1396v-748h392c255 0 417 143 417 374c0 232 -161 374 -417 374h-392zM490 1556c-34 0 -64 29 -64 64c0 34 30 63 64 63s64 -29 64 -63c0 -35 -30 -64 -64 -64z" />
    <glyph glyph-name="Pacute" unicode="&#x1e54;" horiz-adv-x="1085" 
d="M508 1554h-56l293 287h66zM124 1443h445c284 0 464 -164 464 -421s-181 -421 -464 -421h-395v-601h-50v1443zM174 1396v-748h392c255 0 417 143 417 374c0 232 -161 374 -417 374h-392z" />
    <glyph glyph-name="Q" unicode="Q" horiz-adv-x="1398" 
d="M699 -20c-391 0 -636 287 -636 742c0 453 247 741 636 741c388 0 636 -288 636 -741c0 -300 -110 -533 -303 -654l183 -250h-59l-166 227c-86 -43 -183 -65 -291 -65zM699 27c96 0 186 20 263 58l-201 275h59l183 -252c181 112 281 331 281 614c0 423 -229 694 -585 694
c-358 0 -586 -271 -586 -694c0 -424 229 -695 586 -695z" />
    <glyph glyph-name="R" unicode="R" horiz-adv-x="1124" 
d="M174 1396v-720h396c258 0 415 137 415 360c0 227 -157 360 -415 360h-396zM174 630v-630h-50v1443h447c288 0 464 -154 464 -407c0 -210 -129 -358 -347 -396l382 -640h-58l-376 632c-17 -1 -46 -2 -66 -2h-396z" />
    <glyph glyph-name="Rcaron" unicode="&#x158;" horiz-adv-x="1124" 
d="M174 1396v-720h396c258 0 415 137 415 360c0 227 -157 360 -415 360h-396zM174 630v-630h-50v1443h447c288 0 464 -154 464 -407c0 -210 -129 -358 -347 -396l382 -640h-58l-376 632c-17 -1 -46 -2 -66 -2h-396zM460 1554l-266 287h59l229 -250h2l229 250h59l-266 -287
h-46z" />
    <glyph glyph-name="Rlinebelow" unicode="&#x1e5e;" horiz-adv-x="1124" 
d="M174 1396v-720h396c258 0 415 137 415 360c0 227 -157 360 -415 360h-396zM174 630v-630h-50v1443h447c288 0 464 -154 464 -407c0 -210 -129 -358 -347 -396l382 -640h-58l-376 632c-17 -1 -46 -2 -66 -2h-396zM765 -201v-43h-564v43h564z" />
    <glyph glyph-name="Rdotbelowmacron" unicode="&#x1e5c;" horiz-adv-x="1124" 
d="M483 -268c-34 0 -64 29 -64 64c0 34 30 63 64 63s64 -29 64 -63c0 -35 -30 -64 -64 -64zM174 1396v-720h396c258 0 415 137 415 360c0 227 -157 360 -415 360h-396zM174 630v-630h-50v1443h447c288 0 464 -154 464 -407c0 -210 -129 -358 -347 -396l382 -640h-58
l-376 632c-17 -1 -46 -2 -66 -2h-396zM765 1659v-43h-564v43h564z" />
    <glyph glyph-name="Rdblgrave" unicode="&#x210;" horiz-adv-x="1124" 
d="M573 1554l-303 287h66l293 -287h-56zM319 1554l-303 287h65l294 -287h-56zM174 1396v-720h396c258 0 415 137 415 360c0 227 -157 360 -415 360h-396zM174 630v-630h-50v1443h447c288 0 464 -154 464 -407c0 -210 -129 -358 -347 -396l382 -640h-58l-376 632
c-17 -1 -46 -2 -66 -2h-396z" />
    <glyph glyph-name="Rinvertedbreve" unicode="&#x212;" horiz-adv-x="1124" 
d="M174 1396v-720h396c258 0 415 137 415 360c0 227 -157 360 -415 360h-396zM174 630v-630h-50v1443h447c288 0 464 -154 464 -407c0 -210 -129 -358 -347 -396l382 -640h-58l-376 632c-17 -1 -46 -2 -66 -2h-396zM226 1554c0 134 108 217 257 217s257 -83 257 -217h-45
c0 99 -84 174 -212 174s-212 -75 -212 -174h-45z" />
    <glyph glyph-name="Racute" unicode="&#x154;" horiz-adv-x="1124" 
d="M501 1554h-56l293 287h66zM174 1396v-720h396c258 0 415 137 415 360c0 227 -157 360 -415 360h-396zM174 630v-630h-50v1443h447c288 0 464 -154 464 -407c0 -210 -129 -358 -347 -396l382 -640h-58l-376 632c-17 -1 -46 -2 -66 -2h-396z" />
    <glyph glyph-name="Rdotbelow" unicode="&#x1e5a;" horiz-adv-x="1124" 
d="M483 -268c-34 0 -64 29 -64 64c0 34 30 63 64 63s64 -29 64 -63c0 -35 -30 -64 -64 -64zM174 1396v-720h396c258 0 415 137 415 360c0 227 -157 360 -415 360h-396zM174 630v-630h-50v1443h447c288 0 464 -154 464 -407c0 -210 -129 -358 -347 -396l382 -640h-58
l-376 632c-17 -1 -46 -2 -66 -2h-396z" />
    <glyph glyph-name="Rdotaccent" unicode="&#x1e58;" horiz-adv-x="1124" 
d="M483 1556c-34 0 -64 29 -64 64c0 34 30 63 64 63s64 -29 64 -63c0 -35 -30 -64 -64 -64zM174 1396v-720h396c258 0 415 137 415 360c0 227 -157 360 -415 360h-396zM174 630v-630h-50v1443h447c288 0 464 -154 464 -407c0 -210 -129 -358 -347 -396l382 -640h-58
l-376 632c-17 -1 -46 -2 -66 -2h-396z" />
    <glyph glyph-name="Rcommaaccent" unicode="&#x156;" horiz-adv-x="1124" 
d="M174 1396v-720h396c258 0 415 137 415 360c0 227 -157 360 -415 360h-396zM174 630v-630h-50v1443h447c288 0 464 -154 464 -407c0 -210 -129 -358 -347 -396l382 -640h-58l-376 632c-17 -1 -46 -2 -66 -2h-396zM414 -480h-46l102 338h57z" />
    <glyph glyph-name="S" unicode="S" horiz-adv-x="1114" 
d="M52 382h50c11 -208 205 -356 469 -356c260 0 439 150 439 351c0 161 -107 250 -362 314l-167 42c-268 67 -389 173 -389 349c0 221 210 381 461 381c268 0 470 -157 479 -361h-50c-9 180 -191 315 -429 315c-226 0 -411 -140 -411 -335c0 -154 112 -242 355 -302l165 -41
c273 -68 398 -173 398 -360c0 -231 -198 -399 -491 -399s-506 168 -517 402z" />
    <glyph glyph-name="Scaron" unicode="&#x160;" horiz-adv-x="1114" 
d="M52 382h50c11 -208 205 -356 469 -356c260 0 439 150 439 351c0 161 -107 250 -362 314l-167 42c-268 67 -389 173 -389 349c0 221 210 381 461 381c268 0 470 -157 479 -361h-50c-9 180 -191 315 -429 315c-226 0 -411 -140 -411 -335c0 -154 112 -242 355 -302l165 -41
c273 -68 398 -173 398 -360c0 -231 -198 -399 -491 -399s-506 168 -517 402zM530 1554l-266 287h59l229 -250h2l229 250h59l-266 -287h-46z" />
    <glyph glyph-name="Scedilla" unicode="&#x15e;" horiz-adv-x="1114" 
d="M497 780l165 -41c273 -68 398 -173 398 -360c0 -227 -191 -393 -475 -399l-51 -121c130 0 206 -56 206 -153c0 -99 -88 -167 -216 -168c-43 0 -95 7 -122 17v43c29 -11 75 -17 121 -17c96 0 171 55 171 124c0 72 -59 113 -164 113h-46v33l54 130
c-277 11 -475 175 -486 401h50c11 -208 205 -356 469 -356c260 0 439 150 439 351c0 161 -107 250 -362 314l-167 42c-268 67 -389 173 -389 349c0 221 210 381 461 381c268 0 470 -157 479 -361h-50c-9 180 -191 315 -429 315c-226 0 -411 -140 -411 -335
c0 -154 112 -242 355 -302z" />
    <glyph glyph-name="Sdotaccent" unicode="&#x1e60;" horiz-adv-x="1114" 
d="M553 1556c-34 0 -64 29 -64 64c0 34 30 63 64 63s64 -29 64 -63c0 -35 -30 -64 -64 -64zM52 382h50c11 -208 205 -356 469 -356c260 0 439 150 439 351c0 161 -107 250 -362 314l-167 42c-268 67 -389 173 -389 349c0 221 210 381 461 381c268 0 470 -157 479 -361h-50
c-9 180 -191 315 -429 315c-226 0 -411 -140 -411 -335c0 -154 112 -242 355 -302l165 -41c273 -68 398 -173 398 -360c0 -231 -198 -399 -491 -399s-506 168 -517 402z" />
    <glyph glyph-name="Sdotbelow" unicode="&#x1e62;" horiz-adv-x="1114" 
d="M570 -268c-34 0 -64 29 -64 64c0 34 30 63 64 63s64 -29 64 -63c0 -35 -30 -64 -64 -64zM52 382h50c11 -208 205 -356 469 -356c260 0 439 150 439 351c0 161 -107 250 -362 314l-167 42c-268 67 -389 173 -389 349c0 221 210 381 461 381c268 0 470 -157 479 -361h-50
c-9 180 -191 315 -429 315c-226 0 -411 -140 -411 -335c0 -154 112 -242 355 -302l165 -41c273 -68 398 -173 398 -360c0 -231 -198 -399 -491 -399s-506 168 -517 402z" />
    <glyph glyph-name="Scommaaccent" unicode="&#x218;" horiz-adv-x="1114" 
d="M52 382h50c11 -208 205 -356 469 -356c260 0 439 150 439 351c0 161 -107 250 -362 314l-167 42c-268 67 -389 173 -389 349c0 221 210 381 461 381c268 0 470 -157 479 -361h-50c-9 180 -191 315 -429 315c-226 0 -411 -140 -411 -335c0 -154 112 -242 355 -302l165 -41
c273 -68 398 -173 398 -360c0 -231 -198 -399 -491 -399s-506 168 -517 402zM501 -480h-46l102 338h57z" />
    <glyph glyph-name="Sdotbelowdotaccent" unicode="&#x1e68;" horiz-adv-x="1114" 
d="M570 -268c-34 0 -64 29 -64 64c0 34 30 63 64 63s64 -29 64 -63c0 -35 -30 -64 -64 -64zM52 382h50c11 -208 205 -356 469 -356c260 0 439 150 439 351c0 161 -107 250 -362 314l-167 42c-268 67 -389 173 -389 349c0 221 210 381 461 381c268 0 470 -157 479 -361h-50
c-9 180 -191 315 -429 315c-226 0 -411 -140 -411 -335c0 -154 112 -242 355 -302l165 -41c273 -68 398 -173 398 -360c0 -231 -198 -399 -491 -399s-506 168 -517 402zM553 1556c-34 0 -64 29 -64 64c0 34 30 63 64 63s64 -29 64 -63c0 -35 -30 -64 -64 -64z" />
    <glyph glyph-name="Scarondotaccent" unicode="&#x1e66;" horiz-adv-x="1114" 
d="M530 1555l-265 204h67l220 -168h2l220 168h67l-265 -204h-46zM553 1832c-34 0 -63 29 -63 63s29 62 63 62s63 -28 63 -62s-29 -63 -63 -63zM52 382h50c11 -208 205 -356 469 -356c260 0 439 150 439 351c0 161 -107 250 -362 314l-167 42c-268 67 -389 173 -389 349
c0 221 210 381 461 381c268 0 470 -157 479 -361h-50c-9 180 -191 315 -429 315c-226 0 -411 -140 -411 -335c0 -154 112 -242 355 -302l165 -41c273 -68 398 -173 398 -360c0 -231 -198 -399 -491 -399s-506 168 -517 402z" />
    <glyph glyph-name="Scircumflex" unicode="&#x15c;" horiz-adv-x="1114" 
d="M52 382h50c11 -208 205 -356 469 -356c260 0 439 150 439 351c0 161 -107 250 -362 314l-167 42c-268 67 -389 173 -389 349c0 221 210 381 461 381c268 0 470 -157 479 -361h-50c-9 180 -191 315 -429 315c-226 0 -411 -140 -411 -335c0 -154 112 -242 355 -302l165 -41
c273 -68 398 -173 398 -360c0 -231 -198 -399 -491 -399s-506 168 -517 402zM530 1841h46l266 -287h-59l-229 249h-2l-229 -249h-59z" />
    <glyph glyph-name="Sacutedotaccent" unicode="&#x1e64;" horiz-adv-x="1114" 
d="M602 1554h-56l293 287h66zM430 1628c-34 0 -64 29 -64 64c0 34 30 63 64 63s64 -29 64 -63c0 -35 -30 -64 -64 -64zM52 382h50c11 -208 205 -356 469 -356c260 0 439 150 439 351c0 161 -107 250 -362 314l-167 42c-268 67 -389 173 -389 349c0 221 210 381 461 381
c268 0 470 -157 479 -361h-50c-9 180 -191 315 -429 315c-226 0 -411 -140 -411 -335c0 -154 112 -242 355 -302l165 -41c273 -68 398 -173 398 -360c0 -231 -198 -399 -491 -399s-506 168 -517 402z" />
    <glyph glyph-name="Sacute" unicode="&#x15a;" horiz-adv-x="1114" 
d="M571 1554h-56l293 287h66zM52 382h50c11 -208 205 -356 469 -356c260 0 439 150 439 351c0 161 -107 250 -362 314l-167 42c-268 67 -389 173 -389 349c0 221 210 381 461 381c268 0 470 -157 479 -361h-50c-9 180 -191 315 -429 315c-226 0 -411 -140 -411 -335
c0 -154 112 -242 355 -302l165 -41c273 -68 398 -173 398 -360c0 -231 -198 -399 -491 -399s-506 168 -517 402z" />
    <glyph glyph-name="T" unicode="T" horiz-adv-x="1116" 
d="M583 0h-50v1396h-520v47h1090v-47h-520v-1396z" />
    <glyph glyph-name="Tcircumflexbelow" unicode="&#x1e70;" horiz-adv-x="1116" 
d="M583 0h-50v1396h-520v47h1090v-47h-520v-1396zM535 -141h46l266 -287h-59l-229 249h-2l-229 -249h-59z" />
    <glyph glyph-name="Tdotbelow" unicode="&#x1e6c;" horiz-adv-x="1116" 
d="M558 -268c-34 0 -64 29 -64 64c0 34 30 63 64 63s64 -29 64 -63c0 -35 -30 -64 -64 -64zM583 0h-50v1396h-520v47h1090v-47h-520v-1396z" />
    <glyph glyph-name="Tcommaaccent" unicode="&#x21a;" horiz-adv-x="1116" 
d="M487 -480h-46l102 338h57zM583 0h-50v1396h-520v47h1090v-47h-520v-1396z" />
    <glyph glyph-name="Tdotaccent" unicode="&#x1e6a;" horiz-adv-x="1116" 
d="M558 1556c-34 0 -64 29 -64 64c0 34 30 63 64 63s64 -29 64 -63c0 -35 -30 -64 -64 -64zM583 0h-50v1396h-520v47h1090v-47h-520v-1396z" />
    <glyph glyph-name="Tcedilla" unicode="&#x162;" horiz-adv-x="1116" 
d="M583 0h-1l-59 -141c130 0 206 -56 206 -153c0 -99 -88 -167 -216 -168c-43 0 -95 7 -122 17v43c29 -11 75 -17 121 -17c96 0 171 55 171 124c0 72 -59 113 -164 113h-46v33l62 149h-2v1396h-520v47h1090v-47h-520v-1396z" />
    <glyph glyph-name="Tlinebelow" unicode="&#x1e6e;" horiz-adv-x="1116" 
d="M840 -201v-43h-564v43h564zM583 0h-50v1396h-520v47h1090v-47h-520v-1396z" />
    <glyph glyph-name="Tcaron" unicode="&#x164;" horiz-adv-x="1116" 
d="M535 1554l-266 287h59l229 -250h2l229 250h59l-266 -287h-46zM583 0h-50v1396h-520v47h1090v-47h-520v-1396z" />
    <glyph glyph-name="Tbar" unicode="&#x166;" horiz-adv-x="1116" 
d="M1103 1396h-520v-617h300v-45h-300v-734h-50v734h-300v45h300v617h-520v47h1090v-47z" />
    <glyph glyph-name="U" unicode="U" horiz-adv-x="1307" 
d="M174 1443v-943c0 -291 186 -473 479 -473c294 0 480 182 480 473v943h50v-944c0 -316 -205 -519 -530 -519c-324 0 -529 203 -529 519v944h50z" />
    <glyph glyph-name="Ugrave" unicode="&#xd9;" horiz-adv-x="1305" 
d="M635 1554l-303 287h66l294 -287h-57zM174 1443v-943c0 -291 186 -473 479 -473c294 0 480 182 480 473v943h50v-944c0 -316 -205 -519 -530 -519c-324 0 -529 203 -529 519v944h50z" />
    <glyph glyph-name="Udblgrave" unicode="&#x214;" horiz-adv-x="1305" 
d="M743 1554l-303 287h66l293 -287h-56zM489 1554l-303 287h65l294 -287h-56zM174 1443v-943c0 -291 186 -473 479 -473c294 0 480 182 480 473v943h50v-944c0 -316 -205 -519 -530 -519c-324 0 -529 203 -529 519v944h50z" />
    <glyph glyph-name="Uacute" unicode="&#xda;" horiz-adv-x="1305" 
d="M671 1554h-56l293 287h66zM174 1443v-943c0 -291 186 -473 479 -473c294 0 480 182 480 473v943h50v-944c0 -316 -205 -519 -530 -519c-324 0 -529 203 -529 519v944h50z" />
    <glyph glyph-name="Uhungarumlaut" unicode="&#x170;" horiz-adv-x="1305" 
d="M174 1443v-943c0 -291 186 -473 479 -473c294 0 480 182 480 473v943h50v-944c0 -316 -205 -519 -530 -519c-324 0 -529 203 -529 519v944h50zM817 1554h-56l294 287h65zM563 1554h-56l293 287h66z" />
    <glyph glyph-name="Ucircumflex" unicode="&#xdb;" horiz-adv-x="1305" 
d="M630 1841h46l266 -287h-59l-229 249h-2l-229 -249h-59zM174 1443v-943c0 -291 186 -473 479 -473c294 0 480 182 480 473v943h50v-944c0 -316 -205 -519 -530 -519c-324 0 -529 203 -529 519v944h50z" />
    <glyph glyph-name="Ucaron" unicode="&#x1d3;" horiz-adv-x="1305" 
d="M630 1554l-266 287h59l229 -250h2l229 250h59l-266 -287h-46zM174 1443v-943c0 -291 186 -473 479 -473c294 0 480 182 480 473v943h50v-944c0 -316 -205 -519 -530 -519c-324 0 -529 203 -529 519v944h50z" />
    <glyph glyph-name="Ucircumflexbelow" unicode="&#x1e76;" horiz-adv-x="1305" 
d="M174 1443v-943c0 -291 186 -473 479 -473c294 0 480 182 480 473v943h50v-944c0 -316 -205 -519 -530 -519c-324 0 -529 203 -529 519v944h50zM630 -141h46l266 -287h-59l-229 249h-2l-229 -249h-59z" />
    <glyph glyph-name="Udieresis" unicode="&#xdc;" horiz-adv-x="1305" 
d="M514 1556c-30 0 -55 25 -55 54s25 53 55 53c29 0 54 -24 54 -53s-25 -54 -54 -54zM792 1556c-29 0 -54 25 -54 54s25 53 54 53c30 0 55 -24 55 -53s-25 -54 -55 -54zM174 1443v-943c0 -291 186 -473 479 -473c294 0 480 182 480 473v943h50v-944
c0 -316 -205 -519 -530 -519c-324 0 -529 203 -529 519v944h50z" />
    <glyph glyph-name="Udieresisgrave" unicode="&#x1db;" horiz-adv-x="1305" 
d="M697 1755h-56l-221 202h63zM514 1557c-29 0 -53 23 -53 52s24 53 53 53s54 -24 54 -53s-25 -52 -54 -52zM792 1557c-29 0 -54 23 -54 52s25 53 54 53s53 -24 53 -53s-24 -52 -53 -52zM174 1443v-943c0 -291 186 -473 479 -473c294 0 480 182 480 473v943h50v-944
c0 -316 -205 -519 -530 -519c-324 0 -529 203 -529 519v944h50z" />
    <glyph glyph-name="Udieresisacute" unicode="&#x1d7;" horiz-adv-x="1305" 
d="M609 1755l214 202h63l-221 -202h-56zM514 1557c-29 0 -53 23 -53 52s24 53 53 53s54 -24 54 -53s-25 -52 -54 -52zM792 1557c-29 0 -54 23 -54 52s25 53 54 53s53 -24 53 -53s-24 -52 -53 -52zM174 1443v-943c0 -291 186 -473 479 -473c294 0 480 182 480 473v943h50
v-944c0 -316 -205 -519 -530 -519c-324 0 -529 203 -529 519v944h50z" />
    <glyph glyph-name="Udieresismacron" unicode="&#x1d5;" horiz-adv-x="1305" 
d="M174 1443v-943c0 -291 186 -473 479 -473c294 0 480 182 480 473v943h50v-944c0 -316 -205 -519 -530 -519c-324 0 -529 203 -529 519v944h50zM514 1662c29 0 54 -24 54 -53s-25 -52 -54 -52s-53 23 -53 52s24 53 53 53zM371 1888h564v-42h-564v42zM792 1662
c29 0 53 -24 53 -53s-24 -52 -53 -52s-54 23 -54 52s25 53 54 53z" />
    <glyph glyph-name="Udieresiscaron" unicode="&#x1d9;" horiz-adv-x="1305" 
d="M630 1755l-265 202h67l220 -167h2l220 167h67l-265 -202h-46zM514 1662c29 0 54 -24 54 -53s-25 -52 -54 -52s-53 23 -53 52s24 53 53 53zM792 1662c29 0 53 -24 53 -53s-24 -52 -53 -52s-54 23 -54 52s25 53 54 53zM174 1443v-943c0 -291 186 -473 479 -473
c294 0 480 182 480 473v943h50v-944c0 -316 -205 -519 -530 -519c-324 0 -529 203 -529 519v944h50z" />
    <glyph glyph-name="Udieresisbelow" unicode="&#x1e72;" horiz-adv-x="1305" 
d="M174 1443v-943c0 -291 186 -473 479 -473c294 0 480 182 480 473v943h50v-944c0 -316 -205 -519 -530 -519c-324 0 -529 203 -529 519v944h50zM514 -249c-30 0 -55 25 -55 54s25 53 55 53c29 0 54 -24 54 -53s-25 -54 -54 -54zM792 -249c-29 0 -54 25 -54 54s25 53 54 53
c30 0 55 -24 55 -53s-25 -54 -55 -54z" />
    <glyph glyph-name="Utildebelow" unicode="&#x1e74;" horiz-adv-x="1305" 
d="M790 -352c-131 0 -169 168 -274 168c-69 0 -97 -66 -97 -158h-45c0 119 46 201 142 201c131 0 170 -167 274 -167c69 0 97 65 97 158h45c0 -119 -46 -202 -142 -202zM174 1443v-943c0 -291 186 -473 479 -473c294 0 480 182 480 473v943h50v-944
c0 -316 -205 -519 -530 -519c-324 0 -529 203 -529 519v944h50z" />
    <glyph glyph-name="Uhookabove" unicode="&#x1ee6;" horiz-adv-x="1305" 
d="M174 1443v-943c0 -291 186 -473 479 -473c294 0 480 182 480 473v943h50v-944c0 -316 -205 -519 -530 -519c-324 0 -529 203 -529 519v944h50zM516 1743v42c22 13 68 29 114 29c89 0 147 -52 147 -129c0 -59 -36 -112 -98 -141l-28 32c49 22 80 63 80 106
c0 54 -42 90 -106 90c-41 0 -87 -14 -109 -29z" />
    <glyph glyph-name="Ubreve" unicode="&#x16c;" horiz-adv-x="1305" 
d="M174 1443v-943c0 -291 186 -473 479 -473c294 0 480 182 480 473v943h50v-944c0 -316 -205 -519 -530 -519c-324 0 -529 203 -529 519v944h50zM396 1771h45c0 -99 84 -175 212 -175s212 76 212 175h45c0 -134 -108 -217 -257 -217s-257 83 -257 217z" />
    <glyph glyph-name="Uinvertedbreve" unicode="&#x216;" horiz-adv-x="1305" 
d="M174 1443v-943c0 -291 186 -473 479 -473c294 0 480 182 480 473v943h50v-944c0 -316 -205 -519 -530 -519c-324 0 -529 203 -529 519v944h50zM396 1554c0 134 108 217 257 217s257 -83 257 -217h-45c0 99 -84 174 -212 174s-212 -75 -212 -174h-45z" />
    <glyph glyph-name="Utildeacute" unicode="&#x1e78;" horiz-adv-x="1305" 
d="M174 1443v-943c0 -291 186 -473 479 -473c294 0 480 182 480 473v943h50v-944c0 -316 -205 -519 -530 -519c-324 0 -529 203 -529 519v944h50zM772 1552c-123 0 -141 149 -237 149c-65 0 -94 -56 -94 -131h-45c0 101 49 174 138 174c123 0 141 -149 238 -149
c64 0 92 55 92 131h45c0 -100 -48 -174 -137 -174zM665 1792l158 165h63l-167 -165h-54z" />
    <glyph glyph-name="Udotbelow" unicode="&#x1ee4;" horiz-adv-x="1305" 
d="M653 -268c-34 0 -64 29 -64 64c0 34 30 63 64 63s64 -29 64 -63c0 -35 -30 -64 -64 -64zM174 1443v-943c0 -291 186 -473 479 -473c294 0 480 182 480 473v943h50v-944c0 -316 -205 -519 -530 -519c-324 0 -529 203 -529 519v944h50z" />
    <glyph glyph-name="Utilde" unicode="&#x168;" horiz-adv-x="1305" 
d="M174 1443v-943c0 -291 186 -473 479 -473c294 0 480 182 480 473v943h50v-944c0 -316 -205 -519 -530 -519c-324 0 -529 203 -529 519v944h50zM790 1552c-131 0 -169 168 -274 168c-69 0 -97 -66 -97 -158h-45c0 119 46 201 142 201c131 0 170 -167 274 -167
c69 0 97 65 97 158h45c0 -119 -46 -202 -142 -202z" />
    <glyph glyph-name="Umacron" unicode="&#x16a;" horiz-adv-x="1305" 
d="M174 1443v-943c0 -291 186 -473 479 -473c294 0 480 182 480 473v943h50v-944c0 -316 -205 -519 -530 -519c-324 0 -529 203 -529 519v944h50zM935 1659v-43h-564v43h564z" />
    <glyph glyph-name="Umacrondieresis" unicode="&#x1e7a;" horiz-adv-x="1305" 
d="M935 1618h-564v43h564v-43zM514 1805c-29 0 -53 24 -53 53s24 52 53 52s54 -23 54 -52s-25 -53 -54 -53zM792 1805c-29 0 -54 24 -54 53s25 52 54 52s53 -23 53 -52s-24 -53 -53 -53zM174 1443v-943c0 -291 186 -473 479 -473c294 0 480 182 480 473v943h50v-944
c0 -316 -205 -519 -530 -519c-324 0 -529 203 -529 519v944h50z" />
    <glyph glyph-name="Uring" unicode="&#x16e;" horiz-adv-x="1305" 
d="M653 1506c-90 0 -165 75 -165 166c0 90 75 165 165 165s165 -75 165 -165c0 -91 -75 -166 -165 -166zM653 1544c71 0 126 57 126 128c0 70 -55 127 -126 127s-126 -57 -126 -127c0 -71 55 -128 126 -128zM174 1443v-943c0 -291 186 -473 479 -473c294 0 480 182 480 473
v943h50v-944c0 -316 -205 -519 -530 -519c-324 0 -529 203 -529 519v944h50z" />
    <glyph glyph-name="Uogonek" unicode="&#x172;" horiz-adv-x="1307" 
d="M878 -384c-113 0 -193 70 -193 169c0 85 52 162 154 227v4c-58 -24 -118 -36 -186 -36c-323 0 -529 202 -529 519v944h50v-943c0 -292 187 -473 479 -473c293 0 480 181 480 473v943h50v-944c0 -214 -88 -356 -230 -447c-145 -93 -219 -175 -219 -262
c0 -75 61 -128 146 -128c28 0 58 3 70 7v-43c-16 -6 -45 -10 -72 -10z" />
    <glyph glyph-name="Uhorn" unicode="&#x1af;" horiz-adv-x="1446" 
d="M653 -20c-323 0 -529 201 -529 519v944h50v-943c0 -284 191 -473 479 -473c289 0 480 189 480 473v943h124c81 0 121 35 121 106v156h48v-168c0 -88 -59 -138 -163 -138h-80v-900c0 -318 -206 -519 -530 -519z" />
    <glyph glyph-name="Uhorngrave" unicode="&#x1eea;" horiz-adv-x="1446" 
d="M635 1554l-303 287h66l294 -287h-57zM653 -20c-323 0 -529 201 -529 519v944h50v-943c0 -284 191 -473 479 -473c289 0 480 189 480 473v943h124c81 0 121 35 121 106v156h48v-168c0 -88 -59 -138 -163 -138h-80v-900c0 -318 -206 -519 -530 -519z" />
    <glyph glyph-name="Uhornacute" unicode="&#x1ee8;" horiz-adv-x="1446" 
d="M671 1554h-56l293 287h66zM653 -20c-323 0 -529 201 -529 519v944h50v-943c0 -284 191 -473 479 -473c289 0 480 189 480 473v943h124c81 0 121 35 121 106v156h48v-168c0 -88 -59 -138 -163 -138h-80v-900c0 -318 -206 -519 -530 -519z" />
    <glyph glyph-name="Uhorndotbelow" unicode="&#x1ef0;" horiz-adv-x="1446" 
d="M653 -268c-34 0 -64 29 -64 64c0 34 30 63 64 63s64 -29 64 -63c0 -35 -30 -64 -64 -64zM653 -20c-323 0 -529 201 -529 519v944h50v-943c0 -284 191 -473 479 -473c289 0 480 189 480 473v943h124c81 0 121 35 121 106v156h48v-168c0 -88 -59 -138 -163 -138h-80v-900
c0 -318 -206 -519 -530 -519z" />
    <glyph glyph-name="Uhornhookabove" unicode="&#x1eec;" horiz-adv-x="1446" 
d="M516 1743v42c22 13 68 29 114 29c89 0 147 -52 147 -129c0 -59 -36 -112 -98 -141l-28 32c49 22 80 63 80 106c0 54 -42 90 -106 90c-41 0 -87 -14 -109 -29zM653 -20c-323 0 -529 201 -529 519v944h50v-943c0 -284 191 -473 479 -473c289 0 480 189 480 473v943h124
c81 0 121 35 121 106v156h48v-168c0 -88 -59 -138 -163 -138h-80v-900c0 -318 -206 -519 -530 -519z" />
    <glyph glyph-name="Uhorntilde" unicode="&#x1eee;" horiz-adv-x="1446" 
d="M790 1552c-131 0 -169 168 -274 168c-69 0 -97 -66 -97 -158h-45c0 119 46 201 142 201c131 0 170 -167 274 -167c69 0 97 65 97 158h45c0 -119 -46 -202 -142 -202zM653 -20c-323 0 -529 201 -529 519v944h50v-943c0 -284 191 -473 479 -473c289 0 480 189 480 473v943
h124c81 0 121 35 121 106v156h48v-168c0 -88 -59 -138 -163 -138h-80v-900c0 -318 -206 -519 -530 -519z" />
    <glyph glyph-name="V" unicode="V" horiz-adv-x="1203" 
d="M627 0h-51l-556 1443h55l524 -1372h4l525 1372h54z" />
    <glyph glyph-name="Vtilde" unicode="&#x1e7c;" horiz-adv-x="1203" 
d="M738 1552c-131 0 -169 168 -274 168c-69 0 -97 -66 -97 -158h-45c0 119 46 201 142 201c131 0 170 -167 274 -167c69 0 97 65 97 158h45c0 -119 -46 -202 -142 -202zM627 0h-51l-556 1443h55l524 -1372h4l525 1372h54z" />
    <glyph glyph-name="Vdotbelow" unicode="&#x1e7e;" horiz-adv-x="1203" 
d="M601 -268c-34 0 -64 29 -64 64c0 34 30 63 64 63s64 -29 64 -63c0 -35 -30 -64 -64 -64zM627 0h-51l-556 1443h55l524 -1372h4l525 1372h54z" />
    <glyph glyph-name="W" unicode="W" horiz-adv-x="1777" 
d="M886 1338l-398 -1338h-41l-406 1443h52l374 -1344h4l396 1344h43l395 -1344h5l374 1344h51l-406 -1443h-40l-398 1338h-5z" />
    <glyph glyph-name="Wgrave" unicode="&#x1e80;" horiz-adv-x="1777" 
d="M870 1554l-303 287h66l294 -287h-57zM886 1338l-398 -1338h-41l-406 1443h52l374 -1344h4l396 1344h43l395 -1344h5l374 1344h51l-406 -1443h-40l-398 1338h-5z" />
    <glyph glyph-name="Wacute" unicode="&#x1e82;" horiz-adv-x="1777" 
d="M906 1554h-56l293 287h66zM886 1338l-398 -1338h-41l-406 1443h52l374 -1344h4l396 1344h43l395 -1344h5l374 1344h51l-406 -1443h-40l-398 1338h-5z" />
    <glyph glyph-name="Wdotaccent" unicode="&#x1e86;" horiz-adv-x="1777" 
d="M888 1556c-34 0 -64 29 -64 64c0 34 30 63 64 63s64 -29 64 -63c0 -35 -30 -64 -64 -64zM886 1338l-398 -1338h-41l-406 1443h52l374 -1344h4l396 1344h43l395 -1344h5l374 1344h51l-406 -1443h-40l-398 1338h-5z" />
    <glyph glyph-name="Wdotbelow" unicode="&#x1e88;" horiz-adv-x="1777" 
d="M888 -268c-34 0 -64 29 -64 64c0 34 30 63 64 63s64 -29 64 -63c0 -35 -30 -64 -64 -64zM886 1338l-398 -1338h-41l-406 1443h52l374 -1344h4l396 1344h43l395 -1344h5l374 1344h51l-406 -1443h-40l-398 1338h-5z" />
    <glyph glyph-name="Wdieresis" unicode="&#x1e84;" horiz-adv-x="1777" 
d="M749 1556c-30 0 -55 25 -55 54s25 53 55 53c29 0 54 -24 54 -53s-25 -54 -54 -54zM1027 1556c-29 0 -54 25 -54 54s25 53 54 53c30 0 55 -24 55 -53s-25 -54 -55 -54zM886 1338l-398 -1338h-41l-406 1443h52l374 -1344h4l396 1344h43l395 -1344h5l374 1344h51l-406 -1443
h-40l-398 1338h-5z" />
    <glyph glyph-name="Wcircumflex" unicode="&#x174;" horiz-adv-x="1777" 
d="M865 1841h46l266 -287h-59l-229 249h-2l-229 -249h-59zM886 1338l-398 -1338h-41l-406 1443h52l374 -1344h4l396 1344h43l395 -1344h5l374 1344h51l-406 -1443h-40l-398 1338h-5z" />
    <glyph glyph-name="X" unicode="X" horiz-adv-x="1190" 
d="M41 0l524 721v1l-523 721h60l493 -680h1l494 680h59l-523 -721v0l522 -722h-60l-492 680h-1l-495 -680h-59z" />
    <glyph glyph-name="Xdotaccent" unicode="&#x1e8a;" horiz-adv-x="1190" 
d="M41 0l524 721v1l-523 721h60l493 -680h1l494 680h59l-523 -721v0l522 -722h-60l-492 680h-1l-495 -680h-59zM595 1556c-34 0 -64 29 -64 64c0 34 30 63 64 63s64 -29 64 -63c0 -35 -30 -64 -64 -64z" />
    <glyph glyph-name="Xdieresis" unicode="&#x1e8c;" horiz-adv-x="1190" 
d="M41 0l524 721v1l-523 721h60l493 -680h1l494 680h59l-523 -721v0l522 -722h-60l-492 680h-1l-495 -680h-59zM456 1556c-30 0 -55 25 -55 54s25 53 55 53c29 0 54 -24 54 -53s-25 -54 -54 -54zM734 1556c-29 0 -54 25 -54 54s25 53 54 53c30 0 55 -24 55 -53
s-25 -54 -55 -54z" />
    <glyph glyph-name="Y" unicode="Y" horiz-adv-x="1148" 
d="M600 0h-50v631l-529 812h60l492 -758h4l491 758h59l-527 -812v-631z" />
    <glyph glyph-name="Ygrave" unicode="&#x1ef2;" horiz-adv-x="1148" 
d="M600 0h-50v631l-529 812h60l492 -758h4l491 758h59l-527 -812v-631zM556 1554l-303 287h66l294 -287h-57z" />
    <glyph glyph-name="Yacute" unicode="&#xdd;" horiz-adv-x="1148" 
d="M600 0h-50v631l-529 812h60l492 -758h4l491 758h59l-527 -812v-631zM592 1554h-56l293 287h66z" />
    <glyph glyph-name="Ydotaccent" unicode="&#x1e8e;" horiz-adv-x="1148" 
d="M600 0h-50v631l-529 812h60l492 -758h4l491 758h59l-527 -812v-631zM574 1556c-34 0 -64 29 -64 64c0 34 30 63 64 63s64 -29 64 -63c0 -35 -30 -64 -64 -64z" />
    <glyph glyph-name="Ydotbelow" unicode="&#x1ef4;" horiz-adv-x="1148" 
d="M600 0h-50v631l-529 812h60l492 -758h4l491 758h59l-527 -812v-631zM574 -268c-34 0 -64 29 -64 64c0 34 30 63 64 63s64 -29 64 -63c0 -35 -30 -64 -64 -64z" />
    <glyph glyph-name="Ydieresis" unicode="&#x178;" horiz-adv-x="1148" 
d="M600 0h-50v631l-529 812h60l492 -758h4l491 758h59l-527 -812v-631zM435 1556c-30 0 -55 25 -55 54s25 53 55 53c29 0 54 -24 54 -53s-25 -54 -54 -54zM713 1556c-29 0 -54 25 -54 54s25 53 54 53c30 0 55 -24 55 -53s-25 -54 -55 -54z" />
    <glyph glyph-name="Ytilde" unicode="&#x1ef8;" horiz-adv-x="1148" 
d="M600 0h-50v631l-529 812h60l492 -758h4l491 758h59l-527 -812v-631zM711 1552c-131 0 -169 168 -274 168c-69 0 -97 -66 -97 -158h-45c0 119 46 201 142 201c131 0 170 -167 274 -167c69 0 97 65 97 158h45c0 -119 -46 -202 -142 -202z" />
    <glyph glyph-name="Ycircumflex" unicode="&#x176;" horiz-adv-x="1148" 
d="M600 0h-50v631l-529 812h60l492 -758h4l491 758h59l-527 -812v-631zM551 1841h46l266 -287h-59l-229 249h-2l-229 -249h-59z" />
    <glyph glyph-name="Ymacron" unicode="&#x232;" horiz-adv-x="1148" 
d="M600 0h-50v631l-529 812h60l492 -758h4l491 758h59l-527 -812v-631zM856 1659v-43h-564v43h564z" />
    <glyph glyph-name="Yhookabove" unicode="&#x1ef6;" horiz-adv-x="1148" 
d="M600 0h-50v631l-529 812h60l492 -758h4l491 758h59l-527 -812v-631zM437 1743v42c22 13 68 29 114 29c89 0 147 -52 147 -129c0 -59 -36 -112 -98 -141l-28 32c49 22 80 63 80 106c0 54 -42 90 -106 90c-41 0 -87 -14 -109 -29z" />
    <glyph glyph-name="Z" unicode="Z" horiz-adv-x="1147" 
d="M64 0v42l954 1350v4h-925v47h989v-43l-953 -1349v-4h954v-47h-1019z" />
    <glyph glyph-name="Zacute" unicode="&#x179;" horiz-adv-x="1147" 
d="M591 1554h-56l293 287h66zM64 0v42l954 1350v4h-925v47h989v-43l-953 -1349v-4h954v-47h-1019z" />
    <glyph glyph-name="Zcaron" unicode="&#x17d;" horiz-adv-x="1147" 
d="M64 0v42l954 1350v4h-925v47h989v-43l-953 -1349v-4h954v-47h-1019zM550 1554l-266 287h59l229 -250h2l229 250h59l-266 -287h-46z" />
    <glyph glyph-name="Zcircumflex" unicode="&#x1e90;" horiz-adv-x="1147" 
d="M64 0v42l954 1350v4h-925v47h989v-43l-953 -1349v-4h954v-47h-1019zM550 1841h46l266 -287h-59l-229 249h-2l-229 -249h-59z" />
    <glyph glyph-name="Zlinebelow" unicode="&#x1e94;" horiz-adv-x="1147" 
d="M64 0v42l954 1350v4h-925v47h989v-43l-953 -1349v-4h954v-47h-1019zM855 -201v-43h-564v43h564z" />
    <glyph glyph-name="Zdotbelow" unicode="&#x1e92;" horiz-adv-x="1147" 
d="M573 -268c-34 0 -64 29 -64 64c0 34 30 63 64 63s64 -29 64 -63c0 -35 -30 -64 -64 -64zM64 0v42l954 1350v4h-925v47h989v-43l-953 -1349v-4h954v-47h-1019z" />
    <glyph glyph-name="Zdotaccent" unicode="&#x17b;" horiz-adv-x="1147" 
d="M573 1556c-34 0 -64 29 -64 64c0 34 30 63 64 63s64 -29 64 -63c0 -35 -30 -64 -64 -64zM64 0v42l954 1350v4h-925v47h989v-43l-953 -1349v-4h954v-47h-1019z" />
    <glyph glyph-name="AE" unicode="&#xc6;" horiz-adv-x="1878" 
d="M819 1397l-476 -939h667v939h-191zM1010 0v411h-689l-208 -411h-55l733 1443h985v-47h-718v-633h681v-46h-681v-670h718v-47h-766z" />
    <glyph glyph-name="AEmacron" unicode="&#x1e2;" horiz-adv-x="1889" 
d="M819 1397l-476 -939h667v939h-191zM1010 0v411h-689l-208 -411h-55l733 1443h985v-47h-718v-633h681v-46h-681v-670h718v-47h-766zM1593 1659v-43h-564v43h564z" />
    <glyph glyph-name="AEacute" unicode="&#x1fc;" horiz-adv-x="1889" 
d="M1204 1554h-56l293 287h66zM819 1397l-476 -939h667v939h-191zM1010 0v411h-689l-208 -411h-55l733 1443h985v-47h-718v-633h681v-46h-681v-670h718v-47h-766z" />
    <glyph glyph-name="OE" unicode="&#x152;" horiz-adv-x="2167" 
d="M705 1416c-361 0 -592 -271 -592 -694s231 -695 592 -695s592 271 592 695c0 423 -232 694 -592 694zM1297 0v414v0c-87 -277 -301 -434 -592 -434c-396 0 -642 284 -642 742s246 741 642 741c291 0 505 -157 592 -433v0v413h797v-47h-747v-632h711v-46h-711v-671h747
v-47h-797z" />
    <glyph glyph-name="Eth" unicode="&#xd0;" horiz-adv-x="1332" 
d="M195 47h383c412 0 641 242 641 675c0 432 -230 674 -641 674h-383v-632h382v-47h-382v-670zM144 1443h435c440 0 690 -261 690 -721c0 -461 -250 -722 -690 -722h-435v717h-121v47h121v679z" />
    <glyph glyph-name="Thorn" unicode="&#xde;" horiz-adv-x="1202" 
d="M164 1443h50v-291h413c271 0 447 -150 447 -400c0 -249 -172 -398 -447 -398h-413v-354h-50v1443zM214 1105v-704h411c252 0 399 136 399 351c0 214 -147 353 -399 353h-411z" />
    <glyph glyph-name="Alphagreek" unicode="&#x391;" horiz-adv-x="1201" 
d="M1125 0l-189 501h-671l-190 -501h-55l555 1443h51l555 -1443h-56zM598 1374l-315 -827h635l-315 827h-5z" />
    <glyph glyph-name="Betagreek" unicode="&#x392;" horiz-adv-x="1138" 
d="M600 0h-476v1443h463c251 0 422 -141 422 -349c0 -178 -112 -309 -294 -345v-4c207 -21 371 -152 371 -366c0 -231 -184 -379 -486 -379zM174 1397v-632h400c231 0 385 128 385 328c0 183 -150 304 -376 304h-409zM174 46h424c273 0 438 131 438 334
c0 208 -172 339 -459 339h-403v-673z" />
    <glyph glyph-name="Gammagreek" unicode="&#x393;" horiz-adv-x="1000" 
d="M174 0h-50v1443h797v-47h-747v-1396z" />
    <glyph glyph-name="Deltagreek" unicode="&#x394;" horiz-adv-x="1254" 
d="M1213 0h-1172v37l560 1406h51l561 -1406v-37zM102 52v-5h1050v5l-523 1322h-4z" />
    <glyph glyph-name="Epsilongreek" unicode="&#x395;" horiz-adv-x="1023" 
d="M950 47v-47h-826v1443h826v-47h-776v-632h740v-46h-740v-671h776z" />
    <glyph glyph-name="Zetagreek" unicode="&#x396;" horiz-adv-x="1147" 
d="M64 0v42l954 1350v4h-925v47h989v-43l-953 -1349v-4h954v-47h-1019z" />
    <glyph glyph-name="Etagreek" unicode="&#x397;" horiz-adv-x="1296" 
d="M1172 0h-50v718h-948v-718h-50v1443h50v-678h948v678h50v-1443z" />
    <glyph glyph-name="Thetagreek" unicode="&#x398;" horiz-adv-x="1398" 
d="M1052 707h-706v47h706v-47zM699 1463c389 0 637 -288 637 -741c0 -455 -247 -742 -637 -742s-636 287 -636 742c0 453 247 741 636 741zM699 1416c-358 0 -586 -269 -586 -694s229 -695 586 -695s587 270 587 695s-230 694 -587 694z" />
    <glyph glyph-name="Iotagreek" unicode="&#x399;" horiz-adv-x="298" 
d="M174 0h-50v1443h50v-1443z" />
    <glyph glyph-name="Iotagreek.1" horiz-adv-x="817" 
d="M749 1397h-316v-1351h316v-46h-316h-50h-316v46h316v1351h-316v46h316h50h316v-46z" />
    <glyph glyph-name="Kappagreek" unicode="&#x39a;" horiz-adv-x="1107" 
d="M174 0h-50v1443h50v-836h4l784 836h64l-594 -635l664 -808h-64l-636 773l-222 -237v-536z" />
    <glyph glyph-name="Lambdagreek" unicode="&#x39b;" horiz-adv-x="1161" 
d="M1085 0l-502 1369h-5l-503 -1369h-55l535 1443h51l535 -1443h-56z" />
    <glyph glyph-name="Mugreek" unicode="&#x39c;" horiz-adv-x="1576" 
d="M1451 0h-49v1328h-4l-584 -1327h-53l-584 1327h-4v-1328h-49v1443h53l609 -1380h4l606 1380h55v-1443z" />
    <glyph glyph-name="Nugreek" unicode="&#x39d;" horiz-adv-x="1315" 
d="M174 0h-50v1443h55l958 -1348h4v1348h50v-1443h-46l-967 1359h-4v-1359z" />
    <glyph glyph-name="Xigreek" unicode="&#x39e;" horiz-adv-x="1154" 
d="M73 1443h1009v-49h-1009v49zM1023 719h-892v49h892v-49zM73 49h1009v-49h-1009v49z" />
    <glyph glyph-name="Omicrongreek" unicode="&#x39f;" horiz-adv-x="1398" 
d="M699 1463c388 0 636 -288 636 -741c0 -455 -247 -742 -636 -742c-390 0 -636 287 -636 742c0 453 247 741 636 741zM699 1416c-358 0 -586 -270 -586 -694s228 -695 586 -695c357 0 586 271 586 695s-229 694 -586 694z" />
    <glyph glyph-name="Pigreek" unicode="&#x3a0;" horiz-adv-x="1276" 
d="M1152 0h-50v1396h-928v-1396h-50v1443h1028v-1443z" />
    <glyph glyph-name="Rhogreek" unicode="&#x3a1;" horiz-adv-x="1085" 
d="M124 1443h445c284 0 464 -164 464 -421s-181 -421 -464 -421h-395v-601h-50v1443zM174 1396v-748h392c255 0 417 143 417 374c0 232 -161 374 -417 374h-392z" />
    <glyph glyph-name="Sigmagreek" unicode="&#x3a3;" horiz-adv-x="1126" 
d="M128 51v-4h934v-47h-998v42l483 698l-465 659v44h979v-47h-913v-4l457 -648v-4z" />
    <glyph glyph-name="Taugreek" unicode="&#x3a4;" horiz-adv-x="1116" 
d="M583 0h-50v1396h-520v47h1090v-47h-520v-1396z" />
    <glyph glyph-name="Upsilongreek" unicode="&#x3a5;" horiz-adv-x="1148" 
d="M600 0h-50v631l-529 812h60l492 -758h4l491 758h59l-527 -812v-631z" />
    <glyph glyph-name="Phigreek" unicode="&#x3a6;" horiz-adv-x="1531" 
d="M1427 724c0 382 -238 610 -637 613v-1227c398 1 637 231 637 614zM103 724c0 -383 238 -613 637 -614v1227c-400 -3 -637 -231 -637 -613zM790 -59h-50v123c-433 1 -687 245 -687 660c0 414 254 658 687 660v106h50v-106c432 -2 689 -246 689 -660
c0 -415 -257 -659 -689 -660v-123z" />
    <glyph glyph-name="Chigreek" unicode="&#x3a7;" horiz-adv-x="1190" 
d="M41 0l524 721v1l-523 721h60l493 -680h1l494 680h59l-523 -721v0l522 -722h-60l-492 680h-1l-495 -680h-59z" />
    <glyph glyph-name="Psigreek" unicode="&#x3a8;" horiz-adv-x="1401" 
d="M726 0h-50v357c-375 0 -572 192 -572 559v527h50v-527c0 -334 181 -512 522 -512v1039h50v-1039c340 0 521 178 521 512v527h50v-527c0 -367 -197 -559 -571 -559v-357z" />
    <glyph glyph-name="Omegagreek" unicode="&#x3a9;" horiz-adv-x="1497" 
d="M1346 765c0 378 -242 651 -596 651s-599 -268 -599 -651c0 -316 149 -536 475 -690v-75h-518v47h466v4c-311 152 -473 385 -473 715c0 411 263 697 649 697s646 -290 646 -697c0 -329 -159 -561 -473 -715v-4h467v-47h-519v75c326 154 475 374 475 690z" />
    <glyph glyph-name="Alphatonosgreek" unicode="&#x386;" horiz-adv-x="1199" 
d="M1124 0l-189 501h-671l-190 -501h-55l555 1443h51l555 -1443h-56zM597 1374l-315 -827h635l-315 827h-5zM144 1101l99 342h63l-117 -342h-45z" />
    <glyph glyph-name="Epsilontonosgreek" unicode="&#x388;" horiz-adv-x="1227" 
d="M44 1101l99 342h63l-117 -342h-45zM1154 47v-47h-826v1443h826v-47h-776v-632h740v-46h-740v-671h776z" />
    <glyph glyph-name="Etatonosgreek" unicode="&#x389;" horiz-adv-x="1501" 
d="M44 1101l99 342h63l-117 -342h-45zM1376 0h-50v718h-948v-718h-50v1443h50v-678h948v678h50v-1443z" />
    <glyph glyph-name="Iotatonosgreek" unicode="&#x38a;" horiz-adv-x="502" 
d="M378 0h-50v1443h50v-1443zM44 1101l99 342h63l-117 -342h-45z" />
    <glyph glyph-name="Iotadieresisgreek" unicode="&#x3aa;" horiz-adv-x="347" 
d="M223 0h-50v1443h50v-1443zM59 1556c-30 0 -55 25 -55 54s25 53 55 53c29 0 54 -24 54 -53s-25 -54 -54 -54zM337 1556c-29 0 -54 25 -54 54s25 53 54 53c30 0 55 -24 55 -53s-25 -54 -55 -54z" />
    <glyph glyph-name="Iotatonosgreek.1" horiz-adv-x="1120" 
d="M45 1101l99 342h63l-117 -342h-45zM1052 1397h-316v-1351h316v-46h-316h-50h-316v46h316v1351h-316v46h316h50h316v-46z" />
    <glyph glyph-name="Iotadieresisgreek.1" horiz-adv-x="817" 
d="M547 1556c-29 0 -54 25 -54 54s25 53 54 53c30 0 55 -24 55 -53s-25 -54 -55 -54zM269 1556c-30 0 -55 25 -55 54s25 53 55 53c29 0 54 -24 54 -53s-25 -54 -54 -54zM749 1397h-316v-1351h316v-46h-316h-50h-316v46h316v1351h-316v46h316h50h316v-46z" />
    <glyph glyph-name="Omicrontonosgreek" unicode="&#x38c;" horiz-adv-x="1516" 
d="M818 1463c388 0 636 -288 636 -741c0 -455 -247 -742 -636 -742c-390 0 -636 287 -636 742c0 453 247 741 636 741zM818 1416c-358 0 -586 -270 -586 -694s228 -695 586 -695c357 0 586 271 586 695s-229 694 -586 694zM42 1101l99 342h63l-117 -342h-45z" />
    <glyph glyph-name="Upsilontonosgreek" unicode="&#x38e;" horiz-adv-x="1433" 
d="M43 1102l99 342h63l-117 -342h-45zM886 0h-50v631l-529 812h60l492 -758h4l491 758h59l-527 -812v-631z" />
    <glyph glyph-name="Upsilondieresisgreek" unicode="&#x3ab;" horiz-adv-x="1208" 
d="M660 0h-50v631l-529 812h60l492 -758h4l491 758h59l-527 -812v-631zM495 1556c-30 0 -55 25 -55 54s25 53 55 53c29 0 54 -24 54 -53s-25 -54 -54 -54zM773 1556c-29 0 -54 25 -54 54s25 53 54 53c30 0 55 -24 55 -53s-25 -54 -55 -54z" />
    <glyph glyph-name="Omegatonosgreek" unicode="&#x38f;" horiz-adv-x="1579" 
d="M1428 765c0 378 -242 651 -596 651s-599 -268 -599 -651c0 -316 149 -536 475 -690v-75h-518v47h466v4c-311 152 -473 385 -473 715c0 411 263 697 649 697s646 -290 646 -697c0 -329 -159 -561 -473 -715v-4h467v-47h-519v75c326 154 475 374 475 690zM44 1101l99 342
h63l-117 -342h-45z" />
    <glyph glyph-name="Acyrillic" unicode="&#x410;" horiz-adv-x="1221" 
d="M1135 0l-189 501h-671l-190 -501h-55l555 1443h51l555 -1443h-56zM608 1374l-315 -827h635l-315 827h-5z" />
    <glyph glyph-name="uni04D0" unicode="&#x4d0;" horiz-adv-x="1221" 
d="M1135 0l-189 501h-671l-190 -501h-55l555 1443h51l555 -1443h-56zM608 1374l-315 -827h635l-315 827h-5zM357 1771h46c0 -112 88 -177 212 -177s212 65 212 177h46c0 -140 -106 -217 -258 -217s-258 77 -258 217z" />
    <glyph glyph-name="uni04D2" unicode="&#x4d2;" horiz-adv-x="1221" 
d="M1135 0l-189 501h-671l-190 -501h-55l555 1443h51l555 -1443h-56zM608 1374l-315 -827h635l-315 827h-5zM471 1556c-30 0 -55 25 -55 54s25 53 55 53c29 0 54 -24 54 -53s-25 -54 -54 -54zM749 1556c-29 0 -54 25 -54 54s25 53 54 53c30 0 55 -24 55 -53s-25 -54 -55 -54
z" />
    <glyph glyph-name="uniF50E" horiz-adv-x="1221" 
d="M1135 0l-189 501h-671l-190 -501h-55l555 1443h51l555 -1443h-56zM608 1374l-315 -827h635l-315 827h-5zM892 1659v-43h-564v43h564z" />
    <glyph glyph-name="uniF460" horiz-adv-x="1221" 
d="M1135 0l-189 501h-671l-190 -501h-55l555 1443h51l555 -1443h-56zM608 1374l-315 -827h635l-315 827h-5zM628 1554h-56l293 287h66z" />
    <glyph glyph-name="Becyrillic" unicode="&#x411;" horiz-adv-x="1118" 
d="M1053 410c0 -251 -180 -410 -464 -410h-455v1443h802v-47h-752v-577h405c283 0 464 -159 464 -409zM184 47h402c256 0 418 141 418 363c0 220 -163 362 -418 362h-402v-725z" />
    <glyph glyph-name="Vecyrillic" unicode="&#x412;" horiz-adv-x="1158" 
d="M610 0h-476v1443h463c251 0 422 -141 422 -349c0 -178 -112 -309 -294 -345v-4c207 -21 371 -152 371 -366c0 -231 -184 -379 -486 -379zM184 1397v-632h400c231 0 385 128 385 328c0 183 -150 304 -376 304h-409zM184 46h424c273 0 438 131 438 334
c0 208 -172 339 -459 339h-403v-673z" />
    <glyph glyph-name="Gecyrillic" unicode="&#x413;" horiz-adv-x="1011" 
d="M184 0h-50v1443h815v-47h-765v-1396z" />
    <glyph glyph-name="Gjecyrillic" unicode="&#x403;" horiz-adv-x="1011" 
d="M527 1554h-56l293 287h66zM184 0h-50v1443h815v-47h-765v-1396z" />
    <glyph glyph-name="Geupturncyrillic" unicode="&#x490;" horiz-adv-x="1011" 
d="M184 1396v-1396h-50v1443h766v250h49v-297h-765z" />
    <glyph glyph-name="uni04F6" unicode="&#x4f6;" horiz-adv-x="1011" 
d="M949 1396h-765v-1349h192v-332h-48v285h-144h-47h-3v1443h815v-47z" />
    <glyph glyph-name="uni0492" unicode="&#x492;" horiz-adv-x="1072" 
d="M1011 1396h-765v-635h670v-45h-670v-716h-50v716h-121v45h121v682h815v-47z" />
    <glyph glyph-name="uniF53C" horiz-adv-x="1012" 
d="M184 0h-50v1443h817v-47h-767v-634h706v-47h-706v-715z" />
    <glyph glyph-name="uni04FA" unicode="&#x4fa;" horiz-adv-x="1072" 
d="M1011 1396h-765v-635h632v-45h-632v-419v-297v-99c0 -188 -91 -262 -248 -262h-14v46h12c135 0 200 64 200 212v103v297v419h-121v45h121v682h815v-47z" />
    <glyph glyph-name="Decyrillic" unicode="&#x414;" horiz-adv-x="1341" 
d="M313 448c-10 -173 -39 -319 -124 -396v-5h899v1349h-718zM60 0v-286h-49v333h93c103 50 146 206 158 407l60 989h816v-1396h189v-333h-49v286h-1218z" />
    <glyph glyph-name="uni0414.BUL" horiz-adv-x="1471" 
d="M733 1368l-495 -1321h995l-495 1321h-5zM1288 47h106v-333h-49v286h-1219v-286h-49v333h106l527 1396h51z" />
    <glyph glyph-name="Iecyrillic" unicode="&#x415;" horiz-adv-x="1043" 
d="M960 47v-47h-826v1443h826v-47h-776v-632h740v-46h-740v-671h776z" />
    <glyph glyph-name="Iocyrillic" unicode="&#x401;" horiz-adv-x="1043" 
d="M408 1556c-30 0 -55 25 -55 54s25 53 55 53c29 0 54 -24 54 -53s-25 -54 -54 -54zM686 1556c-29 0 -54 25 -54 54s25 53 54 53c30 0 55 -24 55 -53s-25 -54 -55 -54zM960 47v-47h-826v1443h826v-47h-776v-632h740v-46h-740v-671h776z" />
    <glyph glyph-name="uni04D6" unicode="&#x4d6;" horiz-adv-x="1043" 
d="M297 1771h46c0 -112 88 -177 212 -177s212 65 212 177h46c0 -140 -106 -217 -258 -217s-258 77 -258 217zM960 47v-47h-826v1443h826v-47h-776v-632h740v-46h-740v-671h776z" />
    <glyph glyph-name="uniF510" horiz-adv-x="1043" 
d="M960 47v-47h-826v1443h826v-47h-776v-632h740v-46h-740v-671h776zM829 1659v-43h-564v43h564z" />
    <glyph glyph-name="uniF512" horiz-adv-x="1043" 
d="M960 47v-47h-826v1443h826v-47h-776v-632h740v-46h-740v-671h776zM415 1662c29 0 54 -24 54 -53s-25 -52 -54 -52s-53 23 -53 52s24 53 53 53zM272 1888h564v-42h-564v42zM693 1662c29 0 53 -24 53 -53s-24 -52 -53 -52s-54 23 -54 52s25 53 54 53z" />
    <glyph glyph-name="uni0400" unicode="&#x400;" horiz-adv-x="1043" 
d="M529 1554l-303 287h66l294 -287h-57zM960 47v-47h-826v1443h826v-47h-776v-632h740v-46h-740v-671h776z" />
    <glyph glyph-name="uniF461" horiz-adv-x="1043" 
d="M565 1554h-56l293 287h66zM960 47v-47h-826v1443h826v-47h-776v-632h740v-46h-740v-671h776z" />
    <glyph glyph-name="uniF469" horiz-adv-x="1043" 
d="M960 47v-47h-826v1443h826v-47h-776v-632h740v-46h-740v-671h776zM390 1556c-30 0 -55 25 -55 54s25 53 55 53c29 0 54 -24 54 -53s-25 -54 -54 -54zM738 1556c-30 0 -55 25 -55 54s25 53 55 53c29 0 54 -24 54 -53s-25 -54 -54 -54zM528 1556l54 317h63l-73 -317h-44z
" />
    <glyph glyph-name="uniF514" horiz-adv-x="1043" 
d="M300 2115h47c0 -117 88 -183 214 -183c127 0 215 66 215 183h47c0 -146 -106 -227 -262 -227c-155 0 -261 81 -261 227zM292 1556c0 138 105 227 269 227c165 0 270 -89 270 -227h-48c0 113 -88 182 -222 182c-133 0 -221 -69 -221 -182h-48zM960 47v-47h-826v1443h826
v-47h-776v-632h740v-46h-740v-671h776z" />
    <glyph glyph-name="Zhecyrillic" unicode="&#x416;" horiz-adv-x="1756" 
d="M956 745l781 -745h-74l-756 723h-4v-723h-50v723h-4l-757 -723h-73l779 744l-727 699h72l706 -684h4v684h50v-684h4l706 684h69z" />
    <glyph glyph-name="uni04C1" unicode="&#x4c1;" horiz-adv-x="1756" 
d="M1087 1771h45c0 -134 -108 -217 -257 -217s-257 83 -257 217h45c0 -99 84 -175 212 -175s212 76 212 175zM956 745l781 -745h-74l-756 723h-4v-723h-50v723h-4l-757 -723h-73l779 744l-727 699h72l706 -684h4v684h50v-684h4l706 684h69z" />
    <glyph glyph-name="uni04DC" unicode="&#x4dc;" horiz-adv-x="1756" 
d="M1024 1556c-29 0 -54 25 -54 54s25 53 54 53c30 0 55 -24 55 -53s-25 -54 -55 -54zM746 1556c-30 0 -55 25 -55 54s25 53 55 53c29 0 54 -24 54 -53s-25 -54 -54 -54zM956 745l781 -745h-74l-756 723h-4v-723h-50v723h-4l-757 -723h-73l779 744l-727 699h72l706 -684h4
v684h50v-684h4l706 684h69z" />
    <glyph glyph-name="uni0496" unicode="&#x496;" horiz-adv-x="1854" 
d="M1688 47h161v-332h-49v285h-63h-74l-756 723h-4v-723h-50v723h-4l-757 -723h-73l779 744l-727 699h72l706 -684h4v684h50v-684h4l706 684h69l-726 -698z" />
    <glyph glyph-name="uni0416.BUL" horiz-adv-x="1930" 
d="M1252 827l657 -827h-64l-626 789l-230 -254v-535h-50v535l-231 254l-626 -789h-61l655 825l-559 618h64l753 -836h5v836h50v-836h5l753 836h62z" />
    <glyph glyph-name="Zecyrillic" unicode="&#x417;" horiz-adv-x="1102" 
d="M358 728v46h166c260 0 412 133 412 324c0 175 -148 320 -385 320c-217 0 -370 -134 -395 -314h-49c25 208 195 361 444 361c264 0 435 -163 435 -366c0 -175 -115 -306 -317 -343v-4c237 -16 372 -156 372 -361c0 -233 -190 -412 -497 -412c-272 0 -469 172 -482 377h50
c13 -177 192 -330 434 -330c273 0 445 159 445 365c0 214 -153 337 -467 337h-166z" />
    <glyph glyph-name="uni04DE" unicode="&#x4de;" horiz-adv-x="1102" 
d="M408 1556c-30 0 -55 25 -55 54s25 53 55 53c29 0 54 -24 54 -53s-25 -54 -54 -54zM686 1556c-29 0 -54 25 -54 54s25 53 54 53c30 0 55 -24 55 -53s-25 -54 -55 -54zM358 728v46h166c260 0 412 133 412 324c0 175 -148 320 -385 320c-217 0 -370 -134 -395 -314h-49
c25 208 195 361 444 361c264 0 435 -163 435 -366c0 -175 -115 -306 -317 -343v-4c237 -16 372 -156 372 -361c0 -233 -190 -412 -497 -412c-272 0 -469 172 -482 377h50c13 -177 192 -330 434 -330c273 0 445 159 445 365c0 214 -153 337 -467 337h-166z" />
    <glyph glyph-name="uni0498" unicode="&#x498;" horiz-adv-x="1102" 
d="M669 756v-4c237 -16 372 -156 372 -361c0 -224 -176 -398 -462 -411v-266h-49v265c-265 6 -455 176 -468 377h50c13 -177 192 -330 434 -330c273 0 445 159 445 365c0 214 -153 337 -467 337h-166v46h166c260 0 412 133 412 324c0 175 -148 320 -385 320
c-217 0 -370 -134 -395 -314h-49c25 208 195 361 444 361c264 0 435 -163 435 -366c0 -175 -115 -306 -317 -343z" />
    <glyph glyph-name="uniF50A" horiz-adv-x="1102" 
d="M669 756v-4c237 -16 372 -156 372 -361c0 -216 -163 -386 -432 -409l-51 -123c130 0 206 -56 206 -153c0 -99 -88 -167 -216 -168c-43 0 -95 7 -122 17v43c29 -11 75 -17 121 -17c96 0 171 55 171 124c0 72 -59 113 -164 113h-46v33l54 128h-18c-272 0 -469 172 -482 377
h50c13 -177 192 -330 434 -330c273 0 445 159 445 365c0 214 -153 337 -467 337h-166v46h166c260 0 412 133 412 324c0 175 -148 320 -385 320c-217 0 -370 -134 -395 -314h-49c25 208 195 361 444 361c264 0 435 -163 435 -366c0 -175 -115 -306 -317 -343z" />
    <glyph glyph-name="uniF516" horiz-adv-x="1102" 
d="M517 1554l-266 287h59l229 -250h2l229 250h59l-266 -287h-46zM358 728v46h166c260 0 412 133 412 324c0 175 -148 320 -385 320c-217 0 -370 -134 -395 -314h-49c25 208 195 361 444 361c264 0 435 -163 435 -366c0 -175 -115 -306 -317 -343v-4
c237 -16 372 -156 372 -361c0 -233 -190 -412 -497 -412c-272 0 -469 172 -482 377h50c13 -177 192 -330 434 -330c273 0 445 159 445 365c0 214 -153 337 -467 337h-166z" />
    <glyph glyph-name="Iicyrillic" unicode="&#x418;" horiz-adv-x="1335" 
d="M1151 0v1358h-5l-962 -1358h-50v1443h50v-1358h5l962 1358h50v-1443h-50z" />
    <glyph glyph-name="Iishortcyrillic" unicode="&#x419;" horiz-adv-x="1335" 
d="M410 1771h46c0 -112 88 -177 212 -177s212 65 212 177h46c0 -140 -106 -217 -258 -217s-258 77 -258 217zM1151 0v1358h-5l-962 -1358h-50v1443h50v-1358h5l962 1358h50v-1443h-50z" />
    <glyph glyph-name="uni040D" unicode="&#x40d;" horiz-adv-x="1335" 
d="M654 1554l-303 287h66l294 -287h-57zM1151 0v1358h-5l-962 -1358h-50v1443h50v-1358h5l962 1358h50v-1443h-50z" />
    <glyph glyph-name="uni04E2" unicode="&#x4e2;" horiz-adv-x="1335" 
d="M1151 0v1358h-5l-962 -1358h-50v1443h50v-1358h5l962 1358h50v-1443h-50zM951 1659v-43h-564v43h564z" />
    <glyph glyph-name="uni04E4" unicode="&#x4e4;" horiz-adv-x="1335" 
d="M528 1556c-30 0 -55 25 -55 54s25 53 55 53c29 0 54 -24 54 -53s-25 -54 -54 -54zM806 1556c-29 0 -54 25 -54 54s25 53 54 53c30 0 55 -24 55 -53s-25 -54 -55 -54zM1151 0v1358h-5l-962 -1358h-50v1443h50v-1358h5l962 1358h50v-1443h-50z" />
    <glyph glyph-name="uni048A" unicode="&#x48a;" horiz-adv-x="1391" 
d="M880 1771h46c0 -140 -106 -217 -258 -217s-258 77 -258 217h46c0 -112 88 -177 212 -177s212 65 212 177zM1201 47h179v-11l-104 -321h-48l92 285h-119h-50v47v1311h-5l-962 -1358h-50v1443h50v-1358h5l962 1358h50v-1396z" />
    <glyph glyph-name="uniF462" horiz-adv-x="1341" 
d="M680 1554h-56l293 287h66zM1151 0v1358h-5l-962 -1358h-50v1443h50v-1358h5l962 1358h50v-1443h-50z" />
    <glyph glyph-name="uniF532" horiz-adv-x="1341" 
d="M880 1771h46c0 -140 -106 -217 -258 -217s-258 77 -258 217h46c0 -112 88 -177 212 -177s212 65 212 177zM1151 1443h50v-1146v-297v-99c0 -188 -91 -262 -248 -262h-14v46h12c135 0 200 64 200 212v103v297v1061h-5l-962 -1358h-50v1443h50v-1358h5z" />
    <glyph glyph-name="Kacyrillic" unicode="&#x41a;" horiz-adv-x="1135" 
d="M239 744l868 -744h-76l-843 723h-4v-723h-50v1443h50v-684h4l792 684h73z" />
    <glyph glyph-name="Kjecyrillic" unicode="&#x40c;" horiz-adv-x="1135" 
d="M859 1841l-303 -287h-56l293 287h66zM239 744l868 -744h-76l-843 723h-4v-723h-50v1443h50v-684h4l792 684h73z" />
    <glyph glyph-name="uni049A" unicode="&#x49a;" horiz-adv-x="1222" 
d="M1052 47h165v-332h-49v285h-61h-76l-843 723h-4v-723h-50v1443h50v-684h4l792 684h73l-814 -699z" />
    <glyph glyph-name="uni049C" unicode="&#x49c;" horiz-adv-x="1127" 
d="M548 744l560 -744h-64l-543 721h-107v-369h-48v369h-162v-721h-50v1443h50v-681h162v350h48v-350h107l475 681h59z" />
    <glyph glyph-name="uni049E" unicode="&#x49e;" horiz-adv-x="1201" 
d="M302 744l870 -744h-75l-842 721h-6v-721h-50v1241h-184v46h184v156h50v-156h288v-46h-288v-479h6l791 681h73z" />
    <glyph glyph-name="uni04A0" unicode="&#x4a0;" horiz-adv-x="1729" 
d="M832 744l868 -744h-76l-843 723h-4v-723h-50v1396h-704v47h704h50v-47v-637h4l792 684h73z" />
    <glyph glyph-name="uni04C3" unicode="&#x4c3;" horiz-adv-x="1122" 
d="M1043 1443l-763 -684c444 -17 724 -265 724 -641c0 -287 -184 -495 -441 -495c-23 0 -37 1 -52 4v47c18 -3 31 -4 47 -4c230 0 395 187 395 447c0 366 -287 603 -734 603h-35v-720h-50v1443h50v-681h34l754 681h71z" />
    <glyph glyph-name="uni041A.BUL" horiz-adv-x="1127" 
d="M184 0h-50v1443h50v-836h4l784 836h64l-594 -635l664 -808h-64l-636 773l-222 -237v-536z" />
    <glyph glyph-name="Elcyrillic" unicode="&#x41b;" horiz-adv-x="1258" 
d="M1124 0h-50v1396h-679l-57 -946c-14 -249 -71 -459 -265 -459c-32 0 -54 9 -56 9v47c1 -1 24 -9 54 -9c149 0 202 181 216 419l60 986h777v-1443z" />
    <glyph glyph-name="uni04C5" unicode="&#x4c5;" horiz-adv-x="1314" 
d="M1124 47h179v-11l-103 -321h-49l92 285h-119h-50v47v1349h-679l-57 -946c-14 -249 -71 -459 -265 -459c-32 0 -54 9 -56 9v47c1 -1 24 -9 54 -9c149 0 202 181 216 419l60 986h777v-1396z" />
    <glyph glyph-name="uniF530" horiz-adv-x="1327" 
d="M1124 47h189v-332h-49v285h-140h-50v47v1349h-679l-57 -946c-14 -249 -71 -459 -265 -459c-32 0 -54 9 -56 9v47c1 -1 24 -9 54 -9c149 0 202 181 216 419l60 986h777v-1396z" />
    <glyph glyph-name="uni052E" unicode="&#x52e;" horiz-adv-x="1327" 
d="M1124 47h189v-332h-49v285h-140h-50v47v1349h-679l-57 -946c-14 -249 -71 -459 -265 -459c-32 0 -54 9 -56 9v47c1 -1 24 -9 54 -9c149 0 202 181 216 419l60 986h777v-1396z" />
    <glyph glyph-name="uni0512" unicode="&#x512;" horiz-adv-x="1258" 
d="M347 1443h777v-1146v-297v-99c0 -188 -91 -262 -248 -262h-14v46h12c135 0 200 64 200 212v103v297v1099h-679l-57 -946c-14 -249 -71 -459 -265 -459c-32 0 -54 9 -56 9v47c1 -1 24 -9 54 -9c149 0 202 181 216 419z" />
    <glyph glyph-name="uni041B.BUL" horiz-adv-x="1181" 
d="M30 0l535 1443h51l535 -1443h-56l-502 1368h-5l-502 -1368h-56z" />
    <glyph glyph-name="Emcyrillic" unicode="&#x41c;" horiz-adv-x="1596" 
d="M1461 0h-49v1328h-4l-584 -1327h-53l-584 1327h-4v-1328h-49v1443h53l609 -1380h4l606 1380h55v-1443z" />
    <glyph glyph-name="uni04CD" unicode="&#x4cd;" horiz-adv-x="1653" 
d="M1461 47h180v-11l-103 -321h-49l92 285h-120h-49v47v1281h-4l-584 -1327h-53l-584 1327h-4v-1328h-49v1443h53l609 -1380h4l606 1380h55v-1396z" />
    <glyph glyph-name="Encyrillic" unicode="&#x41d;" horiz-adv-x="1316" 
d="M1182 0h-50v718h-948v-718h-50v1443h50v-678h948v678h50v-1443z" />
    <glyph glyph-name="uni04C7" unicode="&#x4c7;" horiz-adv-x="1316" 
d="M1132 1443h50v-1146v-297v-99c0 -188 -91 -262 -248 -262h-14v46h12c135 0 200 64 200 212v103v297v421h-948v-718h-50v1443h50v-678h948v678z" />
    <glyph glyph-name="uni04A2" unicode="&#x4a2;" horiz-adv-x="1385" 
d="M1182 47h189v-332h-49v285h-140h-50v47v671h-948v-718h-50v1443h50v-678h948v678h50v-1396z" />
    <glyph glyph-name="uni04C9" unicode="&#x4c9;" horiz-adv-x="1372" 
d="M1182 47h179v-11l-103 -321h-49l92 285h-119h-50v47v671h-948v-718h-50v1443h50v-678h948v678h50v-1396z" />
    <glyph glyph-name="uni04A4" unicode="&#x4a4;" horiz-adv-x="2009" 
d="M1947 1443v-47h-765v-1396h-50v718h-948v-718h-50v1443h50v-678h948v631v47h50h765z" />
    <glyph glyph-name="Ocyrillic" unicode="&#x41e;" horiz-adv-x="1418" 
d="M709 1463c388 0 636 -288 636 -741c0 -455 -247 -742 -636 -742c-390 0 -636 287 -636 742c0 453 247 741 636 741zM709 1416c-358 0 -586 -270 -586 -694s228 -695 586 -695c357 0 586 271 586 695s-229 694 -586 694z" />
    <glyph glyph-name="uni04E6" unicode="&#x4e6;" horiz-adv-x="1418" 
d="M570 1556c-30 0 -55 25 -55 54s25 53 55 53c29 0 54 -24 54 -53s-25 -54 -54 -54zM848 1556c-29 0 -54 25 -54 54s25 53 54 53c30 0 55 -24 55 -53s-25 -54 -55 -54zM709 1463c388 0 636 -288 636 -741c0 -455 -247 -742 -636 -742c-390 0 -636 287 -636 742
c0 453 247 741 636 741zM709 1416c-358 0 -586 -270 -586 -694s228 -695 586 -695c357 0 586 271 586 695s-229 694 -586 694z" />
    <glyph glyph-name="uniF518" horiz-adv-x="1418" 
d="M709 1463c388 0 636 -288 636 -741c0 -455 -247 -742 -636 -742c-390 0 -636 287 -636 742c0 453 247 741 636 741zM709 1416c-358 0 -586 -270 -586 -694s228 -695 586 -695c357 0 586 271 586 695s-229 694 -586 694zM991 1659v-43h-564v43h564z" />
    <glyph glyph-name="uniF463" horiz-adv-x="1418" 
d="M727 1554h-56l293 287h66zM709 1463c388 0 636 -288 636 -741c0 -455 -247 -742 -636 -742c-390 0 -636 287 -636 742c0 453 247 741 636 741zM709 1416c-358 0 -586 -270 -586 -694s228 -695 586 -695c357 0 586 271 586 695s-229 694 -586 694z" />
    <glyph glyph-name="uniF4D2" horiz-adv-x="1418" 
d="M691 1554l-303 287h66l294 -287h-57zM709 1463c388 0 636 -288 636 -741c0 -455 -247 -742 -636 -742c-390 0 -636 287 -636 742c0 453 247 741 636 741zM709 1416c-358 0 -586 -270 -586 -694s228 -695 586 -695c357 0 586 271 586 695s-229 694 -586 694z" />
    <glyph glyph-name="uniF51A" horiz-adv-x="1418" 
d="M709 1463c388 0 636 -288 636 -741c0 -455 -247 -742 -636 -742c-390 0 -636 287 -636 742c0 453 247 741 636 741zM709 1416c-358 0 -586 -270 -586 -694s228 -695 586 -695c357 0 586 271 586 695s-229 694 -586 694zM449 1771h46c0 -112 88 -177 212 -177
s212 65 212 177h46c0 -140 -106 -217 -258 -217s-258 77 -258 217z" />
    <glyph glyph-name="uni04E8" unicode="&#x4e8;" horiz-adv-x="1417" 
d="M1294 718h-1171c1 -421 230 -692 586 -692c355 0 584 271 585 692zM124 765h1169c-15 398 -240 652 -584 652c-346 0 -570 -254 -585 -652zM709 1464c392 0 635 -285 635 -742c0 -459 -242 -743 -635 -743c-394 0 -636 284 -636 743c0 457 243 742 636 742z" />
    <glyph glyph-name="uniF49A" horiz-adv-x="1417" 
d="M988 1659v-43h-564v43h564zM1294 718h-1171c1 -421 230 -692 586 -692c355 0 584 271 585 692zM124 765h1169c-15 398 -240 652 -584 652c-346 0 -570 -254 -585 -652zM709 1464c392 0 635 -285 635 -742c0 -459 -242 -743 -635 -743c-394 0 -636 284 -636 743
c0 457 243 742 636 742z" />
    <glyph glyph-name="uniF51C" horiz-adv-x="1417" 
d="M919 1771h46c0 -140 -106 -217 -258 -217s-258 77 -258 217h46c0 -112 88 -177 212 -177s212 65 212 177zM1294 718h-1171c1 -421 230 -692 586 -692c355 0 584 271 585 692zM124 765h1169c-15 398 -240 652 -584 652c-346 0 -570 -254 -585 -652zM709 1464
c392 0 635 -285 635 -742c0 -459 -242 -743 -635 -743c-394 0 -636 284 -636 743c0 457 243 742 636 742z" />
    <glyph glyph-name="uniF51E" horiz-adv-x="1417" 
d="M922 2138h47c0 -145 -107 -226 -262 -226s-262 81 -262 226h47c0 -116 89 -182 215 -182s215 66 215 182zM976 1580h-48c0 112 -87 182 -221 182s-221 -70 -221 -182h-48c0 138 104 226 269 226s269 -88 269 -226zM1294 718h-1171c1 -421 230 -692 586 -692
c355 0 584 271 585 692zM124 765h1169c-15 398 -240 652 -584 652c-346 0 -570 -254 -585 -652zM709 1464c392 0 635 -285 635 -742c0 -459 -242 -743 -635 -743c-394 0 -636 284 -636 743c0 457 243 742 636 742z" />
    <glyph glyph-name="uni04EA" unicode="&#x4ea;" horiz-adv-x="1417" 
d="M846 1556c-29 0 -54 25 -54 54s25 53 54 53c30 0 55 -24 55 -53s-25 -54 -55 -54zM568 1556c-30 0 -55 25 -55 54s25 53 55 53c29 0 54 -24 54 -53s-25 -54 -54 -54zM1294 718h-1171c1 -421 230 -692 586 -692c355 0 584 271 585 692zM124 765h1169
c-15 398 -240 652 -584 652c-346 0 -570 -254 -585 -652zM709 1464c392 0 635 -285 635 -742c0 -459 -242 -743 -635 -743c-394 0 -636 284 -636 743c0 457 243 742 636 742z" />
    <glyph glyph-name="uni0472" unicode="&#x472;" horiz-adv-x="1417" 
d="M709 26c356 0 585 273 585 696v17c-71 -70 -184 -117 -295 -117c-224 0 -381 166 -582 166c-108 0 -216 -49 -292 -127c21 -388 245 -635 584 -635zM709 1417c-358 0 -586 -272 -586 -695v-9c79 78 180 121 297 121c212 0 380 -166 580 -166c111 0 232 53 292 126
c-25 382 -248 623 -583 623zM709 1464c392 0 635 -285 635 -742c0 -459 -242 -743 -635 -743c-394 0 -636 284 -636 743c0 457 243 742 636 742z" />
    <glyph glyph-name="Pecyrillic" unicode="&#x41f;" horiz-adv-x="1305" 
d="M1171 0h-49v1396h-938v-1396h-50v1443h1037v-1443z" />
    <glyph glyph-name="uni0524" unicode="&#x524;" horiz-adv-x="1374" 
d="M1171 47h190v-332h-49v285h-141h-49v47v1349h-938v-1396h-50v1443h1037v-1396z" />
    <glyph glyph-name="Dzhecyrillic" unicode="&#x40f;" horiz-adv-x="1305" 
d="M628 0h-494v1443h50v-1396h937v1396h50v-1443h-494v-285h-49v285z" />
    <glyph glyph-name="Ercyrillic" unicode="&#x420;" horiz-adv-x="1105" 
d="M134 1443h445c284 0 464 -164 464 -421s-181 -421 -464 -421h-395v-601h-50v1443zM184 1396v-748h392c255 0 417 143 417 374c0 232 -161 374 -417 374h-392z" />
    <glyph glyph-name="uni048E" unicode="&#x48e;" horiz-adv-x="1105" 
d="M183 648h392c52 0 100 6 144 17l-177 285l38 25l185 -295c143 55 227 175 227 342c0 232 -161 374 -417 374h-392v-748zM133 1443h446c283 0 464 -164 464 -421c0 -184 -93 -320 -250 -383l181 -290l-44 -30l-186 304c-51 -15 -108 -22 -169 -22h-392v-601h-50v1443z" />
    <glyph glyph-name="uniF4D4" horiz-adv-x="1105" 
d="M134 1443h445c284 0 464 -164 464 -421s-181 -421 -464 -421h-395v-601h-50v1443zM184 1396v-748h392c255 0 417 143 417 374c0 232 -161 374 -417 374h-392zM485 1554l-266 287h59l229 -250h2l229 250h59l-266 -287h-46z" />
    <glyph glyph-name="Escyrillic" unicode="&#x421;" horiz-adv-x="1322" 
d="M702 -20c-383 0 -629 293 -629 752c0 449 243 731 629 731c287 0 533 -208 558 -472h-49c-26 238 -249 425 -509 425c-355 0 -579 -263 -579 -684c0 -433 228 -705 579 -705c266 0 484 161 508 401h49c-23 -264 -257 -448 -557 -448z" />
    <glyph glyph-name="uni04AA" unicode="&#x4aa;" horiz-adv-x="1323" 
d="M1260 979h-49c-26 245 -248 437 -509 437c-355 0 -579 -263 -579 -684c0 -433 228 -705 579 -705c267 0 485 166 509 413h49c-23 -266 -249 -453 -542 -460l-51 -121c130 0 206 -56 206 -153c0 -99 -88 -167 -216 -168c-43 0 -95 7 -122 17v43c29 -11 75 -17 121 -17
c96 0 171 55 171 124c0 72 -59 113 -164 113h-46v33l54 130c-365 15 -598 304 -598 751c0 449 243 731 629 731c287 0 533 -213 558 -484z" />
    <glyph glyph-name="uniF53E" horiz-adv-x="1323" 
d="M1260 979h-49c-26 245 -248 437 -509 437c-355 0 -579 -263 -579 -684c0 -433 228 -705 579 -705c267 0 485 166 509 413h49c-22 -263 -244 -449 -532 -460v-266h-49v266c-370 12 -606 302 -606 752c0 449 243 731 629 731c287 0 533 -213 558 -484z" />
    <glyph glyph-name="Tecyrillic" unicode="&#x422;" horiz-adv-x="1136" 
d="M593 0h-50v1396h-520v47h1090v-47h-520v-1396z" />
    <glyph glyph-name="uni04AC" unicode="&#x4ac;" horiz-adv-x="1136" 
d="M1113 1396h-520v-1349h190v-332h-49v285h-141h-49h-1v1396h-520v47h1090v-47z" />
    <glyph glyph-name="Ucyrillic" unicode="&#x423;" horiz-adv-x="1114" 
d="M257 -9c-42 0 -64 9 -65 9v47c1 0 25 -9 65 -9c136 0 210 140 291 317l-517 1088h57l483 -1025h6l452 1025h54l-474 -1072c-95 -215 -174 -380 -352 -380z" />
    <glyph glyph-name="Ushortcyrillic" unicode="&#x40e;" horiz-adv-x="1114" 
d="M318 1770h46c0 -112 88 -177 212 -177s212 65 212 177h46c0 -140 -106 -217 -258 -217s-258 77 -258 217zM257 -9c-42 0 -64 9 -65 9v47c1 0 25 -9 65 -9c136 0 210 140 291 317l-517 1088h57l483 -1025h6l452 1025h54l-474 -1072c-95 -215 -174 -380 -352 -380z" />
    <glyph glyph-name="uni04EE" unicode="&#x4ee;" horiz-adv-x="1114" 
d="M257 -9c-42 0 -64 9 -65 9v47c1 0 25 -9 65 -9c136 0 210 140 291 317l-517 1088h57l483 -1025h6l452 1025h54l-474 -1072c-95 -215 -174 -380 -352 -380zM861 1659v-43h-564v43h564z" />
    <glyph glyph-name="uni04F0" unicode="&#x4f0;" horiz-adv-x="1114" 
d="M438 1556c-30 0 -55 25 -55 54s25 53 55 53c29 0 54 -24 54 -53s-25 -54 -54 -54zM716 1556c-29 0 -54 25 -54 54s25 53 54 53c30 0 55 -24 55 -53s-25 -54 -55 -54zM257 -9c-42 0 -64 9 -65 9v47c1 0 25 -9 65 -9c136 0 210 140 291 317l-517 1088h57l483 -1025h6
l452 1025h54l-474 -1072c-95 -215 -174 -380 -352 -380z" />
    <glyph glyph-name="uni04F2" unicode="&#x4f2;" horiz-adv-x="1114" 
d="M257 -9c-42 0 -64 9 -65 9v47c1 0 25 -9 65 -9c136 0 210 140 291 317l-517 1088h57l483 -1025h6l452 1025h54l-474 -1072c-95 -215 -174 -380 -352 -380zM710 1554h-56l294 287h65zM456 1554h-56l293 287h66z" />
    <glyph glyph-name="uniF4CC" horiz-adv-x="1114" 
d="M602 1554h-56l293 287h66zM257 -9c-42 0 -64 9 -65 9v47c1 0 25 -9 65 -9c136 0 210 140 291 317l-517 1088h57l483 -1025h6l452 1025h54l-474 -1072c-95 -215 -174 -380 -352 -380z" />
    <glyph glyph-name="uniF464" horiz-adv-x="1114" 
d="M602 1554h-56l293 287h66zM257 -9c-42 0 -64 9 -65 9v47c1 0 25 -9 65 -9c136 0 210 140 291 317l-517 1088h57l483 -1025h6l452 1025h54l-474 -1072c-95 -215 -174 -380 -352 -380z" />
    <glyph glyph-name="Efcyrillic" unicode="&#x424;" horiz-adv-x="1498" 
d="M725 195v1053c-373 0 -612 -206 -612 -526s240 -526 612 -527zM1386 722c0 320 -239 526 -611 526v-1053c371 1 611 207 611 527zM725 149c-409 0 -662 219 -662 573c0 353 254 572 662 573v159h50v-159c406 -1 661 -220 661 -573c0 -354 -254 -573 -661 -573v-160h-50
v160z" />
    <glyph glyph-name="Xacyrillic" unicode="&#x425;" horiz-adv-x="1210" 
d="M51 0l524 721v1l-523 721h60l493 -680h1l494 680h59l-523 -721v0l522 -722h-60l-492 680h-1l-495 -680h-59z" />
    <glyph glyph-name="uni04B2" unicode="&#x4b2;" horiz-adv-x="1292" 
d="M1124 47h163v-332h-49v285h-80h-60l-492 680h-1l-495 -680h-59l524 721v1l-523 721h60l493 -680h1l494 680h59l-523 -721z" />
    <glyph glyph-name="uni04FE" unicode="&#x4fe;" horiz-adv-x="1210" 
d="M1040 703h-390l508 -703h-60l-492 680h-1l-495 -680h-59l511 703h-392v47h385l-503 693h60l493 -680h1l494 680h59l-503 -693h384v-47z" />
    <glyph glyph-name="uni04FC" unicode="&#x4fc;" horiz-adv-x="1210" 
d="M52 1443h60l493 -680h1l494 680h59l-523 -721l350 -483c47 -64 82 -119 113 -168c58 -96 82 -161 82 -233c0 -124 -84 -199 -224 -199c-27 0 -54 2 -78 7v52c17 -4 44 -7 76 -7c111 0 172 50 172 144c0 59 -18 122 -72 207c-36 59 -78 126 -117 179l-332 459h-1
l-495 -680h-59l524 721z" />
    <glyph glyph-name="Tsecyrillic" unicode="&#x426;" horiz-adv-x="1365" 
d="M1351 -285h-49v285h-1168v1443h50v-1396h928v1396h50v-1396h189v-332z" />
    <glyph glyph-name="uni04B4" unicode="&#x4b4;" horiz-adv-x="1737" 
d="M1534 47h190v-332h-49v285h-1169v1396h-483v47h483h50h484v-47h-484v-1349h928v1396h50v-1396z" />
    <glyph glyph-name="Checyrillic" unicode="&#x427;" horiz-adv-x="1185" 
d="M1051 0h-50v732h-3c-61 -59 -201 -144 -406 -144c-298 0 -487 180 -487 462v393h49v-385c0 -269 182 -423 438 -423c233 0 377 122 409 159v649h50v-1443z" />
    <glyph glyph-name="uni04F4" unicode="&#x4f4;" horiz-adv-x="1185" 
d="M1051 0h-50v732h-3c-61 -59 -201 -144 -406 -144c-298 0 -487 180 -487 462v393h49v-385c0 -269 182 -423 438 -423c233 0 377 122 409 159v649h50v-1443zM434 1556c-30 0 -55 25 -55 54s25 53 55 53c29 0 54 -24 54 -53s-25 -54 -54 -54zM712 1556c-29 0 -54 25 -54 54
s25 53 54 53c30 0 55 -24 55 -53s-25 -54 -55 -54z" />
    <glyph glyph-name="uni04B6" unicode="&#x4b6;" horiz-adv-x="1253" 
d="M1051 47h189v-332h-49v285h-140h-50v47v685h-3c-61 -59 -201 -144 -406 -144c-298 0 -487 180 -487 462v393h49v-385c0 -269 182 -423 438 -423c233 0 377 122 409 159v649h50v-1396z" />
    <glyph glyph-name="uni04CB" unicode="&#x4cb;" horiz-adv-x="1185" 
d="M1001 1443h50v-1396v-47h-50h-141v-285h-49v332h190v685h-3c-61 -59 -201 -144 -406 -144c-298 0 -487 180 -487 462v393h49v-385c0 -269 182 -423 438 -423c233 0 377 122 409 159v649z" />
    <glyph glyph-name="uniF4C6" horiz-adv-x="1185" 
d="M1001 1443h50v-1146v-297v-99c0 -188 -91 -262 -248 -262h-14v46h12c135 0 200 64 200 212v103v297v435h-3c-61 -59 -201 -144 -406 -144c-298 0 -487 180 -487 462v393h49v-385c0 -269 182 -423 438 -423c233 0 377 122 409 159v649z" />
    <glyph glyph-name="uni04B8" unicode="&#x4b8;" horiz-adv-x="1185" 
d="M1001 1443h50v-1443h-50v732h-3c-58 -57 -192 -139 -387 -144v-338h-48v339c-281 11 -458 188 -458 461v393h49v-385c0 -259 168 -411 409 -422v402h48v-403c222 7 359 123 390 159v649z" />
    <glyph glyph-name="uni04BA" unicode="&#x4ba;" horiz-adv-x="1202" 
d="M134 1443h50v-720h3c60 59 201 162 427 162c275 0 466 -183 466 -462v-423h-50v415c0 269 -178 423 -416 423c-255 0 -399 -141 -430 -178v-660h-50v1443z" />
    <glyph glyph-name="uniF49E" horiz-adv-x="1263" 
d="M245 725h3c60 59 201 162 427 162c275 0 466 -183 466 -462v-423h-50v415c0 269 -178 423 -416 423c-255 0 -399 -141 -430 -178v-660h-50v1241h-123v46h123v156h50v-156h558v-46h-558v-518z" />
    <glyph glyph-name="uni0526" unicode="&#x526;" horiz-adv-x="1283" 
d="M1080 47h189v-332h-48v285h-141h-50v47v368c0 269 -178 423 -416 423c-255 0 -399 -141 -430 -178v-660h-50v1443h50v-720h3c60 59 201 162 427 162c275 0 466 -183 466 -462v-376z" />
    <glyph glyph-name="Tshecyrillic" unicode="&#x40b;" horiz-adv-x="1544" 
d="M987 809c-151 0 -306 -70 -395 -176v-633h-49v1396h-520v47h1091v-47h-522v-693h5c99 97 240 153 392 153c260 0 433 -184 433 -461v-395h-50v387c0 253 -154 422 -385 422z" />
    <glyph glyph-name="Shacyrillic" unicode="&#x428;" horiz-adv-x="1737" 
d="M134 0v1443h50v-1396h660v1396h49v-1396h660v1396h50v-1443h-1469z" />
    <glyph glyph-name="Shchacyrillic" unicode="&#x429;" horiz-adv-x="1806" 
d="M1792 -285h-49v285h-1609v1443h50v-1396h660v1396h49v-1396h660v1396h50v-1396h189v-332z" />
    <glyph glyph-name="Hardsigncyrillic" unicode="&#x42a;" horiz-adv-x="1353" 
d="M827 0h-446v1396h-358v47h408v-603h396c283 0 464 -163 464 -420c0 -256 -181 -420 -464 -420zM431 47h393c255 0 418 146 418 373s-164 373 -418 373h-393v-746z" />
    <glyph glyph-name="Yericyrillic" unicode="&#x42b;" horiz-adv-x="1462" 
d="M1328 0h-50v1443h50v-1443zM134 0v1443h50v-603h397c283 0 464 -163 464 -420c0 -256 -181 -420 -464 -420h-447zM184 47h394c255 0 417 146 417 373s-163 373 -417 373h-394v-746z" />
    <glyph glyph-name="uni04F8" unicode="&#x4f8;" horiz-adv-x="1462" 
d="M1328 0h-50v1443h50v-1443zM134 0v1443h50v-603h397c283 0 464 -163 464 -420c0 -256 -181 -420 -464 -420h-447zM184 47h394c255 0 417 146 417 373s-163 373 -417 373h-394v-746zM592 1556c-30 0 -55 25 -55 54s25 53 55 53c29 0 54 -24 54 -53s-25 -54 -54 -54z
M870 1556c-29 0 -54 25 -54 54s25 53 54 53c30 0 55 -24 55 -53s-25 -54 -55 -54z" />
    <glyph glyph-name="uniF520" horiz-adv-x="1462" 
d="M1328 0h-50v1443h50v-1443zM134 0v1443h50v-603h397c283 0 464 -163 464 -420c0 -256 -181 -420 -464 -420h-447zM184 47h394c255 0 417 146 417 373s-163 373 -417 373h-394v-746zM1013 1659v-43h-564v43h564z" />
    <glyph glyph-name="uniF536" horiz-adv-x="1462" 
d="M1328 0h-50v1443h50v-1443zM134 0v1443h50v-603h397c283 0 464 -163 464 -420c0 -256 -181 -420 -464 -420h-447zM184 47h394c255 0 417 146 417 373s-163 373 -417 373h-394v-746zM474 1771h46c0 -112 88 -177 212 -177s212 65 212 177h46c0 -140 -106 -217 -258 -217
s-258 77 -258 217z" />
    <glyph glyph-name="uniF465" horiz-adv-x="1462" 
d="M751 1554h-56l293 287h66zM1328 0h-50v1443h50v-1443zM134 0v1443h50v-603h397c283 0 464 -163 464 -420c0 -256 -181 -420 -464 -420h-447zM184 47h394c255 0 417 146 417 373s-163 373 -417 373h-394v-746z" />
    <glyph glyph-name="uni048C" unicode="&#x48c;" horiz-adv-x="1321" 
d="M398 47h393c256 0 418 146 418 373s-163 373 -418 373h-393v-746zM398 840h397c283 0 464 -163 464 -420c0 -256 -181 -420 -464 -420h-447v1224h-333v46h333v236h50v-236h492v-46h-492v-384z" />
    <glyph glyph-name="uni0462" unicode="&#x462;" horiz-adv-x="1321" 
d="M398 47h393c256 0 418 146 418 373s-163 373 -418 373h-393v-746zM398 840h397c283 0 464 -163 464 -420c0 -256 -181 -420 -464 -420h-447v1224h-333v46h333v236h50v-236h492v-46h-492v-384z" />
    <glyph glyph-name="Softsigncyrillic" unicode="&#x42c;" horiz-adv-x="1107" 
d="M134 0v1443h50v-603h397c283 0 464 -163 464 -420c0 -256 -181 -420 -464 -420h-447zM184 47h394c255 0 417 146 417 373s-163 373 -417 373h-394v-746z" />
    <glyph glyph-name="Ljecyrillic" unicode="&#x409;" horiz-adv-x="2037" 
d="M338 450c-14 -247 -70 -459 -265 -459c-32 0 -54 9 -56 9v47c1 -1 24 -9 54 -9c150 0 202 184 216 419l60 986h768v-603h396c283 0 464 -163 464 -420c0 -256 -181 -420 -464 -420h-446v1396h-670zM1115 47h393c255 0 418 146 418 373s-164 373 -418 373h-393v-746z" />
    <glyph glyph-name="Njecyrillic" unicode="&#x40a;" horiz-adv-x="2083" 
d="M184 718v-718h-50v1443h50v-678h927v678h50v-678h396c283 0 464 -144 464 -374c0 -239 -180 -391 -464 -391h-446v718h-927zM1161 47h393c256 0 418 135 418 344c0 200 -163 327 -418 327h-393v-671z" />
    <glyph glyph-name="Ereversedcyrillic" unicode="&#x42d;" horiz-adv-x="1334" 
d="M639 -20c-310 0 -548 182 -577 448h51c28 -234 251 -401 526 -401c350 0 571 271 572 691h-763v47h762c-14 396 -233 651 -571 651c-259 0 -495 -187 -526 -425h-51c32 266 287 472 577 472c385 0 622 -286 622 -741c0 -459 -234 -742 -622 -742z" />
    <glyph glyph-name="uni04EC" unicode="&#x4ec;" horiz-adv-x="1334" 
d="M639 -20c-310 0 -548 182 -577 448h51c28 -234 251 -401 526 -401c350 0 571 271 572 691h-763v47h762c-14 396 -233 651 -571 651c-259 0 -495 -187 -526 -425h-51c32 266 287 472 577 472c385 0 622 -286 622 -741c0 -459 -234 -742 -622 -742zM502 1556
c-30 0 -55 25 -55 54s25 53 55 53c29 0 54 -24 54 -53s-25 -54 -54 -54zM780 1556c-29 0 -54 25 -54 54s25 53 54 53c30 0 55 -24 55 -53s-25 -54 -55 -54z" />
    <glyph glyph-name="uniF522" horiz-adv-x="1334" 
d="M639 -20c-310 0 -548 182 -577 448h51c28 -234 251 -401 526 -401c350 0 571 271 572 691h-763v47h762c-14 396 -233 651 -571 651c-259 0 -495 -187 -526 -425h-51c32 266 287 472 577 472c385 0 622 -286 622 -741c0 -459 -234 -742 -622 -742zM923 1659v-43h-564v43
h564z" />
    <glyph glyph-name="uniF466" horiz-adv-x="1334" 
d="M659 1554h-56l293 287h66zM639 -20c-310 0 -548 182 -577 448h51c28 -234 251 -401 526 -401c350 0 571 271 572 691h-763v47h762c-14 396 -233 651 -571 651c-259 0 -495 -187 -526 -425h-51c32 266 287 472 577 472c385 0 622 -286 622 -741
c0 -459 -234 -742 -622 -742z" />
    <glyph glyph-name="uniF524" horiz-adv-x="1334" 
d="M639 -20c-310 0 -548 182 -577 448h51c28 -234 251 -401 526 -401c350 0 571 271 572 691h-763v47h762c-14 396 -233 651 -571 651c-259 0 -495 -187 -526 -425h-51c32 266 287 472 577 472c385 0 622 -286 622 -741c0 -459 -234 -742 -622 -742zM385 1771h46
c0 -112 88 -177 212 -177s212 65 212 177h46c0 -140 -106 -217 -258 -217s-258 77 -258 217z" />
    <glyph glyph-name="uniF4D6" horiz-adv-x="1334" 
d="M639 -20c-310 0 -548 182 -577 448h51c28 -234 251 -401 526 -401c350 0 571 271 572 691h-763v47h762c-14 396 -233 651 -571 651c-259 0 -495 -187 -526 -425h-51c32 266 287 472 577 472c385 0 622 -286 622 -741c0 -459 -234 -742 -622 -742zM641 1556
c-34 0 -64 29 -64 64c0 34 30 63 64 63s64 -29 64 -63c0 -35 -30 -64 -64 -64z" />
    <glyph glyph-name="IUcyrillic" unicode="&#x42e;" horiz-adv-x="1813" 
d="M1124 -21c-380 0 -615 282 -616 739h-324v-718h-50v1443h50v-678h325c14 433 247 699 615 699c381 0 617 -284 617 -742c0 -459 -235 -743 -617 -743zM1124 1417c-345 0 -566 -272 -566 -695c0 -424 221 -696 566 -696s566 273 566 696s-221 695 -566 695z" />
    <glyph glyph-name="uniF52C" horiz-adv-x="1813" 
d="M1124 -21c-380 0 -615 282 -616 739h-324v-718h-50v1443h50v-678h325c14 433 247 699 615 699c381 0 617 -284 617 -742c0 -459 -235 -743 -617 -743zM1124 1417c-345 0 -566 -272 -566 -695c0 -424 221 -696 566 -696s566 273 566 696s-221 695 -566 695zM1101 1659v-43
h-564v43h564z" />
    <glyph glyph-name="uniF467" horiz-adv-x="1813" 
d="M804 1554h-56l293 287h66zM1124 -21c-380 0 -615 282 -616 739h-324v-718h-50v1443h50v-678h325c14 433 247 699 615 699c381 0 617 -284 617 -742c0 -459 -235 -743 -617 -743zM1124 1417c-345 0 -566 -272 -566 -695c0 -424 221 -696 566 -696s566 273 566 696
s-221 695 -566 695z" />
    <glyph glyph-name="uniF52E" horiz-adv-x="1813" 
d="M550 1771h46c0 -112 88 -177 212 -177s212 65 212 177h46c0 -140 -106 -217 -258 -217s-258 77 -258 217zM1124 -21c-380 0 -615 282 -616 739h-324v-718h-50v1443h50v-678h325c14 433 247 699 615 699c381 0 617 -284 617 -742c0 -459 -235 -743 -617 -743zM1124 1417
c-345 0 -566 -272 -566 -695c0 -424 221 -696 566 -696s566 273 566 696s-221 695 -566 695z" />
    <glyph glyph-name="uniF498" horiz-adv-x="1813" 
d="M668 1556c-30 0 -55 25 -55 54s25 53 55 53c29 0 54 -24 54 -53s-25 -54 -54 -54zM946 1556c-29 0 -54 25 -54 54s25 53 54 53c30 0 55 -24 55 -53s-25 -54 -55 -54zM1124 -21c-380 0 -615 282 -616 739h-324v-718h-50v1443h50v-678h325c14 433 247 699 615 699
c381 0 617 -284 617 -742c0 -459 -235 -743 -617 -743zM1124 1417c-345 0 -566 -272 -566 -695c0 -424 221 -696 566 -696s566 273 566 696s-221 695 -566 695z" />
    <glyph glyph-name="IAcyrillic" unicode="&#x42f;" horiz-adv-x="1119" 
d="M935 675v721h-390c-259 0 -418 -137 -418 -361c0 -223 159 -360 418 -360h390zM510 628l-422 -628h-56l425 635c-220 28 -379 168 -379 400c0 253 176 408 464 408h442v-1443h-49v628h-425z" />
    <glyph glyph-name="uniF528" horiz-adv-x="1119" 
d="M935 675v721h-390c-259 0 -418 -137 -418 -361c0 -223 159 -360 418 -360h390zM510 628l-422 -628h-56l425 635c-220 28 -379 168 -379 400c0 253 176 408 464 408h442v-1443h-49v628h-425zM886 1659v-43h-564v43h564z" />
    <glyph glyph-name="uniF468" horiz-adv-x="1119" 
d="M618 1554h-56l293 287h66zM935 675v721h-390c-259 0 -418 -137 -418 -361c0 -223 159 -360 418 -360h390zM510 628l-422 -628h-56l425 635c-220 28 -379 168 -379 400c0 253 176 408 464 408h442v-1443h-49v628h-425z" />
    <glyph glyph-name="uniF4D9" horiz-adv-x="1119" 
d="M449 1556c-30 0 -55 25 -55 54s25 53 55 53c29 0 54 -24 54 -53s-25 -54 -54 -54zM727 1556c-29 0 -54 25 -54 54s25 53 54 53c30 0 55 -24 55 -53s-25 -54 -55 -54zM935 675v721h-390c-259 0 -418 -137 -418 -361c0 -223 159 -360 418 -360h390zM510 628l-422 -628h-56
l425 635c-220 28 -379 168 -379 400c0 253 176 408 464 408h442v-1443h-49v628h-425z" />
    <glyph glyph-name="uniF52A" horiz-adv-x="1119" 
d="M340 1771h46c0 -112 88 -177 212 -177s212 65 212 177h46c0 -140 -106 -217 -258 -217s-258 77 -258 217zM935 675v721h-390c-259 0 -418 -137 -418 -361c0 -223 159 -360 418 -360h390zM510 628l-422 -628h-56l425 635c-220 28 -379 168 -379 400c0 253 176 408 464 408
h442v-1443h-49v628h-425z" />
    <glyph glyph-name="uni0494" unicode="&#x494;" horiz-adv-x="1115" 
d="M847 1443v-47h-663v-694h9c57 60 184 154 387 154c283 0 443 -179 443 -440c0 -243 -142 -426 -377 -426c-67 0 -100 9 -102 10v47c2 -1 35 -9 100 -9c188 0 329 149 329 378c0 238 -150 393 -393 393c-223 0 -357 -127 -396 -176v-633h-50v1443h713z" />
    <glyph glyph-name="uni04A6" unicode="&#x4a6;" horiz-adv-x="2024" 
d="M134 1443h959v-741h8c57 60 185 154 388 154c282 0 443 -179 443 -440c0 -243 -143 -426 -377 -426c-67 0 -101 9 -102 10v47c1 -1 35 -9 100 -9c188 0 329 149 329 378c0 238 -150 393 -394 393c-223 0 -356 -127 -395 -176v-633h-50v1396h-859v-1396h-50v1443z" />
    <glyph glyph-name="Ecyrillic" unicode="&#x404;" horiz-adv-x="1322" 
d="M1259 428c-23 -264 -257 -448 -557 -448c-383 0 -629 293 -629 752c0 449 243 731 629 731c287 0 533 -208 558 -472h-49c-26 238 -249 425 -509 425c-346 0 -568 -249 -579 -651h772v-47h-772c4 -424 232 -691 579 -691c266 0 484 161 508 401h49z" />
    <glyph glyph-name="uniF526" horiz-adv-x="1322" 
d="M546 1556c-30 0 -55 25 -55 54s25 53 55 53c29 0 54 -24 54 -53s-25 -54 -54 -54zM824 1556c-29 0 -54 25 -54 54s25 53 54 53c30 0 55 -24 55 -53s-25 -54 -55 -54zM1259 428c-23 -264 -257 -448 -557 -448c-383 0 -629 293 -629 752c0 449 243 731 629 731
c287 0 533 -208 558 -472h-49c-26 238 -249 425 -509 425c-346 0 -568 -249 -579 -651h772v-47h-772c4 -424 232 -691 579 -691c266 0 484 161 508 401h49z" />
    <glyph glyph-name="uni04C0" unicode="&#x4c0;" horiz-adv-x="318" 
d="M184 0h-50v1443h50v-1443z" />
    <glyph glyph-name="Icyrillic" unicode="&#x406;" horiz-adv-x="318" 
d="M184 0h-50v1443h50v-1443z" />
    <glyph glyph-name="Yicyrillic" unicode="&#x407;" horiz-adv-x="318" 
d="M184 0h-50v1443h50v-1443zM20 1556c-30 0 -55 25 -55 54s25 53 55 53c29 0 54 -24 54 -53s-25 -54 -54 -54zM298 1556c-29 0 -54 25 -54 54s25 53 54 53c30 0 55 -24 55 -53s-25 -54 -55 -54z" />
    <glyph glyph-name="uni04C0.1" horiz-adv-x="837" 
d="M759 1397h-316v-1351h316v-46h-316h-50h-316v46h316v1351h-316v46h316h50h316v-46z" />
    <glyph glyph-name="Icyrillic.1" horiz-adv-x="837" 
d="M759 1397h-316v-1351h316v-46h-316h-50h-316v46h316v1351h-316v46h316h50h316v-46z" />
    <glyph glyph-name="Yicyrillic.1" horiz-adv-x="837" 
d="M557 1556c-29 0 -54 25 -54 54s25 53 54 53c30 0 55 -24 55 -53s-25 -54 -55 -54zM279 1556c-30 0 -55 25 -55 54s25 53 55 53c29 0 54 -24 54 -53s-25 -54 -54 -54zM759 1397h-316v-1351h316v-46h-316h-50h-316v46h316v1351h-316v46h316h50h316v-46z" />
    <glyph glyph-name="uni04A8" unicode="&#x4a8;" horiz-adv-x="1875" 
d="M848 770c0 -279 158 -525 383 -657c252 124 421 395 421 676c0 269 -168 465 -402 465c-230 0 -402 -203 -402 -484zM1848 95l19 -43c-85 -48 -178 -74 -294 -74c-142 0 -248 27 -346 82c-115 -54 -252 -81 -388 -81c-479 0 -776 294 -776 744c0 395 247 692 618 742v-47
c-339 -51 -567 -330 -567 -690c0 -423 284 -702 726 -702c113 0 234 22 339 64c-216 139 -381 375 -381 679c0 318 187 532 452 532c266 0 452 -210 452 -512c0 -287 -170 -564 -422 -702c85 -41 175 -63 295 -63c110 0 197 25 273 71z" />
    <glyph glyph-name="uni04AE" unicode="&#x4ae;" horiz-adv-x="1148" 
d="M600 0h-50v631l-529 812h60l492 -758h4l491 758h59l-527 -812v-631z" />
    <glyph glyph-name="uniF43A" horiz-adv-x="1148" 
d="M600 0h-50v631l-529 812h60l492 -758h4l491 758h59l-527 -812v-631zM919 1659v-43h-564v43h564z" />
    <glyph glyph-name="uni04B0" unicode="&#x4b0;" horiz-adv-x="1148" 
d="M1127 1443l-508 -783h370v-47h-389v-613h-50v613h-389v47h370l-510 783h60l492 -758h4l491 758h59z" />
    <glyph glyph-name="uni04BC" unicode="&#x4bc;" horiz-adv-x="1594" 
d="M364 801h1115c-1 371 -219 615 -548 615c-318 0 -538 -237 -567 -615zM1531 754h-1169v-45c0 -411 239 -682 602 -682c221 0 407 114 485 294h51c-72 -206 -281 -342 -536 -342c-400 0 -653 284 -653 734c0 14 0 27 1 41h-9c-177 0 -264 88 -264 232c0 106 47 186 47 186
h45c1 0 -45 -84 -45 -184c0 -116 71 -188 220 -188h8c29 406 265 664 617 664c362 0 600 -265 600 -669v-41z" />
    <glyph glyph-name="uni04BE" unicode="&#x4be;" horiz-adv-x="1594" 
d="M1078 1556c-29 0 -54 25 -54 54s25 53 54 53c30 0 55 -24 55 -53s-25 -54 -55 -54zM800 1556c-30 0 -55 25 -55 54s25 53 55 53c29 0 54 -24 54 -53s-25 -54 -54 -54zM364 801h1115c-1 371 -219 615 -548 615c-318 0 -538 -237 -567 -615zM1531 754h-1169v-45
c0 -411 239 -682 602 -682c221 0 407 114 485 294h51c-71 -202 -273 -337 -521 -342v-265h-49v266c-380 15 -619 296 -619 733c0 14 0 27 1 41h-9c-177 0 -264 88 -264 232c0 106 47 186 47 186h45c1 0 -45 -84 -45 -184c0 -116 71 -188 220 -188h8c29 406 265 664 617 664
c362 0 600 -265 600 -669v-41z" />
    <glyph glyph-name="uni04D4" unicode="&#x4d4;" horiz-adv-x="1829" 
d="M790 1397l-476 -939h667v939h-191zM981 0v411h-689l-208 -411h-55l733 1443h985v-47h-718v-633h681v-46h-681v-670h718v-47h-766z" />
    <glyph glyph-name="uni04D8" unicode="&#x4d8;" horiz-adv-x="1356" 
d="M664 -21c-374 0 -600 264 -601 698v41h1170v16c0 410 -223 682 -591 682c-222 0 -419 -112 -497 -304h-50c74 213 292 352 546 352c397 0 643 -285 643 -735c0 -455 -244 -750 -620 -750zM664 27c322 0 549 258 567 645h-1116c2 -393 217 -645 549 -645z" />
    <glyph glyph-name="uni04DA" unicode="&#x4da;" horiz-adv-x="1356" 
d="M504 1556c-30 0 -55 25 -55 54s25 53 55 53c29 0 54 -24 54 -53s-25 -54 -54 -54zM782 1556c-29 0 -54 25 -54 54s25 53 54 53c30 0 55 -24 55 -53s-25 -54 -55 -54zM664 -21c-374 0 -600 264 -601 698v41h1170v16c0 410 -223 682 -591 682c-222 0 -419 -112 -497 -304
h-50c74 213 292 352 546 352c397 0 643 -285 643 -735c0 -455 -244 -750 -620 -750zM664 27c322 0 549 258 567 645h-1116c2 -393 217 -645 549 -645z" />
    <glyph glyph-name="uniF49C" horiz-adv-x="1356" 
d="M664 -21c-374 0 -600 264 -601 698v41h1170v16c0 410 -223 682 -591 682c-222 0 -419 -112 -497 -304h-50c74 213 292 352 546 352c397 0 643 -285 643 -735c0 -455 -244 -750 -620 -750zM664 27c322 0 549 258 567 645h-1116c2 -393 217 -645 549 -645zM926 1659v-43
h-564v43h564z" />
    <glyph glyph-name="uni04E0" unicode="&#x4e0;" horiz-adv-x="1078" 
d="M547 -21c-272 0 -482 170 -485 377h49c3 -178 196 -331 435 -331c238 0 419 156 419 377c0 247 -179 386 -528 386h-70v46l517 557v5h-752v47h826v-43l-522 -562v-5c386 -1 579 -153 579 -431c0 -254 -196 -423 -468 -423z" />
    <glyph glyph-name="uni0510" unicode="&#x510;" horiz-adv-x="1077" 
d="M730 728h-161c-285 0 -458 -127 -458 -355c0 -201 186 -347 438 -347c222 0 415 153 418 330h49c-3 -206 -214 -377 -467 -377c-274 0 -488 159 -488 393c0 221 144 360 371 379v4c-190 36 -318 138 -318 344c0 224 189 365 422 365c236 0 416 -152 427 -360h-49
c-12 180 -172 313 -377 313s-373 -125 -373 -319c0 -210 164 -324 406 -324h160v-46z" />
    <glyph glyph-name="uniF538" horiz-adv-x="1077" 
d="M392 1556c-30 0 -55 25 -55 54s25 53 55 53c29 0 54 -24 54 -53s-25 -54 -54 -54zM670 1556c-29 0 -54 25 -54 54s25 53 54 53c30 0 55 -24 55 -53s-25 -54 -55 -54zM730 728h-161c-285 0 -458 -127 -458 -355c0 -201 186 -347 438 -347c222 0 415 153 418 330h49
c-3 -206 -214 -377 -467 -377c-274 0 -488 159 -488 393c0 221 144 360 371 379v4c-190 36 -318 138 -318 344c0 224 189 365 422 365c236 0 416 -152 427 -360h-49c-12 180 -172 313 -377 313s-373 -125 -373 -319c0 -210 164 -324 406 -324h160v-46z" />
    <glyph glyph-name="uni0474" unicode="&#x474;" horiz-adv-x="1415" 
d="M637 0h-51l-556 1443h55l524 -1371h5l444 1163c42 106 70 155 110 182c29 21 63 30 110 30c44 0 87 -11 127 -34l-18 -46c-45 20 -72 27 -110 27c-37 0 -66 -10 -92 -32s-46 -58 -77 -139z" />
    <glyph glyph-name="uni051C" unicode="&#x51c;" horiz-adv-x="1755" 
d="M875 1338l-398 -1338h-41l-406 1443h52l374 -1344h4l396 1344h43l395 -1344h5l374 1344h51l-406 -1443h-40l-398 1338h-5z" />
    <glyph glyph-name="Djecyrillic" unicode="&#x402;" horiz-adv-x="1524" 
d="M1055 -10c-40 0 -83 4 -103 10v47c20 -6 62 -9 101 -9c201 0 329 154 329 378c0 241 -153 393 -394 393c-159 0 -310 -73 -396 -176v-633h-49v1396h-520v47h1091v-47h-522v-694h5c93 94 235 154 392 154c272 0 442 -174 442 -440c0 -254 -152 -426 -376 -426z" />
    <glyph glyph-name="Dzecyrillic" unicode="&#x405;" horiz-adv-x="1134" 
d="M62 382h50c11 -208 205 -356 469 -356c260 0 439 150 439 351c0 161 -107 250 -362 314l-167 42c-268 67 -389 173 -389 349c0 221 210 381 461 381c268 0 470 -157 479 -361h-50c-9 180 -191 315 -429 315c-226 0 -411 -140 -411 -335c0 -154 112 -242 355 -302l165 -41
c273 -68 398 -173 398 -360c0 -231 -198 -399 -491 -399s-506 168 -517 402z" />
    <glyph glyph-name="Jecyrillic" unicode="&#x408;" horiz-adv-x="953" 
d="M51 315h49c9 -171 144 -289 328 -289c211 0 341 133 341 358v1059h50v-1062c0 -246 -148 -402 -391 -402c-213 0 -370 139 -377 336z" />
    <glyph glyph-name="a" unicode="a" horiz-adv-x="987" 
d="M434 30c218 0 395 158 395 353v175l-367 -28c-212 -17 -325 -104 -325 -254c0 -142 126 -246 297 -246zM431 -15c-202 0 -344 120 -344 291c0 178 126 277 367 297l375 28v94c0 196 -117 315 -313 315c-193 0 -317 -100 -344 -273h-48c23 197 173 318 392 318
c224 0 362 -137 362 -357v-698h-49v236h-1c-50 -148 -212 -251 -397 -251z" />
    <glyph glyph-name="agrave" unicode="&#xe0;" horiz-adv-x="987" 
d="M434 30c218 0 395 158 395 353v175l-367 -28c-212 -17 -325 -104 -325 -254c0 -142 126 -246 297 -246zM431 -15c-202 0 -344 120 -344 291c0 178 126 277 367 297l375 28v94c0 196 -117 315 -313 315c-193 0 -317 -100 -344 -273h-48c23 197 173 318 392 318
c224 0 362 -137 362 -357v-698h-49v236h-1c-50 -148 -212 -251 -397 -251zM564 1254h-53l-246 303h63z" />
    <glyph glyph-name="aacute" unicode="&#xe1;" horiz-adv-x="987" 
d="M434 30c218 0 395 158 395 353v175l-367 -28c-212 -17 -325 -104 -325 -254c0 -142 126 -246 297 -246zM431 -15c-202 0 -344 120 -344 291c0 178 126 277 367 297l375 28v94c0 196 -117 315 -313 315c-193 0 -317 -100 -344 -273h-48c23 197 173 318 392 318
c224 0 362 -137 362 -357v-698h-49v236h-1c-50 -148 -212 -251 -397 -251zM521 1254h-53l236 303h63z" />
    <glyph glyph-name="adieresis" unicode="&#xe4;" horiz-adv-x="987" 
d="M434 30c218 0 395 158 395 353v175l-367 -28c-212 -17 -325 -104 -325 -254c0 -142 126 -246 297 -246zM431 -15c-202 0 -344 120 -344 291c0 178 126 277 367 297l375 28v94c0 196 -117 315 -313 315c-193 0 -317 -100 -344 -273h-48c23 197 173 318 392 318
c224 0 362 -137 362 -357v-698h-49v236h-1c-50 -148 -212 -251 -397 -251zM377 1254c-30 0 -55 25 -55 54s25 53 55 53c29 0 54 -24 54 -53s-25 -54 -54 -54zM655 1254c-29 0 -54 25 -54 54s25 53 54 53c30 0 55 -24 55 -53s-25 -54 -55 -54z" />
    <glyph glyph-name="adieresismacron" unicode="&#x1df;" horiz-adv-x="987" 
d="M434 30c218 0 395 158 395 353v175l-367 -28c-212 -17 -325 -104 -325 -254c0 -142 126 -246 297 -246zM431 -15c-202 0 -344 120 -344 291c0 178 126 277 367 297l375 28v94c0 196 -117 315 -313 315c-193 0 -317 -100 -344 -273h-48c23 197 173 318 392 318
c224 0 362 -137 362 -357v-698h-49v236h-1c-50 -148 -212 -251 -397 -251zM377 1254c-30 0 -54 24 -54 54c0 29 24 53 54 53c29 0 54 -24 54 -53c0 -30 -25 -54 -54 -54zM655 1254c-29 0 -54 24 -54 54c0 29 25 53 54 53c30 0 54 -24 54 -53c0 -30 -24 -54 -54 -54z
M801 1628v-43h-584v43h584z" />
    <glyph glyph-name="aring" unicode="&#xe5;" horiz-adv-x="987" 
d="M434 30c218 0 395 158 395 353v175l-367 -28c-212 -17 -325 -104 -325 -254c0 -142 126 -246 297 -246zM431 -15c-202 0 -344 120 -344 291c0 178 126 277 367 297l375 28v94c0 196 -117 315 -313 315c-193 0 -317 -100 -344 -273h-48c23 197 173 318 392 318
c224 0 362 -137 362 -357v-698h-49v236h-1c-50 -148 -212 -251 -397 -251zM516 1249c-91 0 -165 75 -165 166c0 90 74 165 165 165c90 0 164 -75 164 -165c0 -91 -74 -166 -164 -166zM516 1288c71 0 126 56 126 127c0 70 -55 127 -126 127c-72 0 -127 -57 -127 -127
c0 -71 55 -127 127 -127z" />
    <glyph glyph-name="aringacute" unicode="&#x1fb;" horiz-adv-x="987" 
d="M434 30c218 0 395 158 395 353v175l-367 -28c-212 -17 -325 -104 -325 -254c0 -142 126 -246 297 -246zM431 -15c-202 0 -344 120 -344 291c0 178 126 277 367 297l375 28v94c0 196 -117 315 -313 315c-193 0 -317 -100 -344 -273h-48c23 197 173 318 392 318
c224 0 362 -137 362 -357v-698h-49v236h-1c-50 -148 -212 -251 -397 -251zM516 1231c-90 0 -165 75 -165 165s75 166 165 166s165 -76 165 -166s-75 -165 -165 -165zM390 1396c0 -70 55 -127 126 -127s126 57 126 127c0 71 -55 127 -126 127s-126 -56 -126 -127zM484 1648
l153 165h60l-162 -165h-51z" />
    <glyph glyph-name="atilde" unicode="&#xe3;" horiz-adv-x="987" 
d="M434 30c218 0 395 158 395 353v175l-367 -28c-212 -17 -325 -104 -325 -254c0 -142 126 -246 297 -246zM431 -15c-202 0 -344 120 -344 291c0 178 126 277 367 297l375 28v94c0 196 -117 315 -313 315c-193 0 -317 -100 -344 -273h-48c23 197 173 318 392 318
c224 0 362 -137 362 -357v-698h-49v236h-1c-50 -148 -212 -251 -397 -251zM652 1254c-131 0 -169 168 -274 168c-69 0 -97 -66 -97 -158h-45c0 119 46 201 142 201c131 0 170 -167 274 -167c69 0 97 65 97 158h45c0 -119 -46 -202 -142 -202z" />
    <glyph glyph-name="abrevegrave" unicode="&#x1eb1;" horiz-adv-x="987" 
d="M434 30c218 0 395 158 395 353v175l-367 -28c-212 -17 -325 -104 -325 -254c0 -142 126 -246 297 -246zM431 -15c-202 0 -344 120 -344 291c0 178 126 277 367 297l375 28v94c0 196 -117 315 -313 315c-193 0 -317 -100 -344 -273h-48c23 197 173 318 392 318
c224 0 362 -137 362 -357v-698h-49v236h-1c-50 -148 -212 -251 -397 -251zM562 1509h-52l-253 294h64zM773 1490c0 -153 -109 -236 -257 -236s-257 83 -257 236h44c0 -119 84 -194 213 -194s213 75 213 194h44z" />
    <glyph glyph-name="adotmacron" unicode="&#x1e1;" horiz-adv-x="987" 
d="M434 30c218 0 395 158 395 353v175l-367 -28c-212 -17 -325 -104 -325 -254c0 -142 126 -246 297 -246zM431 -15c-202 0 -344 120 -344 291c0 178 126 277 367 297l375 28v94c0 196 -117 315 -313 315c-193 0 -317 -100 -344 -273h-48c23 197 173 318 392 318
c224 0 362 -137 362 -357v-698h-49v236h-1c-50 -148 -212 -251 -397 -251zM516 1254c-34 0 -64 29 -64 64c0 34 30 63 64 63s64 -29 64 -63c0 -35 -30 -64 -64 -64zM801 1628v-43h-584v43h584z" />
    <glyph glyph-name="aringbelow" unicode="&#x1e01;" horiz-adv-x="987" 
d="M434 30c218 0 395 158 395 353v175l-367 -28c-212 -17 -325 -104 -325 -254c0 -142 126 -246 297 -246zM431 -15c-202 0 -344 120 -344 291c0 178 126 277 367 297l375 28v94c0 196 -117 315 -313 315c-193 0 -317 -100 -344 -273h-48c23 197 173 318 392 318
c224 0 362 -137 362 -357v-698h-49v236h-1c-50 -148 -212 -251 -397 -251zM503 -473c-91 0 -165 75 -165 166c0 90 74 165 165 165c90 0 164 -75 164 -165c0 -91 -74 -166 -164 -166zM503 -434c71 0 126 56 126 127c0 70 -55 127 -126 127c-72 0 -127 -57 -127 -127
c0 -71 55 -127 127 -127z" />
    <glyph glyph-name="acircumflex" unicode="&#xe2;" horiz-adv-x="987" 
d="M434 30c218 0 395 158 395 353v175l-367 -28c-212 -17 -325 -104 -325 -254c0 -142 126 -246 297 -246zM431 -15c-202 0 -344 120 -344 291c0 178 126 277 367 297l375 28v94c0 196 -117 315 -313 315c-193 0 -317 -100 -344 -273h-48c23 197 173 318 392 318
c224 0 362 -137 362 -357v-698h-49v236h-1c-50 -148 -212 -251 -397 -251zM538 1557l265 -303h-56l-230 264h-2l-230 -264h-56l265 303h44z" />
    <glyph glyph-name="acircumflexdotbelow" unicode="&#x1ead;" horiz-adv-x="987" 
d="M434 30c218 0 395 158 395 353v175l-367 -28c-212 -17 -325 -104 -325 -254c0 -142 126 -246 297 -246zM431 -15c-202 0 -344 120 -344 291c0 178 126 277 367 297l375 28v94c0 196 -117 315 -313 315c-193 0 -317 -100 -344 -273h-48c23 197 173 318 392 318
c224 0 362 -137 362 -357v-698h-49v236h-1c-50 -148 -212 -251 -397 -251zM538 1557l265 -303h-56l-230 264h-2l-230 -264h-56l265 303h44zM503 -268c-34 0 -64 29 -64 64c0 34 30 63 64 63s64 -29 64 -63c0 -35 -30 -64 -64 -64z" />
    <glyph glyph-name="acircumflexacute" unicode="&#x1ea5;" horiz-adv-x="987" 
d="M434 30c218 0 395 158 395 353v175l-367 -28c-212 -17 -325 -104 -325 -254c0 -142 126 -246 297 -246zM431 -15c-202 0 -344 120 -344 291c0 178 126 277 367 297l375 28v94c0 196 -117 315 -313 315c-193 0 -317 -100 -344 -273h-48c23 197 173 318 392 318
c224 0 362 -137 362 -357v-698h-49v236h-1c-50 -148 -212 -251 -397 -251zM540 1545l263 -291h-55l-231 253h-2l-231 -253h-55l263 291h48zM724 1509l241 294h64l-253 -294h-52z" />
    <glyph glyph-name="acircumflextilde" unicode="&#x1eab;" horiz-adv-x="987" 
d="M434 30c218 0 395 158 395 353v175l-367 -28c-212 -17 -325 -104 -325 -254c0 -142 126 -246 297 -246zM431 -15c-202 0 -344 120 -344 291c0 178 126 277 367 297l375 28v94c0 196 -117 315 -313 315c-193 0 -317 -100 -344 -273h-48c23 197 173 318 392 318
c224 0 362 -137 362 -357v-698h-49v236h-1c-50 -148 -212 -251 -397 -251zM540 1545l263 -291h-55l-231 253h-2l-231 -253h-55l263 291h48zM635 1612c-123 0 -141 149 -237 149c-65 0 -93 -55 -93 -130h-46c0 100 49 173 138 173c124 0 141 -149 238 -149c64 0 92 56 92 131
h46c0 -100 -49 -174 -138 -174z" />
    <glyph glyph-name="acircumflexgrave" unicode="&#x1ea7;" horiz-adv-x="987" 
d="M434 30c218 0 395 158 395 353v175l-367 -28c-212 -17 -325 -104 -325 -254c0 -142 126 -246 297 -246zM431 -15c-202 0 -344 120 -344 291c0 178 126 277 367 297l375 28v94c0 196 -117 315 -313 315c-193 0 -317 -100 -344 -273h-48c23 197 173 318 392 318
c224 0 362 -137 362 -357v-698h-49v236h-1c-50 -148 -212 -251 -397 -251zM540 1545l263 -291h-55l-231 253h-2l-231 -253h-55l263 291h48zM893 1509h-52l-253 294h64z" />
    <glyph glyph-name="acircumflexhookabove" unicode="&#x1ea9;" horiz-adv-x="987" 
d="M434 30c218 0 395 158 395 353v175l-367 -28c-212 -17 -325 -104 -325 -254c0 -142 126 -246 297 -246zM431 -15c-202 0 -344 120 -344 291c0 178 126 277 367 297l375 28v94c0 196 -117 315 -313 315c-193 0 -317 -100 -344 -273h-48c23 197 173 318 392 318
c224 0 362 -137 362 -357v-698h-49v236h-1c-50 -148 -212 -251 -397 -251zM618 1705v42c21 13 67 29 113 29c89 0 147 -52 147 -130c0 -59 -35 -111 -97 -140l-28 31c48 23 80 64 80 107c0 54 -43 89 -107 89c-40 0 -86 -13 -108 -28zM540 1545l263 -291h-55l-231 253h-2
l-231 -253h-55l263 291h48z" />
    <glyph glyph-name="abreve" unicode="&#x103;" horiz-adv-x="987" 
d="M434 30c218 0 395 158 395 353v175l-367 -28c-212 -17 -325 -104 -325 -254c0 -142 126 -246 297 -246zM431 -15c-202 0 -344 120 -344 291c0 178 126 277 367 297l375 28v94c0 196 -117 315 -313 315c-193 0 -317 -100 -344 -273h-48c23 197 173 318 392 318
c224 0 362 -137 362 -357v-698h-49v236h-1c-50 -148 -212 -251 -397 -251zM258 1490h45c0 -118 84 -194 213 -194s213 76 213 194h45c0 -153 -110 -237 -258 -237s-258 84 -258 237z" />
    <glyph glyph-name="abreveacute" unicode="&#x1eaf;" horiz-adv-x="987" 
d="M434 30c218 0 395 158 395 353v175l-367 -28c-212 -17 -325 -104 -325 -254c0 -142 126 -246 297 -246zM431 -15c-202 0 -344 120 -344 291c0 178 126 277 367 297l375 28v94c0 196 -117 315 -313 315c-193 0 -317 -100 -344 -273h-48c23 197 173 318 392 318
c224 0 362 -137 362 -357v-698h-49v236h-1c-50 -148 -212 -251 -397 -251zM470 1509l241 294h64l-253 -294h-52zM773 1490c0 -153 -109 -236 -257 -236s-257 83 -257 236h44c0 -119 84 -194 213 -194s213 75 213 194h44z" />
    <glyph glyph-name="abrevetilde" unicode="&#x1eb5;" horiz-adv-x="987" 
d="M434 30c218 0 395 158 395 353v175l-367 -28c-212 -17 -325 -104 -325 -254c0 -142 126 -246 297 -246zM431 -15c-202 0 -344 120 -344 291c0 178 126 277 367 297l375 28v94c0 196 -117 315 -313 315c-193 0 -317 -100 -344 -273h-48c23 197 173 318 392 318
c224 0 362 -137 362 -357v-698h-49v236h-1c-50 -148 -212 -251 -397 -251zM773 1490c0 -153 -109 -236 -257 -236s-257 83 -257 236h44c0 -119 84 -194 213 -194s213 75 213 194h44zM635 1612c-123 0 -141 149 -237 149c-65 0 -93 -55 -93 -130h-46c0 100 49 173 138 173
c124 0 141 -149 238 -149c64 0 92 56 92 131h46c0 -100 -49 -174 -138 -174z" />
    <glyph glyph-name="abrevehookabove" unicode="&#x1eb3;" horiz-adv-x="987" 
d="M434 30c218 0 395 158 395 353v175l-367 -28c-212 -17 -325 -104 -325 -254c0 -142 126 -246 297 -246zM431 -15c-202 0 -344 120 -344 291c0 178 126 277 367 297l375 28v94c0 196 -117 315 -313 315c-193 0 -317 -100 -344 -273h-48c23 197 173 318 392 318
c224 0 362 -137 362 -357v-698h-49v236h-1c-50 -148 -212 -251 -397 -251zM773 1490c0 -153 -109 -236 -257 -236s-257 83 -257 236h44c0 -119 84 -194 213 -194s213 75 213 194h44zM361 1705v42c21 13 67 29 112 29c90 0 148 -52 148 -130c0 -59 -35 -111 -97 -140l-28 31
c48 23 79 64 79 107c0 54 -42 89 -106 89c-41 0 -87 -13 -108 -28z" />
    <glyph glyph-name="abrevedotbelow" unicode="&#x1eb7;" horiz-adv-x="987" 
d="M434 30c218 0 395 158 395 353v175l-367 -28c-212 -17 -325 -104 -325 -254c0 -142 126 -246 297 -246zM431 -15c-202 0 -344 120 -344 291c0 178 126 277 367 297l375 28v94c0 196 -117 315 -313 315c-193 0 -317 -100 -344 -273h-48c23 197 173 318 392 318
c224 0 362 -137 362 -357v-698h-49v236h-1c-50 -148 -212 -251 -397 -251zM503 -268c-34 0 -64 29 -64 64c0 34 30 63 64 63s64 -29 64 -63c0 -35 -30 -64 -64 -64zM258 1490h45c0 -118 84 -194 213 -194s213 76 213 194h45c0 -153 -110 -237 -258 -237s-258 84 -258 237z
" />
    <glyph glyph-name="ainvertedbreve" unicode="&#x203;" horiz-adv-x="987" 
d="M434 30c218 0 395 158 395 353v175l-367 -28c-212 -17 -325 -104 -325 -254c0 -142 126 -246 297 -246zM431 -15c-202 0 -344 120 -344 291c0 178 126 277 367 297l375 28v94c0 196 -117 315 -313 315c-193 0 -317 -100 -344 -273h-48c23 197 173 318 392 318
c224 0 362 -137 362 -357v-698h-49v236h-1c-50 -148 -212 -251 -397 -251zM258 1254c0 152 110 236 258 236s258 -84 258 -236h-45c0 117 -84 193 -213 193s-213 -76 -213 -193h-45z" />
    <glyph glyph-name="acaron" unicode="&#x1ce;" horiz-adv-x="987" 
d="M434 30c218 0 395 158 395 353v175l-367 -28c-212 -17 -325 -104 -325 -254c0 -142 126 -246 297 -246zM431 -15c-202 0 -344 120 -344 291c0 178 126 277 367 297l375 28v94c0 196 -117 315 -313 315c-193 0 -317 -100 -344 -273h-48c23 197 173 318 392 318
c224 0 362 -137 362 -357v-698h-49v236h-1c-50 -148 -212 -251 -397 -251zM538 1254h-44l-265 303h56l230 -264h2l230 264h56z" />
    <glyph glyph-name="adotaccent" unicode="&#x227;" horiz-adv-x="987" 
d="M434 30c218 0 395 158 395 353v175l-367 -28c-212 -17 -325 -104 -325 -254c0 -142 126 -246 297 -246zM431 -15c-202 0 -344 120 -344 291c0 178 126 277 367 297l375 28v94c0 196 -117 315 -313 315c-193 0 -317 -100 -344 -273h-48c23 197 173 318 392 318
c224 0 362 -137 362 -357v-698h-49v236h-1c-50 -148 -212 -251 -397 -251zM516 1254c-34 0 -64 30 -64 64c0 35 30 64 64 64c35 0 65 -29 65 -64c0 -34 -30 -64 -65 -64z" />
    <glyph glyph-name="adotbelow" unicode="&#x1ea1;" horiz-adv-x="987" 
d="M434 30c218 0 395 158 395 353v175l-367 -28c-212 -17 -325 -104 -325 -254c0 -142 126 -246 297 -246zM431 -15c-202 0 -344 120 -344 291c0 178 126 277 367 297l375 28v94c0 196 -117 315 -313 315c-193 0 -317 -100 -344 -273h-48c23 197 173 318 392 318
c224 0 362 -137 362 -357v-698h-49v236h-1c-50 -148 -212 -251 -397 -251zM503 -268c-34 0 -64 29 -64 64c0 34 30 63 64 63s64 -29 64 -63c0 -35 -30 -64 -64 -64z" />
    <glyph glyph-name="ahookabove" unicode="&#x1ea3;" horiz-adv-x="987" 
d="M434 30c218 0 395 158 395 353v175l-367 -28c-212 -17 -325 -104 -325 -254c0 -142 126 -246 297 -246zM431 -15c-202 0 -344 120 -344 291c0 178 126 277 367 297l375 28v94c0 196 -117 315 -313 315c-193 0 -317 -100 -344 -273h-48c23 197 173 318 392 318
c224 0 362 -137 362 -357v-698h-49v236h-1c-50 -148 -212 -251 -397 -251zM401 1440v45c25 17 65 29 105 29c89 0 147 -54 147 -131c0 -62 -41 -115 -99 -141l-27 32c48 21 80 58 80 107c0 54 -43 90 -107 90c-35 0 -75 -12 -99 -31z" />
    <glyph glyph-name="adblgrave" unicode="&#x201;" horiz-adv-x="987" 
d="M434 30c218 0 395 158 395 353v175l-367 -28c-212 -17 -325 -104 -325 -254c0 -142 126 -246 297 -246zM431 -15c-202 0 -344 120 -344 291c0 178 126 277 367 297l375 28v94c0 196 -117 315 -313 315c-193 0 -317 -100 -344 -273h-48c23 197 173 318 392 318
c224 0 362 -137 362 -357v-698h-49v236h-1c-50 -148 -212 -251 -397 -251zM432 1254h-52l-245 303h62zM655 1254h-52l-245 303h62z" />
    <glyph glyph-name="amacron" unicode="&#x101;" horiz-adv-x="987" 
d="M434 30c218 0 395 158 395 353v175l-367 -28c-212 -17 -325 -104 -325 -254c0 -142 126 -246 297 -246zM431 -15c-202 0 -344 120 -344 291c0 178 126 277 367 297l375 28v94c0 196 -117 315 -313 315c-193 0 -317 -100 -344 -273h-48c23 197 173 318 392 318
c224 0 362 -137 362 -357v-698h-49v236h-1c-50 -148 -212 -251 -397 -251zM801 1348v-43h-584v43h584z" />
    <glyph glyph-name="aogonek" unicode="&#x105;" horiz-adv-x="987" 
d="M434 30c218 0 395 158 395 353v175l-367 -28c-212 -17 -325 -104 -325 -254c0 -142 126 -246 297 -246zM878 -362c-16 -5 -44 -10 -71 -10c-109 0 -187 69 -187 164c0 94 75 170 209 225v219h-1c-50 -148 -212 -251 -397 -251c-202 0 -344 120 -344 291
c0 178 126 277 367 297l375 28v94c0 196 -117 315 -313 315c-193 0 -317 -100 -344 -273h-48c23 197 173 318 392 318c224 0 362 -137 362 -357v-698l-7 -3c-135 -58 -202 -120 -202 -200c0 -72 59 -123 141 -123c28 0 55 3 68 7v-43z" />
    <glyph glyph-name="a.1" horiz-adv-x="1069" 
d="M509 45c238 0 396 190 396 475c0 289 -163 490 -396 490c-235 0 -396 -196 -396 -483s160 -482 396 -482zM505 1055c187 0 343 -121 395 -303h5v288h49v-1040h-49v290h-5c-55 -183 -202 -291 -395 -291c-263 0 -442 213 -442 528c0 313 180 528 442 528z" />
    <glyph glyph-name="agrave.1" horiz-adv-x="1077" 
d="M623 1253h-53l-246 303h63zM509 44c238 0 396 190 396 475c0 289 -163 490 -396 490c-235 0 -396 -196 -396 -483s160 -482 396 -482zM505 1054c187 0 343 -121 395 -303h5v288h49v-1040h-49v290h-5c-55 -183 -202 -291 -395 -291c-263 0 -442 213 -442 528
c0 313 180 528 442 528z" />
    <glyph glyph-name="aacute.1" horiz-adv-x="1077" 
d="M522 1254h-53l236 303h63zM509 45c238 0 396 190 396 475c0 289 -163 490 -396 490c-235 0 -396 -196 -396 -483s160 -482 396 -482zM505 1055c187 0 343 -121 395 -303h5v288h49v-1040h-49v290h-5c-55 -183 -202 -291 -395 -291c-263 0 -442 213 -442 528
c0 313 180 528 442 528z" />
    <glyph glyph-name="adieresis.1" horiz-adv-x="1077" 
d="M509 45c238 0 396 190 396 475c0 289 -163 490 -396 490c-235 0 -396 -196 -396 -483s160 -482 396 -482zM505 1055c187 0 343 -121 395 -303h5v288h49v-1040h-49v290h-5c-55 -183 -202 -291 -395 -291c-263 0 -442 213 -442 528c0 313 180 528 442 528zM427 1254
c-30 0 -55 25 -55 54s25 53 55 53c29 0 54 -24 54 -53s-25 -54 -54 -54zM705 1254c-29 0 -54 25 -54 54s25 53 54 53c30 0 55 -24 55 -53s-25 -54 -55 -54z" />
    <glyph glyph-name="adieresismacron.1" horiz-adv-x="1077" 
d="M509 45c238 0 396 190 396 475c0 289 -163 490 -396 490c-235 0 -396 -196 -396 -483s160 -482 396 -482zM505 1055c187 0 343 -121 395 -303h5v288h49v-1040h-49v290h-5c-55 -183 -202 -291 -395 -291c-263 0 -442 213 -442 528c0 313 180 528 442 528zM427 1254
c-30 0 -54 24 -54 54c0 29 24 53 54 53c29 0 54 -24 54 -53c0 -30 -25 -54 -54 -54zM705 1254c-29 0 -54 24 -54 54c0 29 25 53 54 53c30 0 54 -24 54 -53c0 -30 -24 -54 -54 -54zM851 1628v-43h-584v43h584z" />
    <glyph glyph-name="aring.1" horiz-adv-x="1077" 
d="M509 45c238 0 396 190 396 475c0 289 -163 490 -396 490c-235 0 -396 -196 -396 -483s160 -482 396 -482zM505 1055c187 0 343 -121 395 -303h5v288h49v-1040h-49v290h-5c-55 -183 -202 -291 -395 -291c-263 0 -442 213 -442 528c0 313 180 528 442 528zM566 1249
c-91 0 -165 75 -165 166c0 90 74 165 165 165c90 0 164 -75 164 -165c0 -91 -74 -166 -164 -166zM566 1288c71 0 126 56 126 127c0 70 -55 127 -126 127c-72 0 -127 -57 -127 -127c0 -71 55 -127 127 -127z" />
    </font>
</defs>
</svg>
