<svg xmlns="http://www.w3.org/2000/svg" viewBox="0 0 28.35 24"><title>heart</title><path d="M14.39,4.58l.52-.36L15.14,4v.06C17.73,2.17,20.56-.59,24,.11a5.79,5.79,0,0,1,4.19,4.82C30,15.42,15.4,23.19,12,24a49.14,49.14,0,0,0,8.7-7.63c3.82-4.51,5.79-9.72,2.39-11-2-.78-6.19,3.27-10.18,2.92a3.27,3.27,0,0,1-1.07-.21,5.59,5.59,0,0,1-1.49-.74c-.92-.57-1.71-1.24-2.1-1.51C6.56,4.6,4.84,4,3.93,4.36c-2.53,1-1.06,4.85,1.77,8.21a36.85,36.85,0,0,0,6.48,5.68C9.64,17.65-1.23,11.86.11,4.05A4.33,4.33,0,0,1,3.24.47c3.41-.7,6.11,3.26,8.52,4.18A3.09,3.09,0,0,0,14.39,4.58Z" fill="#fff"/></svg>