<svg xmlns="http://www.w3.org/2000/svg" viewBox="0 0 76.18 77.51"><title>logo</title><path d="M21.71,25.76a12.85,12.85,0,0,0,12.18,2c8.82-2.87,18.27-17,30.6-14.44,5.93,1.23,10.22,6.81,11.28,13,4.86,28.18-34.39,49.08-43.58,51.25,0,0,14-9.43,23.39-20.5C65.83,44.87,71.13,30.86,62,27.37,54.18,24.38,33.7,48.55,21.71,25.76Z" fill="#e4953d"/><path d="M67.78,6a6,6,0,1,1-6-6A6,6,0,0,1,67.78,6Z" fill="#e4953d"/><path d="M40.69,19.72c-.34.43-3.52,3.94-9.1,1.79C25.12,19,17.86,8.38,8.7,10.27c-4.4.9-7.6,5.06-8.39,9.63C-3.31,40.88,25.9,56.43,32.74,58c0,0-10.45-7-17.41-15.26-7.63-9-11.56-19.45-4.77-22C16.36,18.51,31.2,36.7,40.69,19.72Z" fill="#fff"/><path d="M5.78,4.5A4.5,4.5,0,1,0,10.28,0,4.5,4.5,0,0,0,5.78,4.5Z" fill="#fff"/></svg>