<?xml version="1.0" encoding="UTF-8"?>
<svg width="80px" height="80px" viewBox="0 0 80 80" version="1.1" xmlns="http://www.w3.org/2000/svg" xmlns:xlink="http://www.w3.org/1999/xlink">
    <!-- Generator: Sketch 48.2 (47327) - http://www.bohemiancoding.com/sketch -->
    <title>icon</title>
    <desc>Created with Sketch.</desc>
    <defs></defs>
    <g id="02_Desktop" stroke="none" stroke-width="1" fill="none" fill-rule="evenodd" transform="translate(-1221.000000, -85.000000)">
        <g id="phone" transform="translate(1080.000000, 0.000000)">
            <g id="icon" transform="translate(141.000000, 85.000000)">
                <path d="M32.1520751,27.0027268 C31.2813018,27.0460801 30.142332,27.6177031 29.2125398,28.1014142 C26.5719673,29.4751569 26.5939365,34.4405934 27.727301,37.1230301 C29.1266094,40.4349855 31.5722146,43.2125271 34.1788073,45.8196821 C36.7853822,48.4268281 39.5623882,50.8729353 42.8736431,52.2725359 C45.5555286,53.4061456 50.5199192,53.4281372 51.893375,50.7869868 C52.5968074,49.4342884 53.4978473,47.6530264 52.6669369,46.871946 C52.6115256,46.8198924 52.5526359,46.7754249 52.481282,46.7326758 C51.0343693,45.8656623 49.0603323,45.0610409 47.5923708,44.7828926 C46.179419,44.5151461 45.0016765,47.1537552 43.4615502,46.4231864 C41.5661963,45.5240672 39.5688193,44.1235039 37.7217208,42.2760285 C35.8746223,40.428562 34.4743604,38.4307322 33.575429,36.5350002 C32.8450123,34.9945432 35.4985237,33.8320199 35.2308515,32.4187913 C34.9527613,30.9505052 34.148299,28.9760654 33.2814755,27.5288588 C33.2387204,27.4574812 33.1788059,27.3831136 33.1267631,27.3276907 C32.8827265,27.0679796 32.5478808,26.9830205 32.1520751,27.0027268 Z" id="Path" fill="#FFFFFF"></path>
                <g id="Group" opacity="0.401494565" transform="translate(1.000000, 1.000000)" stroke="#FFFFFF">
                    <path d="M71.3457708,60.7958564 C75.5470367,54.573265 78,47.0730926 78,39 C78,17.4608948 60.5391052,0 39,0 C17.4608948,0 0,17.4608948 0,39 C0,60.5391052 17.4608948,78 39,78 C44.6833622,78 50.0827855,76.7843128 54.9524164,74.5987918" id="Oval"></path>
                    <path d="M54.9349365,74.6140747 C59.3428345,72.8212891 64,68.0444336 64,63 C64,58.3375585 61.0992528,54.3526229 57.0040147,52.7514494" id="Oval-2"></path>
                </g>
            </g>
        </g>
    </g>
</svg>